<?xml version="1.0" encoding="utf-8"?>
<!-- Generator: Adobe Illustrator 19.0.0, SVG Export Plug-In . SVG Version: 6.00 Build 0)  -->
<svg version="1.1" id="Layer_1" xmlns="http://www.w3.org/2000/svg" xmlns:xlink="http://www.w3.org/1999/xlink" x="0px" y="0px"
	 viewBox="0 0 20 20" style="enable-background:new 0 0 20 20;" xml:space="preserve">
<path id="XMLID_18_" d="M12.5,17.7c0-0.5,0-1.1,0-1.7c-0.1-0.4-0.2-0.9-0.5-1.2c-0.1-0.2-0.1-0.2,0.1-0.2c0.6-0.1,1.1-0.2,1.7-0.4
	c1-0.4,1.8-1.1,2.2-2.1c0.4-1.2,0.6-2.4,0.2-3.7c-0.1-0.4-0.3-0.8-0.6-1.1c-0.1-0.1-0.1-0.2-0.1-0.4c0.2-0.7,0.2-1.5-0.1-2.2
	c-0.1-0.2-0.2-0.2-0.4-0.2c-0.5,0-1,0.2-1.5,0.4c-0.3,0.1-0.5,0.3-0.8,0.4c-0.2,0.1-0.3,0.1-0.5,0.1C11.5,5.1,10.8,5,10,5
	C9.2,5,8.5,5.1,7.8,5.3c-0.2,0.1-0.4,0-0.6-0.1C6.7,4.8,6.1,4.5,5.5,4.4C4.8,4.3,4.8,4.3,4.6,4.9c-0.2,0.6-0.2,1.3,0,1.9
	c0,0.1,0,0.2-0.1,0.3c-0.7,0.9-0.9,1.9-0.8,3c0,0.5,0.1,0.9,0.2,1.4c0.4,1.2,1.1,2,2.3,2.5c0.5,0.2,1.1,0.3,1.6,0.4
	c0.1,0,0.2,0,0.2,0.1c0,0.1-0.1,0.1-0.1,0.2c-0.2,0.2-0.4,0.5-0.4,0.8c0,0.2-0.2,0.3-0.3,0.4c-0.6,0.2-1.2,0.3-1.8-0.1
	c-0.3-0.2-0.6-0.5-0.8-0.8c-0.3-0.5-0.7-0.9-1.3-1c-0.1,0-0.3,0-0.4,0c-0.2,0.1-0.3,0.2-0.1,0.4c0.1,0.1,0.1,0.1,0.2,0.2
	C3.5,15,3.9,15.5,4.1,16c0.5,1.3,1.7,1.7,2.9,1.6c0.1,0,0.2,0,0.4,0c0.1,0,0.2,0,0.2,0.2c0,0.5,0,1,0,1.6c0,0.2-0.2,0.4-0.4,0.4
	c-0.2,0-0.4,0-0.6-0.1C5.2,19.1,4,18.3,3,17.2c-1.2-1.2-2.1-2.6-2.5-4.3c-0.7-2.7-0.4-5.2,1-7.6C3,2.5,5.5,0.8,8.7,0.4
	c2.9-0.4,5.6,0.4,7.8,2.3c1.8,1.6,2.9,3.5,3.3,5.9c0.4,3-0.3,5.7-2.3,8.1c-1.1,1.3-2.5,2.2-4.1,2.8c-0.1,0-0.2,0.1-0.3,0.1
	c-0.4,0.1-0.6-0.1-0.6-0.5C12.5,18.7,12.5,18.2,12.5,17.7z"/>
</svg>
