<?xml version="1.0" encoding="utf-8"?>
<!-- Generator: Adobe Illustrator 19.0.0, SVG Export Plug-In . SVG Version: 6.00 Build 0)  -->
<svg version="1.1" id="Layer_1" xmlns="http://www.w3.org/2000/svg" xmlns:xlink="http://www.w3.org/1999/xlink" x="0px" y="0px"
	 viewBox="0 0 20 20" style="enable-background:new 0 0 20 20;" xml:space="preserve">
<g id="XMLID_1_">
	<path id="XMLID_31_" d="M16.7,14.9c0,1.2,0,2.4,0,3.6c0,0.1,0,0.2,0,0.3c0,0.2-0.2,0.4-0.4,0.5c-0.2,0.1-0.4,0.1-0.7,0.1
		c-1,0-2.1,0-3.1,0c0,0,0,0,0,0c-0.5,0-0.6-0.1-0.6-0.6c0-1.1,0-2.1,0-3.2c0-0.1,0-0.1,0-0.2c0-0.2,0-0.3-0.3-0.3c-1,0-2.1,0-3.1,0
		c-0.3,0-0.3,0-0.3,0.3c0,1.1,0,2.2,0,3.3c0,0.1,0,0.2,0,0.3c0,0.2-0.1,0.3-0.3,0.4c-0.1,0-0.2,0-0.3,0c-1,0-2.1,0-3.1,0
		c-0.2,0-0.5-0.1-0.7-0.1c-0.2-0.1-0.3-0.2-0.4-0.5c0-0.1,0-0.3,0-0.4c0-2.4,0-4.9,0-7.3c0-0.2,0.1-0.4,0.2-0.5
		C4.4,9.9,5.2,9.2,6,8.4c0.9-0.9,1.9-1.7,2.8-2.6c0.3-0.3,0.7-0.6,1-0.9c0.1-0.1,0.2-0.1,0.3,0c0.7,0.6,1.3,1.2,2,1.8
		c1.1,1,2.2,2,3.3,3c0.3,0.3,0.7,0.6,1,0.9c0.1,0.1,0.2,0.3,0.2,0.4C16.7,12.4,16.7,13.6,16.7,14.9z"/>
	<path id="XMLID_30_" d="M5.9,3.9c0.2-0.2,0.3-0.3,0.5-0.4C7.3,2.7,8.1,1.9,9,1.1C9.1,1,9.2,0.9,9.4,0.8c0.4-0.3,0.8-0.3,1.2,0
		c0.3,0.2,0.6,0.5,0.9,0.8c1.4,1.3,2.9,2.6,4.3,3.9c1.2,1.1,2.4,2.2,3.5,3.3c0.6,0.5,0.5,1.6-0.3,1.9c-0.4,0.2-0.9,0.1-1.2-0.2
		c-0.4-0.3-0.7-0.7-1.1-1c-1.3-1.2-2.6-2.4-3.9-3.5c-0.8-0.8-1.7-1.5-2.5-2.3c0,0-0.1-0.1-0.1-0.1C10,3.4,10,3.4,9.8,3.6
		c-0.6,0.5-1.1,1-1.7,1.6C6.7,6.4,5.4,7.7,4,8.9c-0.5,0.5-1,1-1.6,1.5c-0.2,0.2-0.4,0.3-0.6,0.4c-0.5,0.1-1-0.1-1.3-0.6
		c-0.3-0.5-0.2-1,0.2-1.4c0.7-0.7,1.4-1.3,2.1-2c0.3-0.3,0.7-0.6,1-0.9c0.1-0.1,0.1-0.2,0.1-0.3c0-1.3,0-2.6,0-3.9
		c0-0.2,0-0.3,0-0.5C4,1,4.1,0.9,4.3,0.9c0.4,0,0.7,0,1.1,0c0.3,0,0.5,0.1,0.5,0.4c0,0.1,0,0.2,0,0.2c0,0.7,0,1.4,0,2.1
		C5.9,3.7,5.9,3.8,5.9,3.9z"/>
</g>
</svg>
