<?xml version="1.0" encoding="utf-8"?>
<!-- Generator: Adobe Illustrator 19.0.0, SVG Export Plug-In . SVG Version: 6.00 Build 0)  -->
<svg version="1.1" id="Layer_1" xmlns="http://www.w3.org/2000/svg" xmlns:xlink="http://www.w3.org/1999/xlink" x="0px" y="0px"
	 viewBox="5 -5 30 30" style="enable-background:new 5 -5 30 30;" xml:space="preserve">
<style type="text/css">
	.st0{fill:#FFFFFF;}
	.st1{fill:none;stroke:#FFFFFF;stroke-miterlimit:10;}
</style>
<g id="Layer_1_1_">
</g>
<polygon id="XMLID_2_" class="st0" points="-88,-103.8 -80.5,-111.5 -81.7,-102 -71.7,-104.2 -82.3,-95.3 -73.4,-91.1 -86,-90.5 
	-94,-81.9 -91.5,-92.5 -97.2,-96 -92,-96.5 -98.7,-108.5 "/>
<g id="XMLID_27_">
	<path id="XMLID_28_" class="st0" d="M-114.9-64.9c-1.2-0.7-2.6-0.4-3.3,0.9c-0.7,1.2-0.5,2.6,0.7,3.4c1.2,0.8,2.6,0.3,3.3-0.9
		C-113.4-62.8-113.7-64.2-114.9-64.9z"/>
	<polygon id="XMLID_29_" class="st0" points="-101.4,-83.1 -104.7,-85.1 -110.4,-75.2 -118.4,-83.3 -121,-80.5 -112,-72.4 
		-114.4,-68.4 -112,-67 -109.8,-70.4 -106.7,-67.6 -104.8,-69.5 -108.1,-72.9 	"/>
	<path id="XMLID_30_" class="st0" d="M-100-66.3c-1-1-2.4-1.1-3.4,0c-0.9,1-0.9,2.4,0.2,3.4c1,1,2.5,1,3.4,0
		C-98.8-63.9-99-65.3-100-66.3z"/>
</g>
<path id="XMLID_14_" class="st0" d="M-45.4-127.2c-7.6,0-13.8,6.2-13.8,13.8c0,7.6,6.2,13.7,13.8,13.7s13.8-6.2,13.8-13.7
	C-31.7-121-37.8-127.2-45.4-127.2z M-40.5-110.1c-0.6,5.4-2.6,9.3-4.9,9.3c-2.3,0-4.3-4-4.9-9.3c-3.4-0.7-5.8-2.1-5.8-3.7
	s2.4-3,5.9-3.7c0.7-5,2.6-8.5,4.8-8.5s4.1,3.6,4.8,8.5c3.5,0.7,5.9,2.1,5.9,3.7S-37.1-110.8-40.5-110.1z"/>
<polygon id="XMLID_3_" class="st0" points="-34.4,-97.4 -31,-87 -20.1,-87 -28.9,-80.5 -25.5,-70.1 -34.4,-76.5 -43.3,-70 
	-39.9,-80.5 -48.8,-87 -37.8,-87 "/>
<path id="XMLID_16_" class="st0" d="M-67.4-42.9c0.5-3,0.2-6.2-1.2-8.9c-1.6-3.4-5.3-6.4-9.1-4.2c-1.4,0.8-2.3,2.1-3.1,3.7
	c-1.3-0.5-2.4-0.9-3.4-1.2c-6.4-1.7-6.7,3.6-5.4,8.4c-2,0.4-4.9,1.3-4.9,3.6c0,2.6,4.1,5,6.8,6.4c0.4,1.5,0.9,2.9,1.3,3.7
	c2.7,5.6,9.7,3.7,12.4-0.8c0.1-0.1,0.2-0.2,0.3-0.3c3.6-0.5,6.7-2.2,7.3-6.1C-66.1-40.1-66.6-41.5-67.4-42.9z M-73-37.5
	c-0.1-0.6-0.3-1.2-0.6-1.7c0.2-0.7,0.3-1.4,0.4-2.1C-73.1-42-73-43-73-44.2c0.5,0.4,0.9,0.8,1.2,1.2c0.4,0.5,0.7,0.9,1,1.4
	C-71.3-40.1-72-38.7-73-37.5z M-79.5-38.7c-0.3,0.2-0.6,0.3-0.9,0.5c0-0.1-0.1-0.1-0.1-0.2c-0.2-0.2-0.4-0.5-0.6-0.8
	c0.6-0.2,1.1-0.6,1.2-1.4c0-0.2,0-0.4,0-0.5c0.9,0.4,1.6,0.9,2.2,1.6c0.1,0.3,0.2,0.6,0.3,0.9C-78-38.5-78.6-38.5-79.5-38.7z
	 M-76-42.1c-1.1-0.8-2.3-1.5-3.6-2c0.1-0.7,0.2-1.3,0.3-2c0.4-0.6,0.8-1.1,1.3-1.3c0.5,0.3,0.9,0.5,1.4,0.8c0.2,0.1,0.4,0.3,0.6,0.4
	C-75.8-45.1-75.9-43.3-76-42.1z M-82.9-42.1c0,0.3,0,0.6-0.1,0.9c-0.7-0.6-1.5-1-2.4-1c0-0.1-0.1-0.2-0.1-0.2
	C-84.7-42.4-83.8-42.3-82.9-42.1z M-71.3-50.4c0.8,1.2,1,2.8,1.1,4.2c-1-0.9-2.1-1.7-3.2-2.4c-0.4-1.7-1.2-3.1-2.5-3.6
	c-0.2-0.1-0.3-0.1-0.5-0.1C-74.8-53.1-72.6-52.3-71.3-50.4z M-84.9-50.6c1.1,0.4,2.1,0.8,3.1,1.3c-0.2,0.8-0.4,1.6-0.5,2.4
	c-0.4,0.7-0.7,1.3-1,1.9c-1.2-0.2-2.3-0.3-3.4-0.3c-0.2-0.7-0.3-1.4-0.3-2.1C-87.8-49.1-87.1-50.1-84.9-50.6z M-88.6-42.1
	c0.3,0.7,0.6,1.3,0.9,1.8c-0.2,0.4-0.3,0.9-0.3,1.5C-90.7-40.6-90.3-41.7-88.6-42.1z M-83.7-33.4c0.8,0.2,1.7,0.5,2.6,0.6
	c0.2,0.4,0.5,0.8,0.8,1.1C-81.3-31.8-82.4-32.4-83.7-33.4z"/>
<g id="XMLID_10_">
	<polygon id="XMLID_12_" class="st0" points="-96.8,-130.6 -107.1,-131.7 -94,-146.6 -94.8,-147.6 -109.2,-132.9 -115.6,-139.3 
		-102.1,-153.1 -103.3,-153.6 -114.3,-142.5 -118.6,-149 -111,-157.8 -108.5,-155.7 -114.6,-148.7 -113.8,-147.6 -104,-157.4 
		-96.5,-154.3 -111.1,-139.3 -109.2,-137.5 -94.8,-152.3 -89.6,-146.7 -100.5,-134.3 -97.9,-134 -92.5,-138.7 -90.3,-136.3 	"/>
</g>
<g id="XMLID_7_">
	<polygon id="XMLID_8_" class="st0" points="-122.8,-121.5 -129.8,-109.3 -115.3,-115 	"/>
	<polygon id="XMLID_24_" class="st0" points="-134.2,-121.2 -143.1,-116.8 -130.5,-107.7 	"/>
	<polygon id="XMLID_25_" class="st0" points="-121.6,-102.9 -125.3,-103.1 -133,-99 -134.9,-106.6 -137.8,-105.1 -141.9,-110.3 
		-143,-105.8 -141.2,-101.1 -137.8,-98.7 -131.7,-94.2 -127.1,-97.4 -122,-95.8 -122,-99.5 -117.4,-104 -116.7,-108.9 -119,-107.4 	
		"/>
</g>
<polygon id="XMLID_5_" class="st0" points="-77.9,-86.1 -79.3,-82.2 -77,-81.7 -80.5,-65 -80.7,-63.7 -73,-63.6 -71,-65 -67,-65 
	-66,-63.8 -57.7,-63.5 -56.2,-66 -56.7,-70.2 -60.2,-71 -65,-71 -69.8,-74.5 -67.8,-81.3 -64.2,-85.8 "/>
<path id="XMLID_6_" class="st0" d="M-48.5-31l12,5.2l2.5-6.7l5.2-1.3c0,0,1.5,0,1.5-1.2s2-7.2,2-7.2l0.3-6l-5.7-0.8l-6.7,0.3
	l-3.5,4.3l-2-0.2l1.5-2.8l1.2-2.5l-3.8-2l-4.2,2.7l-0.8,6c0,0-0.3,4.3,0.3,4.5c0.7,0.2,5,1.5,5,1.5l-1.5,2.2L-48.5-31z"/>
<polygon id="XMLID_11_" class="st0" points="182.2,-163.1 189.7,-170.8 188.5,-161.3 198.5,-163.5 187.9,-154.6 196.8,-150.4 
	184.2,-149.8 176.2,-141.2 178.7,-151.8 173,-155.3 178.2,-155.8 171.5,-167.8 "/>
<polygon id="XMLID_9_" class="st0" points="99.8,-160.2 98.4,-156.3 100.8,-155.8 97.3,-139.1 97.1,-137.8 104.8,-137.7 
	106.8,-139.1 110.8,-139.1 111.8,-137.9 120.1,-137.6 121.6,-140.1 121.1,-144.3 117.6,-145.1 112.8,-145.1 107.9,-148.6 
	109.9,-155.4 113.6,-159.9 "/>
<path id="XMLID_1_" class="st0" d="M129.3-105.1l12,5.2l2.5-6.7l5.2-1.3c0,0,1.5,0,1.5-1.2s2-7.2,2-7.2l0.3-6l-5.7-0.8l-6.7,0.3
	l-3.5,4.3l-2-0.2l1.5-2.8l1.2-2.5l-3.8-2l-4.2,2.7l-0.8,6c0,0-0.3,4.3,0.3,4.5c0.7,0.2,5,1.5,5,1.5l-1.5,2.2L129.3-105.1z"/>
<path id="XMLID_32_" class="st0" d="M-48.2-137.5l12.5-25.3c0,0,11.5,2.5,9.2,11.2c-2.2-6.3-7.8-6-7.8-6L-47-136.3L-48.2-137.5z"/>
<path id="XMLID_37_" class="st0" d="M-131.4-160.9c-2.1-0.7-4.6-0.2-6.2,6.2c-1.6-1.1-6.2-2.1-8.5,0.2c0-3.9-5.3-7.3-7.3-6
	c-2.1,1.4-6,6.6,2.1,10.1c-3.9,9.8,3.4,17.9,10.3,17.4c6.9-0.5,12.1-10.1,9.4-20.1C-127.6-154.5-129.4-160.2-131.4-160.9z
	 M-142.9-144c-1.8-1.6-3.2-2.1-5,0.7c-2.2,3.2,0.7-8.2,2.7-5.7C-143.1-146.5-141.1-142.4-142.9-144z M-136-144
	c-1.8-1.6-3.2-2.1-5,0.7c-2.2,3.2,0.7-8.2,2.7-5.7C-136.2-146.5-134.2-142.4-136-144z"/>
<path id="XMLID_33_" class="st0" d="M-158.2-82c-4.3,3.7-11.8,29.2-6.5,20.8c5.3-8.3,17.8-29,13.3-18.5s-13,30.5-6,20.8
	s14.8-24.3,14-16.8s-5.2,22.2-1.7,15s6.2-27.3,2.3-22.2c-3.8,5.2-9.7,12-7.3,6.7c2.3-5.3,1.5-12.8-4.7-4.3c-6,8.5-5.2,3.5-4.2,1.5
	S-158.2-82-158.2-82z"/>
<path id="XMLID_42_" class="st0" d="M-25.5-205.2l-13.7,13.7l-7.6-7.6v-9.1l7.6,7.6l13.7-13.6V-205.2z"/>
<path id="XMLID_54_" class="st0" d="M-54.3-178.2c0,3.7-0.9,6.8-2.7,9.3c-1.8,2.4-4.1,4-7,4.7c-2.9-0.7-5.3-2.2-7-4.7
	c-1.8-2.5-2.7-5.6-2.7-9.3c0-1.3,0.3-2.6,0.9-3.9c0.4-1,1-1.7,1.6-2.3c1.4,0.8,2.7,1.3,4,1.3s2.4-0.4,3.3-1.2c0.9,0.8,2,1.2,3.3,1.2
	s2.7-0.4,4-1.3c0.6,0.6,1.1,1.3,1.6,2.3C-54.6-180.8-54.3-179.5-54.3-178.2z"/>
<g id="XMLID_17_">
	<polygon id="XMLID_18_" class="st0" points="114.3,-100.3 104,-101.4 117.1,-116.3 116.3,-117.3 101.9,-102.6 95.5,-109 
		109,-122.8 107.8,-123.3 96.8,-112.2 92.5,-118.7 100.1,-127.5 102.6,-125.4 96.5,-118.4 97.3,-117.3 107.1,-127.1 114.6,-124 
		100,-109 101.9,-107.2 116.3,-122 121.5,-116.4 110.6,-104 113.2,-103.7 118.6,-108.4 120.8,-106 	"/>
</g>
<path id="XMLID_15_" class="st0" d="M162.9-107.2l12.5-25.3c0,0,11.5,2.5,9.2,11.2c-2.2-6.3-7.8-6-7.8-6L164.1-106L162.9-107.2z"/>
<path id="XMLID_13_" class="st0" d="M156.8-147.9c0,3.7-0.9,6.8-2.7,9.3c-1.8,2.4-4.1,4-7,4.7c-2.9-0.7-5.3-2.2-7-4.7
	c-1.8-2.5-2.7-5.6-2.7-9.3c0-1.3,0.3-2.6,0.9-3.9c0.4-1,1-1.7,1.6-2.3c1.4,0.8,2.7,1.3,4,1.3s2.4-0.4,3.3-1.2c0.9,0.8,2,1.2,3.3,1.2
	s2.7-0.4,4-1.3c0.6,0.6,1.1,1.3,1.6,2.3C156.5-150.5,156.8-149.2,156.8-147.9z"/>
<path id="XMLID_126_" class="st0" d="M-84.2-189.4l-11.2,2.6l-2.8,11.3l-2.6-11.2l-11.3-2.8l11.2-2.6l2.8-11.3l2.6,11.3L-84.2-189.4
	z M-98.9-189.5l-2-2l-8.6,2H-98.9z M-98.3-178.2v-10.6l-2,2L-98.3-178.2z M-96.1-192.1l-1.9-8.6v10.6L-96.1-192.1z M-86.8-189.4
	h-10.6l2,2L-86.8-189.4z"/>
<path id="XMLID_258_" class="st0" d="M-86.9,34.3l3.6,1.5c2.2,0.9,4,2.4,5.3,4.4c1.3,2,2,4.2,2,6.6c0,3.3-1.2,6.1-3.5,8.4
	c-2.3,2.3-5.1,3.5-8.4,3.5c-1.5,0-3-0.3-4.5-0.9l-3.6-1.5c-2.2-0.9-4-2.4-5.3-4.3s-2-4.2-2-6.6c0-3.3,1.2-6.1,3.5-8.4
	s5.1-3.5,8.4-3.5C-90,33.4-88.5,33.7-86.9,34.3z M-101.7,45.4c0,2.8,1,5.1,3,7.1s4.4,3,7.2,3c2.8,0,5.2-1,7.2-3s3-4.4,3-7.3
	c0-2.8-1-5.2-3-7.2s-4.3-3-7.1-3c-2.9,0-5.3,1-7.3,3S-101.7,42.5-101.7,45.4z"/>
<path id="XMLID_277_" class="st0" d="M-27.5-175.5l9.7-13.8l9.7,13.8l-9.7,13.8L-27.5-175.5z"/>
<path id="XMLID_281_" class="st0" d="M-17.3-221.3l-5.4-5.4l5.4-5.4l5.4,5.4L-17.3-221.3z M-14.7-234.6l5.4-5.4l5.4,5.4l-5.4,5.4
	L-14.7-234.6z M-3.9-218.7l-5.4,5.4l-5.4-5.4l5.4-5.4L-3.9-218.7z M-1.4-232.1l5.4,5.4l-5.4,5.4l-5.4-5.4L-1.4-232.1z"/>
<path id="XMLID_296_" class="st0" d="M-79.1-2.4L-80.5-1c-0.8,0.8-1.8,1.2-2.9,1.2s-2.1-0.4-2.9-1.2s-1.2-1.8-1.2-2.9
	s0.4-2.1,1.2-2.9c0.8-0.8,1.8-1.2,2.9-1.2s2.1,0.4,2.9,1.2l1.4,1.4l2.9-2.9l-1.4-1.4c-0.8-0.8-1.2-1.7-1.2-2.9s0.4-2.1,1.2-2.9
	c0.8-0.8,1.7-1.2,2.9-1.2c1.1,0,2.1,0.4,2.9,1.2s1.2,1.8,1.2,2.9s-0.4,2.1-1.2,2.9l-1.4,1.4l2.9,2.9l1.4-1.4C-68.1-7.6-67.1-8-66-8
	s2.1,0.4,2.9,1.2c0.7,0.9,1.1,1.8,1.1,3c0,1.1-0.4,2.1-1.2,2.9s-1.8,1.2-2.9,1.2s-2.1-0.4-2.9-1.2l-1.4-1.4l-2.9,2.9l1.4,1.4
	c0.8,0.8,1.2,1.8,1.2,2.9s-0.4,2.1-1.2,2.9C-72.7,8.6-73.7,9-74.8,9s-2.1-0.4-2.9-1.2s-1.2-1.8-1.2-2.9s0.4-2.1,1.2-2.9l1.4-1.4
	L-79.1-2.4z M-69-3.8l1.4,1.4c0.4,0.4,0.9,0.6,1.4,0.6c0.6,0,1.1-0.2,1.4-0.6c0.4-0.4,0.6-0.9,0.6-1.4c0-0.6-0.2-1.1-0.6-1.5
	c-0.4-0.4-0.9-0.6-1.4-0.6c-0.6,0-1,0.2-1.4,0.6L-69-3.8z M-74.8-9.6l1.4-1.4c0.4-0.4,0.6-0.9,0.6-1.4c0-0.6-0.2-1-0.6-1.4
	c-0.4-0.4-0.9-0.6-1.4-0.6c-0.6,0-1.1,0.2-1.4,0.6c-0.4,0.4-0.6,0.9-0.6,1.4c0,0.6,0.2,1,0.6,1.4L-74.8-9.6z M-77.7-3.8l2.9,2.9
	l2.9-2.9l-2.9-2.9L-77.7-3.8z M-74.8,2l-1.4,1.4c-0.4,0.4-0.6,0.9-0.6,1.4c0,0.6,0.2,1,0.6,1.4s0.9,0.6,1.4,0.6
	c0.6,0,1.1-0.2,1.4-0.6c0.4-0.4,0.6-0.9,0.6-1.4c0-0.6-0.2-1-0.6-1.4L-74.8,2z M-80.6-3.8L-82-5.3c-0.4-0.4-0.9-0.6-1.4-0.6
	c-0.6,0-1,0.2-1.4,0.6c-0.4,0.4-0.6,0.9-0.6,1.4c0,0.6,0.2,1.1,0.6,1.4c0.4,0.4,0.9,0.6,1.4,0.6c0.6,0,1-0.2,1.4-0.6L-80.6-3.8z"/>
<polygon id="XMLID_4_" class="st0" points="-157.5,-37.1 -151,-12.3 -149.7,-27.4 -147.8,-19.5 -146,-28.9 -144.4,-11.3 
	-140.9,-25.4 -139.5,-21.7 -137.5,-27 -135,-12.2 -129.1,-39.2 -134.3,-23 -137.5,-36.5 -139.5,-25 -141.5,-28 -143.7,-20.7 
	-145.1,-40.8 -148.1,-26.6 -150.2,-31.2 -151.7,-24.1 "/>
<polygon id="XMLID_26_" class="st0" points="-164.3,-179 -162.8,-191.4 -141,-203.4 -150.7,-179.9 "/>
<polygon class="st0" points="32.6,21 14.6,21 22.1,18.8 10.4,17.5 24.6,17.5 7.4,-3 26.9,10 25.4,-0.3 30.1,12.5 31.4,2.5 "/>
<path class="st0" d="M151.1-220.8c0-4-3.2-7.3-7.3-7.3s-7.3,3.2-7.3,7.3c0,2.7,1.5,5.1,3.7,6.3l-3.7,14.2h5.3h3.9h5.3l-3.7-14.2
	C149.6-215.8,151.1-218.1,151.1-220.8z"/>
<polygon class="st0" points="171.2,-208.8 168.2,-215.1 171.3,-217.5 172.5,-219.8 178.9,-216.4 182.5,-219.9 184.2,-225.2 
	186.7,-226.4 191,-222.2 184.8,-211.5 177.6,-204.2 167.3,-198.4 163.5,-198.8 161.6,-202.7 165.5,-204 169.2,-206.1 "/>
<g>
	<path class="st0" d="M207.3-219.7c-6.2,0-11.2,5-11.2,11.2s5,11.2,11.2,11.2s11.2-5,11.2-11.2S213.5-219.7,207.3-219.7z
		 M207.3-199.6c-4.9,0-8.9-4-8.9-8.9c0-4.9,4-8.9,8.9-8.9c4.9,0,8.9,4,8.9,8.9C216.2-203.5,212.2-199.6,207.3-199.6z"/>
	<path class="st0" d="M207.3-214.8c-3.5,0-6.4,2.9-6.4,6.4c0,3.5,2.9,6.4,6.4,6.4s6.4-2.9,6.4-6.4
		C213.7-212,210.9-214.8,207.3-214.8z M207.3-203.4c-2.8,0-5-2.3-5-5s2.3-5,5-5s5,2.3,5,5S210.1-203.4,207.3-203.4z"/>
	<path class="st0" d="M207.3-210.8c-1.3,0-2.4,1.1-2.4,2.4c0,1.3,1.1,2.4,2.4,2.4c1.3,0,2.4-1.1,2.4-2.4
		C209.7-209.7,208.6-210.8,207.3-210.8z M207.3-206.6c-1,0-1.9-0.8-1.9-1.9c0-1,0.8-1.9,1.9-1.9s1.9,0.8,1.9,1.9
		C209.2-207.4,208.3-206.6,207.3-206.6z"/>
	<polygon class="st0" points="207.3,-208.4 207.3,-211.9 210.8,-208.4 	"/>
	<line class="st1" x1="218.6" y1="-220.6" x2="208.9" y2="-210.1"/>
	
		<rect x="215.7" y="-221.8" transform="matrix(0.7071 -0.7071 0.7071 0.7071 219.9786 89.9394)" class="st0" width="5.7" height="2.4"/>
</g>
<path class="st0" d="M254.7-210.4c0-0.1,0-0.1,0-0.2c0-2.6,0-5.1,0-7.7c0-0.2,0-0.3,0-0.5c0-0.3-0.2-0.4-0.4-0.4
	c-0.1,0-0.2,0-0.4,0.1c-2.2,0.5-4.5,0.9-6.7,1.4c-1.6,0.3-3.2,0.7-4.7,1c-0.3,0.1-0.4,0.2-0.4,0.5c0,0.7,0,1.3,0,2
	c0,2.6,0,5.1,0,7.7c0,0.8,0,1.7,0,2.5c0,1.1-0.5,1.9-1.2,2.7c-1.1,1.2-2.4,1.8-4,2.1c-1.1,0.2-2.2,0.1-3.2-0.4
	c-1.1-0.6-1.7-1.5-1.7-2.8c0-0.6,0.3-1.2,0.6-1.8c1-1.6,2.6-2.4,4.4-2.8c0.6-0.1,1.2-0.1,1.8-0.1c0-0.1,0-0.1,0-0.2
	c0-1.8,0-3.6,0-5.4c0-2.4,0-4.8,0-7.2c0-0.5,0-1,0-1.5c0-0.3,0.1-0.5,0.4-0.5c1.9-0.4,3.8-0.8,5.7-1.2c2.4-0.5,4.9-1,7.3-1.5
	c1.6-0.3,3.3-0.7,4.9-1c0.1,0,0.2,0,0.3-0.1c0.3-0.1,0.6,0.1,0.6,0.5c0,1.5,0,3.1,0,4.6c0,0.7,0,1.5,0,2.2c0,2,0,3.9,0,5.9
	c0,1.8,0,3.5,0,5.3c0,0.8-0.3,1.6-0.8,2.2c-1,1.3-2.3,2.1-3.9,2.5c-1.1,0.3-2.2,0.2-3.3-0.2c-0.6-0.2-1.2-0.6-1.6-1.1
	c-0.7-0.9-0.7-1.9-0.3-2.9c0.4-1.1,1.2-1.9,2.1-2.5c1.3-0.8,2.7-1.2,4.2-1.1C254.5-210.4,254.6-210.4,254.7-210.4z"/>
<g>
	<path class="st0" d="M299.6-202.4c0,2.5,0,5,0,7.5c0,1.1-0.4,1.5-1.5,1.7c-0.3,0-0.6,0.1-0.8,0.1c-2,0-4.1,0-6.1,0
		c-0.1,0-0.2,0-0.3,0c-0.9,0-1.2-0.3-1.2-1.2c0-2.3,0-4.6,0-6.9c0-0.7,0-0.7-0.7-0.7c-2,0-4,0-6.1,0c-0.6,0-0.6,0-0.6,0.6
		c0,2.3,0,4.7,0,7c0,0.9-0.3,1.2-1.1,1.2c-2.3,0-4.5,0-6.8,0c-0.1,0-0.3,0-0.4,0c-1.2-0.2-1.5-0.6-1.5-1.8c0-5,0-10.1,0-15.1
		c0-0.4,0.2-0.7,0.5-1c1.1-1,2.1-2,3.2-2.9c1.7-1.6,3.4-3.1,5.1-4.7c1.3-1.2,2.7-2.4,4-3.7c0.8-0.7,0.7-0.7,1.5,0
		c1.9,1.8,3.9,3.5,5.8,5.3c1.6,1.5,3.2,3,4.8,4.4c0.6,0.5,1.2,1.1,1.8,1.6c0.3,0.2,0.4,0.5,0.4,0.8
		C299.6-207.6,299.6-205,299.6-202.4z"/>
	<path class="st0" d="M277.9-224.9c0.5-0.4,1-0.9,1.4-1.3c1.7-1.5,3.3-3.1,5-4.6c1.2-1.1,2.3-1.1,3.5,0c1.9,1.8,3.9,3.6,5.8,5.3
		c1.9,1.8,3.9,3.5,5.8,5.3c1.6,1.5,3.3,3,4.9,4.5c0.3,0.3,0.6,0.5,0.8,0.8c1.2,1.4,0.6,3.5-1.1,4c-0.9,0.3-1.7,0-2.4-0.6
		c-1.9-1.8-3.8-3.5-5.8-5.3c-2.1-1.9-4.3-3.9-6.4-5.8c-1-0.9-2.1-1.9-3.1-2.8c-0.3-0.3-0.5-0.3-0.7,0c-2.3,2.1-4.5,4.1-6.8,6.2
		c-1.2,1.1-2.3,2.2-3.5,3.2c-1.2,1.1-2.4,2.2-3.7,3.3c-0.5,0.4-0.9,0.9-1.4,1.3c-1,0.9-2.5,0.8-3.5-0.2c-0.9-1-0.8-2.6,0.2-3.5
		c1.4-1.2,2.7-2.5,4.1-3.8c0.6-0.6,1.3-1.2,1.9-1.7c0.3-0.3,0.4-0.6,0.4-1c0-2.6,0-5.3,0-7.9c0-1.3,0.2-1.5,1.5-1.5c0.5,0,1,0,1.5,0
		c0.8,0,1.1,0.4,1.1,1.1c0,1.5,0,3,0,4.5c0,0.2,0,0.3,0,0.5C277.8-225,277.8-225,277.9-224.9z"/>
</g>
<g>
	<path class="st0" d="M341.2-210.9c-0.7-0.2-1.3-0.4-1.9-0.7c-4.7-2.7-9.4-5.4-14.1-8.1c-1.3-0.8-1.3-1.5,0-2.3
		c4.7-2.7,9.4-5.4,14.1-8.2c1.2-0.7,2.5-0.7,3.7,0c4.7,2.7,9.4,5.4,14.1,8.2c1.4,0.8,1.3,1.5,0,2.3c-4.6,2.7-9.3,5.4-13.9,8
		C342.6-211.4,341.8-211.2,341.2-210.9z M341.2-219c0.8-0.3,1.7-0.5,2.4-0.9c0.8-0.5,0.8-1.5,0-2.1c-1.2-1-3.7-1-4.9,0
		c-0.8,0.7-0.8,1.6,0.1,2.2C339.5-219.4,340.3-219.3,341.2-219z"/>
	<path class="st0" d="M359.4-209.5c0,2.4,0,4.8,0,7.2c0,1.4-0.6,2.5-1.8,3.2c-4.5,2.6-9.1,5.3-13.6,7.9c-1.2,0.7-1.9,0.3-1.9-1.1
		c0-4.8,0-9.7,0-14.5c0-1.5,0.6-2.6,1.9-3.3c4.5-2.6,9-5.2,13.4-7.8c1.5-0.9,2-0.5,2,1.2C359.4-214.3,359.4-211.9,359.4-209.5z
		 M358.2-203.1c-0.1-0.2-0.2-0.9-0.6-1.1c-0.4-0.2-1.1-0.2-1.5,0.1c-1.3,0.8-2.1,2-2.2,3.5c-0.1,1.3,0.8,1.9,2,1.3
		C357.3-200.1,358-201.3,358.2-203.1z M347.5-208.7c-0.1-0.3-0.2-1-0.6-1.1c-0.4-0.2-1.2-0.1-1.6,0.2c-1.3,0.8-2,2-2,3.5
		c0,1.3,0.9,1.8,2,1.2C346.6-205.7,347.3-206.9,347.5-208.7z"/>
	<path class="st0" d="M323-209.5c0-2.4,0-4.9,0-7.3c0-1.6,0.6-1.9,1.9-1.2c4.6,2.6,9.1,5.2,13.6,7.9c1.2,0.7,1.8,1.8,1.8,3.2
		c0,4.8,0,9.7,0,14.5c0,1.5-0.7,1.9-1.9,1.2c-4.6-2.6-9.2-5.3-13.7-7.9c-1.2-0.7-1.8-1.8-1.8-3.2C323-204.7,323-207.1,323-209.5z
		 M328.4-212.4c0-1.4-1.2-3.1-2.4-3.7c-1-0.5-1.8,0-1.9,1.1c-0.1,1.4,1,3.2,2.3,3.8C327.6-210.5,328.4-211.1,328.4-212.4z
		 M333.8-203.5c-0.2-1.5-0.9-2.8-2.3-3.6c-1.1-0.6-1.9,0-2,1.2c0,1.4,1.2,3.2,2.4,3.7C333-201.7,333.8-202.2,333.8-203.5z
		 M334.9-196.8c0,1.4,1.2,3.2,2.4,3.7c1,0.4,1.7-0.1,1.8-1.1c0.1-1.4-1-3.3-2.3-3.9C335.7-198.6,334.9-198.1,334.9-196.8z"/>
</g>
<g>
	<path class="st0" d="M415.3-221.2c0,0.1-0.1,0.2-0.1,0.3c-0.1,0.5-0.3,1.1-0.7,1.5c-0.6,0.7-1.3,1.3-1.9,2c-3.5-3.5-7-7-10.6-10.6
		c0,0,0,0,0,0c0.6-0.6,1.2-1.3,1.8-1.8c1.4-1.2,3.5-1.2,4.8,0.1c0.9,0.8,1.7,1.7,2.6,2.6c0.9,0.9,1.8,1.8,2.7,2.7
		c0.7,0.6,1.1,1.4,1.2,2.3c0,0,0,0.1,0,0.1C415.3-221.7,415.3-221.4,415.3-221.2z"/>
	<path class="st0" d="M396.1-222.3c0.7,0.7,1.4,1.4,2.1,2.1c-0.2,0.2-0.4,0.4-0.6,0.6c-5.5,5.5-11,11-16.5,16.5
		c-0.1,0.1-0.2,0.3-0.3,0.5c-0.7,2.3-1.4,4.6-2,6.9c0,0.1,0,0.2,0.1,0.3c0.4,0.4,0.8,0.8,1.2,1.2c0.1,0.1,0.2,0.1,0.3,0.1
		c2.2-0.7,4.4-1.3,6.6-2c0.1,0,0.3-0.1,0.4-0.2c5.7-5.7,11.4-11.4,17.1-17.1c0.1-0.1,0.1-0.1,0.1-0.2c0.8,0.8,1.6,1.6,2.4,2.4
		c-0.1,0-0.1,0.1-0.2,0.1c-5.8,5.7-11.5,11.4-17.3,17.1c-0.4,0.4-0.7,0.6-1.2,0.7c-4,1.2-8.1,2.4-12.1,3.5c-1.1,0.3-2.1-0.4-2.1-1.5
		c0-0.1,0-0.3,0.1-0.4c1.2-4.1,2.4-8.3,3.7-12.4c0.1-0.3,0.2-0.5,0.4-0.7c3.8-3.7,7.5-7.5,11.3-11.2c2.1-2.1,4.2-4.1,6.2-6.2
		C396.1-222.2,396.1-222.3,396.1-222.3z"/>
	<path class="st0" d="M385.4-198.1c-0.1-0.7-0.2-1.4-0.3-2.1c0-0.2-0.1-0.2-0.3-0.3c-0.7-0.1-1.4-0.3-2.1-0.5c-0.1,0-0.1,0-0.2,0
		c5.8-5.8,11.6-11.7,17.4-17.5c0.9,0.9,1.9,1.9,2.8,2.8C397-209.7,391.2-203.9,385.4-198.1z"/>
	<path class="st0" d="M397.8-224.1c0.8-0.7,1.6-1.5,2.4-2.3c3.7,3.7,7.3,7.3,11,11c-0.8,0.7-1.6,1.5-2.4,2.3
		C405.1-216.8,401.5-220.4,397.8-224.1z"/>
</g>
<path class="st0" d="M432.2-200.6c-5.4,0.5-8.8-2.3-9-7.3c-0.1-5.5,2.9-8.3,9-8.1c-1.7-2.3-2.7-4.7-1.6-7.5c0.8-2.1,2.3-3.6,4.3-4.5
	c4.4-2.1,7.9-0.7,10.6,4.3c1.1-2.6,2.6-4.6,5.3-5.1c2.3-0.4,4.5,0.1,6.4,1.4c3.9,2.7,4.5,6.5,1.6,11.3c2.6-0.3,5.1-0.1,6.9,2
	c1.5,1.7,2.1,3.8,2,6.1c-0.2,4.9-3,7.2-8.9,7.3c2.9,5.4,2.1,9.2-2.4,11.7c-4.3,2.5-7.9,1.2-11.1-3.9c-3.1,5.2-6.8,6.4-11.3,3.8
	C430-191.5,429.2-195.5,432.2-200.6z M445.5-200.2c4.4,0,8.1-3.7,8.1-8.1c0-4.5-3.7-8.1-8.1-8.1c-4.5,0-8.1,3.7-8.1,8.3
	C437.5-203.8,441.2-200.2,445.5-200.2z"/>
<path class="st0" d="M497.1-227.8c0.5,0.7,1,1.4,1.5,2.1c2.7,3.8,5.2,7.6,7.4,11.7c1.5,2.8,2.9,5.7,3.8,8.7c0.5,1.6,0.9,3.3,1.1,5
	c0.2,2.7-0.3,5.3-1.6,7.7c-2.2,3.9-5.5,6.4-10,7.1c-7.2,1.2-14.2-3.5-15.8-10.6c-0.5-2.3-0.4-4.6,0.1-6.9c0.6-2.7,1.6-5.2,2.8-7.7
	c1.9-4.1,4.3-8,6.8-11.7c1.2-1.7,2.4-3.4,3.6-5.1C496.9-227.6,497-227.7,497.1-227.8z M504.4-210.7
	C504.4-210.7,504.4-210.7,504.4-210.7c0,0.6,0.1,1.2,0.1,1.8c0.2,2.5,0.1,4.9-0.5,7.3c-0.6,2.7-1.8,5.2-3.3,7.6
	c-0.6,0.9-1.2,1.8-1.8,2.7c-0.2,0.3-0.3,0.7-0.4,1c-0.1,0.2,0,0.5,0.2,0.6c0.2,0.1,0.4,0.3,0.7,0.4c1.4,0.5,2.7,0.3,4-0.4
	c1.6-0.9,2.7-2.2,3.4-3.8c1.3-2.6,1.5-5.4,1.1-8.2c-0.3-2.3-1.1-4.4-2.1-6.4C505.4-209.1,504.9-209.9,504.4-210.7z"/>
<path class="st0" d="M543.7-223.3c0.9,0.4,1.7,0.8,2.4,1.4c1.3,1,2.4,2.2,3.3,3.6c1.2,1.8,2,3.8,2.5,5.8c0,0,0,0,0,0.1
	c0.3-0.2,0.5-0.6,0.7-0.9c0.4-0.8,0.5-1.7,0.4-2.7c-0.1-0.6-0.2-1.1-0.3-1.7c0.2,0.1,0.3,0.3,0.5,0.4c1.5,1.5,2.8,3.3,3.8,5.2
	c0.7,1.2,1.2,2.5,1.5,3.9c0.3,1.1,0.4,2.2,0.4,3.3c0,1.5-0.4,3-1,4.4c-0.6,1.3-1.5,2.5-2.5,3.5c-0.8,0.8-1.7,1.6-2.7,2.2
	c-0.6,0.4-1.2,0.8-1.8,1.2c0,0-0.1,0-0.2,0.1c1.5-3.1,1.7-6.3,0.8-9.5c-0.8-3.2-2.6-5.9-5.3-7.9c0.2,3.1-0.5,5.8-2.4,8.2
	c0.2-1.5,0-2.9-0.8-4.3c-0.1,0.5-0.2,0.9-0.4,1.3c-0.4,1.3-1.1,2.5-1.8,3.7c-0.7,1-1.3,2.1-1.5,3.4c-0.1,0.9-0.1,1.7,0,2.5
	c0.2,0.8,0.4,1.6,0.8,2.4c0,0.1,0.1,0.1,0.1,0.2c0,0,0,0,0,0.1c-0.5-0.3-0.9-0.5-1.3-0.8c-0.8-0.6-1.6-1.1-2.4-1.8
	c-1.1-0.9-2-1.9-2.6-3.1c-0.7-1.4-0.9-2.9-0.8-4.4c0.1-1.5,0.6-3,1.3-4.4c0.6-1.3,1.2-2.5,1.8-3.8c0.4-0.8,0.6-1.7,0.7-2.6
	c0,0,0-0.1,0-0.2c0.9,1.5,1.1,3.1,1.2,4.8c0,0,0,0,0.1,0c0.2-0.2,0.3-0.4,0.5-0.6c1-1.3,2-2.7,2.8-4.1c0.8-1.4,1.5-2.8,1.9-4.3
	c0.3-1.1,0.5-2.3,0.5-3.4C543.7-222.6,543.7-223,543.7-223.3C543.7-223.3,543.7-223.3,543.7-223.3z"/>
<path class="st0" d="M579.8-213.7c-1.5-4.3,0.5-7.6,5.2-8.3c0.3-3.8,3.2-5.9,6.2-5.8c2.9,0.1,4.9,2.1,5.6,5.8c2,0.2,3.8,1,4.9,2.8
	c1.1,1.8,1.2,3.7,0.3,5.7c0.2,0.2,0.5,0.3,0.7,0.5c3.1,1.9,4.5,5.3,3.5,8.8c-0.9,3.3-3.9,5.6-7.5,5.7c-1.8,0-3.6,0-5.6,0
	c0.3,1.7,0.5,3.3,0.8,4.9c0.3,1.6,0.5,3.1,0.8,4.8c-2.6,0-5.1,0-7.7,0c0.5-3.2,1.1-6.4,1.6-9.7c-2,0-3.8,0-5.7,0
	c-3.1-0.1-5.4-1.5-6.8-4.3c-1.3-2.7-1.2-5.5,0.7-7.9C577.7-212,578.8-212.7,579.8-213.7z"/>
<path class="st0" d="M617.8-199.3c2.7-2.5,5.4-4.9,8.1-7.4c-1.5-0.8-3-1.7-4.5-2.5c0.4-0.4,0.8-0.8,1.2-1.2c3.2-3.1,6.4-6.3,9.6-9.4
	c0.3-0.3,0.6-0.4,1-0.1c2.3,1.3,4.6,2.6,7,3.9c-2.9,2.4-5.7,4.8-8.6,7.2c1.5,0.8,2.9,1.6,4.4,2.4c-3.3,2.5-6.5,4.9-9.8,7.4
	c1.6,0.9,3,1.7,4.6,2.6c-6.3,3.4-12.5,6.7-18.7,10c0,0,0,0-0.1-0.1c3.4-3.4,6.8-6.8,10.2-10.3C620.7-197.7,619.3-198.5,617.8-199.3z
	"/>
<path class="st0" d="M663-223.4c0.2,0.1,0.4,0.2,0.5,0.3c4.3,0.6,7.5,2.8,9.9,6.2c1,1.4,1.6,3,2,4.7c0.5,1.9,0.5,3.8,0.2,5.7
	c-0.4,2.3-1.3,4.3-2.7,6.2c-1.3,1.7-2.9,3.1-4.8,4.1c-1.2,0.7-2.6,1.1-3.9,1.4c-1.4,0.3-2.9,0.3-4.3,0.2c-1.1-0.1-2.3-0.5-3.4-0.8
	c-2.1-0.6-3.8-1.8-5.3-3.3c-1.4-1.4-2.5-3.1-3.2-5c-1-2.5-1.2-5.1-0.8-7.6c0.4-2.5,1.5-4.7,3.1-6.7c1.4-1.7,3.2-3.1,5.2-4
	c1.1-0.5,2.3-0.9,3.5-1c0.3,0,0.5-0.2,0.8-0.3C660.9-223.4,662-223.4,663-223.4z M659.7-208.5c0.7,0,0.8-0.1,0.6-0.6
	c-0.2-0.7-0.5-1.4-0.8-2.1c-0.2-0.6-0.4-1.1,0.1-1.7c0.5-0.6,0.9-1.3,1.3-2c0.1-0.2,0.1-0.4,0.2-0.6c-0.2-0.1-0.4-0.2-0.7-0.2
	c-0.8,0-1.6,0-2.4,0.1c-0.6,0.1-1-0.1-1.4-0.6c-0.5-0.7-1-1.3-1.5-1.9c-0.3-0.4-0.7-0.3-0.9,0.2c-0.2,0.8-0.5,1.7-0.6,2.5
	c-0.1,0.5-0.4,0.7-0.8,0.9c-0.8,0.3-1.6,0.6-2.3,0.9c-0.2,0.1-0.5,0.3-0.5,0.4c0,0.2,0.2,0.4,0.4,0.5c0.7,0.5,1.4,1,2.2,1.4
	c0.4,0.2,0.5,0.5,0.5,0.9c0,0.9,0,1.7,0,2.6c0,0.2,0.2,0.5,0.3,0.6c0,0,0.4-0.1,0.5-0.2c0.8-0.6,1.5-1.2,2.3-1.8
	c0.1-0.1,0.4-0.2,0.5-0.1c0.5,0.1,0.9,0.3,1.4,0.4C658.8-208.7,659.3-208.6,659.7-208.5z"/>
<path class="st0" d="M659-185.4c-0.2-0.1-0.4-0.2-0.6-0.2c-1-0.1-2-0.2-3-0.4c-1.3-0.2-2.5-0.5-3.7-1.2c-0.9-0.6-1-1.2-0.6-2.4
	c0.3-0.9,0.5-1.8,0.8-2.7c0.2-0.6,0.4-1.2,0.5-1.8c0.1-0.3,0.3-0.3,0.5-0.2c1.4,0.8,2.8,1.4,4.4,1.8c1.8,0.5,3.6,0.7,5.4,0.5
	c1.3-0.1,2.6-0.4,3.8-0.8c1.1-0.4,2.2-0.9,3.3-1.4c0.3-0.1,0.4-0.1,0.5,0.2c0.3,0.9,0.6,1.8,0.8,2.8c0.2,0.9,0.5,1.7,0.7,2.6
	c0.1,0.2,0,0.6-0.1,0.8c-0.5,0.8-1.3,1.1-2.1,1.4c-1.7,0.6-3.4,0.9-5.1,1c-0.2,0-0.5,0.2-0.7,0.2C662.3-185.4,660.6-185.4,659-185.4
	z"/>
<g>
	<path class="st0" d="M718.3-213.2c0.3,0.7,0.8,1.4,1,2.2c0.8,2.6,1,5.2,0.7,7.9c-0.1,1-0.6,1.7-1.4,2.4c-0.3-0.7-0.5-1.3-0.8-2
		c-0.4,0.5-0.8,0.9-1.3,1.4c-0.3-0.8-0.5-1.4-0.8-2.1c-0.4,0.5-0.7,1-1.1,1.5c-0.4-0.7-0.7-1.4-1-2c-0.6,0.4-1.1,0.7-1.6,1.1
		c-0.2-0.9-0.9-1.1-1.6-1.3c-1.6-0.3-3.2-0.1-4.7,0.7c1,1.8,2.5,2.4,4.5,1.5c0.1,0.7,0.2,1.3,0.3,2c0.6-0.2,1.2-0.4,1.9-0.6
		c0,0.6-0.1,1.1-0.2,1.8c0.7-0.2,1.3-0.5,2-0.7c0.1,0.5,0.2,1.1,0.3,1.8c0.6-0.1,1.3-0.3,1.9-0.4c0.2,1.6-0.6,2.8-2,3.5
		c-0.2,1.3-0.4,2.6-0.6,3.8c-0.1,0-0.1,0-0.2,0c-0.4-0.9-0.7-1.9-1.1-2.8c-0.5-1.1-1.2-2-2.4-2.6c-2.2-1.2-4.1-2.9-5.9-4.9
		c-1,2.1-3,3.1-4.9,4.5c0.6-2,1.6-3.8,1-5.8c-1.8,0.5-3.5,1.1-5.3,1.5c-1.8,0.5-3.7,0.6-5.5,0.5c2.7-1.5,5.7-2.4,7.7-4.9
		c-2.8,0.7-5.5,0.8-8.3-0.2c2.4-0.3,4.5-1.1,6.5-2.6c-2.5-1-5-2-6.7-4.3c2.3,0.6,4.7,1.1,7,1.6c0-0.1,0.1-0.1,0.1-0.2
		c-2.9-2.5-5.2-5.5-6.5-9.2c1.4,1,2.8,1.9,4.1,2.8c2.5,1.6,5.2,2.8,8,3.6c0.5,0.1,1.1,0.2,1.5,0c2.2-1,4.1-0.5,5.9,1
		c1.8,1.5,3.7,2.8,5.5,4.2c1.2,0.9,1.7,0.8,2.5-0.5c0.7-1.1,1-2.3,1.1-3.5c0-0.2,0-0.3,0-0.5C718.2-213.2,718.3-213.2,718.3-213.2z
		 M710.8-208.4c-1.3-1.2-2.5-2.3-3.8-3.5c-0.3,0.3-0.6,0.6-0.9,1c-0.3,0.5-0.3,0.9,0.2,1.2C707.6-208.7,709.2-208.4,710.8-208.4z"/>
	<path class="st0" d="M702.9-197.9c1.6,3.6,4.2,6.2,7.7,8.2c-0.3,0-0.5,0.1-0.7,0.1c-1,0-2-0.1-3,0c-1.3,0.2-2.3-0.3-3.2-1.2
		c-1.3-1.3-2.6-2.6-3.3-4.5c-0.2-0.5-0.1-0.8,0.3-1.1C701.5-196.7,702.2-197.3,702.9-197.9z"/>
	<path class="st0" d="M694.9-199.6c-1.8,3.1-2.5,6.4-1.4,10c-0.4,0-0.8,0-1.1,0c-1.5,0-1.5,0-1.5-1.5c0-2.8,1.1-5.2,2.6-7.4
		c0.2-0.3,0.4-0.6,0.6-0.8c0.2-0.2,0.5-0.3,0.7-0.4C694.8-199.7,694.8-199.7,694.9-199.6z"/>
	<path class="st0" d="M694.2-195c1.7,0.8,3.4,0.8,5.1,0.4c0.4,0.7,0.7,1.4,1.1,2.1c-2.1,0.6-4.1,0.6-6.1-0.2
		c-0.1-0.1-0.3-0.3-0.3-0.4C694.1-193.7,694.2-194.4,694.2-195z"/>
	<path class="st0" d="M694.2-191.5c2.3,0.8,4.6,0.7,6.8,0.1c0.2,0,0.4,0.1,0.6,0.2c0.5,0.5,1,1,1.6,1.6c-0.2,0-0.4,0.1-0.5,0.1
		c-2.4,0-4.7,0-7.1,0c-0.7,0-1-0.2-1.1-0.8C694.4-190.7,694.3-191.1,694.2-191.5z"/>
	<path class="st0" d="M705.2-215.8c-1,0.2-2,0.4-3.1,0.6c-1.3-1.4-2.4-3.1-2.1-5.4C701.3-218.5,703-216.9,705.2-215.8z"/>
	<path class="st0" d="M695.4-198.2c1.1,0.2,2,0.3,3,0.5c-0.3,0.6-0.5,1.3-0.8,1.9c-0.1,0.1-0.3,0.2-0.5,0.2
		c-0.8-0.1-1.7-0.2-2.7-0.4C694.9-196.9,695.2-197.6,695.4-198.2z"/>
	<path class="st0" d="M699.4-201.1c0,2.1-1.1,2.6-3.3,1.6C696.9-200.6,698.3-200.3,699.4-201.1z"/>
</g>
<g>
	<path class="st0" d="M739.6-191.5c-0.2-1.5-0.5-2.8-0.7-4.2c-0.1-0.6-0.3-1.1-1-1.2c-0.5-0.1-1.1-0.3-1.6-0.6
		c-0.8-0.6-1.5-0.4-2.2,0.2c-1,0.8-2,1.5-3,2.1c-1-1-2-2-3.1-3.1c0.8-1.1,1.6-2.3,2.5-3.4c0.3-0.5,0.4-0.8,0.1-1.3
		c-0.4-0.7-0.6-1.6-1-2.3c-0.1-0.2-0.4-0.5-0.7-0.6c-1.3-0.3-2.6-0.5-3.9-0.7c-0.2-0.1-0.6-0.4-0.6-0.6c-0.1-1.2,0-2.5,0-3.8
		c1.3-0.2,2.6-0.5,4-0.7c0.8-0.1,1.4-0.3,1.5-1.2c0.1-0.5,0.3-1,0.5-1.3c0.6-0.9,0.5-1.5-0.2-2.3c-0.7-0.8-1.2-1.8-1.9-2.6
		c-0.3-0.4-0.3-0.6,0.1-0.9c0.9-0.8,1.7-1.7,2.6-2.7c1.5,1,2.9,2.1,4.2,3c1-0.4,2-0.8,2.9-1.1c0.6-0.2,0.7-0.5,0.8-1
		c0.2-1.2,0.4-2.5,0.5-3.7c0-0.2,0.1-0.4,0.2-0.7c1.2,0,2.5,0,3.7,0c0.5,0,0.6,0.3,0.7,0.7c0.2,1.3,0.4,2.6,0.7,3.9
		c0.1,0.3,0.3,0.6,0.6,0.7c0.9,0.4,1.7,0.8,2.6,1.1c0.3,0.1,0.7,0,0.9-0.1c1.3-0.9,2.5-1.8,3.6-2.6c1,1,2,2,3.1,3.1
		c-0.8,1.1-1.6,2.3-2.5,3.5c-0.3,0.5-0.4,0.8-0.1,1.4c0.4,0.7,0.7,1.4,0.9,2.2c0.1,0.4,0.4,0.6,0.8,0.7c1.5,0.2,3,0.5,4.5,0.8
		c0,1.3,0,2.6,0,3.9c0,0.2-0.4,0.4-0.6,0.5c-1.3,0.3-2.6,0.5-3.8,0.7c-0.5,0.1-0.7,0.3-0.8,0.8c-0.2,0.7-0.5,1.4-0.8,2
		c-0.4,0.6-0.3,1.1,0.2,1.6c0.9,1.1,1.6,2.2,2.4,3.3c-1,1-2,2-3.1,3.1c-1.1-0.8-2.4-1.6-3.6-2.5c-0.4-0.3-0.7-0.3-1.1-0.1
		c-0.8,0.4-1.6,0.6-2.3,1c-0.3,0.2-0.6,0.5-0.7,0.8c-0.3,1.3-0.5,2.6-0.7,3.8c-0.1,0.5-0.3,0.7-0.8,0.7
		C742.1-191.6,740.9-191.5,739.6-191.5z M741.8-218.4c-5.3,0-9.6,4.2-9.6,9.5c0,5.2,4.2,9.5,9.5,9.6c5.2,0,9.5-4.3,9.5-9.5
		C751.3-214.1,747-218.4,741.8-218.4z"/>
	<path class="st0" d="M734.7-209c0-3.9,3.2-7.1,7.2-7.1c3.9,0,7.1,3.2,7.1,7.1c0,3.9-3.3,7.2-7.2,7.2
		C737.8-201.8,734.6-205,734.7-209z M738.7-208.9c0,1.7,1.4,3,3,3c1.7,0,3.1-1.4,3-3.1c0-1.6-1.4-3-3.1-3
		C740-212,738.7-210.6,738.7-208.9z"/>
</g>
<path class="st0" d="M789.1-225.6c7.8,0.1,14.5,5.6,16,13.2c0.6,3.1,0.2,6.2-0.9,9.2c-1.3,3.6-3.4,6.9-5.8,9.9
	c-2.1,2.6-4.4,4.9-7,6.9c-0.6,0.4-1.2,0.9-2,1c-0.7,0.1-1.3-0.1-1.9-0.5c-1.9-1.2-3.6-2.7-5.1-4.3c-3.1-3.2-5.7-6.9-7.6-11
	c-0.9-2-1.6-4.1-1.9-6.3c-0.4-3.1,0.1-6.1,1.5-8.9c2.5-5,6.6-8,12.1-9C787.4-225.5,788.3-225.6,789.1-225.6z M787.9-195.9
	c-0.1-1-0.1-1.9-0.2-2.9c-0.5-4.1-2.7-6.9-6.4-8.6c-1.7-0.8-3.6-1.3-5.4-1.6c-0.7-0.1-1.4-0.2-2.2-0.3c0.1,0.7,0.2,1.3,0.3,2
	c0.4,2.1,1,4.2,2.1,6.1C778.8-196.5,783.4-195.4,787.9-195.9z M790.6-196c0.2,0,0.3,0.1,0.5,0.1c1.4,0.1,2.7,0.1,4.1-0.2
	c3.2-0.6,5.5-2.4,7.1-5.2c1.2-2,1.8-4.2,2.2-6.5c0.1-0.5,0.2-1.1,0.3-1.7c-0.2,0-0.4,0.1-0.6,0.1c-2,0.2-4,0.6-5.8,1.3
	c-2,0.7-3.8,1.8-5.2,3.4c-1.4,1.6-2.2,3.6-2.4,5.7C790.7-197.9,790.6-196.9,790.6-196z"/>
<g>
	<path class="st0" d="M814.3-223.9c2.4,0.7,4.6,1.4,6.8,2.1c0.4,0.1,0.7,0.5,1.1,0.8c5.7,5.7,11.4,11.4,17.1,17.1
		c0.3,0.3,0.5,0.7,0.8,1.2c1.1-1.2,1.9-2.1,2.8-3c0.9,0.9,1.6,1.7,2.5,2.7c-1.3,1.2-2.6,2.4-4,3.7c2.2,2.1,4.2,4.1,6.2,6
		c-0.9,0.9-1.6,1.6-2.3,2.4c-2-2-3.9-4-5.9-5.9c-1.4,1.5-2.8,2.8-4.1,4.2c-0.9-1-1.7-1.8-2.6-2.8c0.7-0.6,1.6-1.3,2.6-2.1
		c-0.5-0.5-0.7-0.8-1-1.1c-5.7-5.7-11.4-11.4-17.1-17.1c-0.4-0.4-0.8-1-0.9-1.6C815.4-219.5,814.9-221.6,814.3-223.9z"/>
	<path class="st0" d="M838-208c-1.8-1.8-3.4-3.4-5.2-5.2c2.7-2.6,5.4-5.4,8.1-8.1c0.1-0.1,0.3-0.2,0.5-0.3c2.2-0.7,4.4-1.3,6.8-2.1
		c-0.7,2.5-1.3,4.8-1.9,7.1c0,0.2-0.2,0.3-0.3,0.5C843.3-213.3,840.6-210.6,838-208z"/>
	<path class="st0" d="M821.3-198.9c-1.5-1.4-2.8-2.7-4.2-4c0.9-0.8,1.8-1.5,2.7-2.3c0.7,0.7,1.5,1.6,2.5,2.7c1-1,1.8-1.9,2.5-2.8
		c1.8,1.8,3.4,3.4,5.2,5.2c-0.8,0.8-1.7,1.6-2.6,2.5c1,0.9,1.9,1.7,2.8,2.5c-1,0.9-1.8,1.7-2.7,2.6c-1.3-1.4-2.6-2.7-3.9-4.1
		c-2.1,2.1-4,4.1-6,6.1c-0.8-0.9-1.5-1.7-2.2-2.6C817.2-194.8,819.2-196.8,821.3-198.9z"/>
</g>
<g>
	<path class="st0" d="M869.3-197.8c-2.2-1.2-3.4-3.2-4.2-5.6c-0.1,1.2-0.2,2.3-0.4,3.6c-1.5-0.9-2-2.1-2.1-3.6
		c-0.2-2.5,0.4-5,1.2-7.4c0.2-0.5,0.3-1,0.3-1.5c0.2-3.2,1.6-4.7,4.7-5.5c11.7-2.8,21.9-8.3,30.8-16.4c0.1-0.1,0.2-0.3,0.4-0.5
		c0.1,0,0.1,0,0.2,0.1c1.1,3.2,0.3,5.9-2,8.1c-1.5,1.4-3.1,2.7-4.9,3.8c-4.3,2.7-9,4.4-13.8,6c-0.3,0.1-0.7,0.2-1,0.3
		c7.9-0.8,15.3-3.4,22.6-6.8c-0.3,3.3-2.1,5.5-4.7,7c-3,1.7-6.3,2.5-9.7,2.9c-2.9,0.4-5.7,0.5-8.9,0.8c6.8,0.9,13.3,0.5,19.8-0.8
		c-0.5,2.4-2,3.8-4.1,4.6c-2.3,0.9-4.8,1.1-7.3,1c-1.4,0-2.9-0.1-4.3-0.3c-1.4-0.1-2.8-0.4-4.3-0.5c0,0.1,0,0.2-0.1,0.4
		c4.7,1,9.5,2,14.2,3c-1.3,1.7-3.2,2.6-5.3,2.3c-2.3-0.3-4.5-0.8-6.7-1.3c-1.2-0.3-2.4-0.8-3.6-1.2c-0.1,0.1-0.1,0.2-0.2,0.3
		c2.9,1.7,5.9,3.5,8.8,5.2c-1.3,0.9-2.6,1.2-4.1,0.9c-2.7-0.5-4.8-2-6.9-3.5c-0.5-0.4-0.9-0.7-1.4-1.1c0,0.1-0.1,0.1-0.1,0.2
		c1.5,1.9,3,3.9,4.6,5.9c-4.5,0.1-6.8-2.5-8.3-6.2c-0.1,0.1-0.2,0.1-0.2,0.2c0.4,1.8,0.8,3.6,1.2,5.4
		C869.6-197.7,869.5-197.7,869.3-197.8z"/>
</g>
<g>
	<path class="st0" d="M948.8-195.3c-0.9-0.1-1.7-0.2-2.6-0.3c-0.9-0.1-1.7-0.1-2.6-0.2c-0.3,0-0.6-0.2-0.7-0.4c-2-2-4-4-6-6
		c-0.2-0.2-0.3-0.4-0.1-0.7c0.2-0.2,0.3-0.5,0.4-0.7c0.2-0.5,0.5-0.9,0.9-1.2c1.1-1.1,1.9-2.4,2.4-3.8c0-0.1,0.1-0.2,0.2-0.4
		c0.1,0.1,0.3,0.2,0.4,0.3c2.4,2.4,4.8,4.8,7.2,7.2c0.3,0.3,0.4,0.6,0.4,1c0.1,1.6,0.3,3.2,0.4,4.7c0,0.1,0,0.2,0.1,0.3
		c0,0.1,0,0.2,0,0.3C949-195.3,948.9-195.3,948.8-195.3z"/>
	<path class="st0" d="M913.6-195.7c0.1-0.8,0.2-1.7,0.3-2.5c0.1-0.9,0.1-1.7,0.2-2.6c0-0.2,0.1-0.5,0.3-0.6c2.4-2.4,4.9-4.9,7.3-7.3
		c0.1-0.1,0.1-0.1,0.3-0.2c0.1,0.2,0.1,0.4,0.1,0.5c0.3,1.3,0.7,2.5,1.7,3.5c0.3,0.3,0.7,0.7,1.1,0.9c0.4,0.2,0.7,0.5,0.9,0.9
		c0.4,0.7,0.5,0.5-0.1,1.1c-1.9,1.9-3.8,3.8-5.7,5.7c-0.3,0.3-0.7,0.5-1.2,0.5c-1.6,0.1-3.1,0.3-4.7,0.4c-0.1,0-0.2,0-0.2,0.1
		c-0.1,0-0.2,0-0.3,0C913.6-195.4,913.6-195.6,913.6-195.7z"/>
	<path class="st0" d="M949.1-229.1c-0.1,0.5-0.4,0.8-0.8,1.2c-2.1,2.1-4.1,4.2-6.2,6.3c-0.3,0.3-0.3,0.4,0,0.7
		c0.7,0.7,1.5,1.4,2.2,2.2c0.2,0.2,0.3,0.5,0.4,0.8c0.1,0.5-0.2,0.8-0.6,1c-0.4,0.2-0.8,0.1-1.2-0.2c-0.3-0.2-0.5-0.5-0.8-0.8
		c-0.3-0.3-0.4-0.3-0.7,0c-0.3,0.3-0.7,0.7-1,1c-0.2,0.2-0.3,0.2-0.5,0c-1.3-2.1-3.2-3.3-5.6-4c-0.1,0-0.2-0.1-0.4-0.1
		c0.1-0.1,0.2-0.3,0.3-0.4c0.6-0.6,1.2-1.2,1.8-1.8c0.2-0.2,0.2-0.4,0-0.6c-0.2-0.2-0.5-0.5-0.7-0.7c-0.5-0.5-0.5-1.2-0.1-1.6
		c0.4-0.4,1.1-0.4,1.6,0.1c0.7,0.7,1.4,1.4,2.2,2.2c0.3,0.3,0.4,0.3,0.7,0c2.1-2.1,4.1-4.1,6.2-6.2c0.3-0.3,0.8-0.6,1.2-0.8
		c0.2,0,0.4,0,0.6,0c0.7,0.2,1.1,0.6,1.3,1.3C949.1-229.4,949.1-229.2,949.1-229.1z"/>
	<path class="st0" d="M915.5-230.9c0.4,0.3,0.8,0.5,1.2,0.8c2.1,2,4.1,4.1,6.1,6.1c0.4,0.4,0.4,0.4,0.8,0c0.7-0.7,1.4-1.4,2.2-2.2
		c0.4-0.3,0.9-0.4,1.3-0.2c0.4,0.2,0.6,0.7,0.5,1.1c-0.1,0.3-0.2,0.5-0.4,0.7c-0.2,0.2-0.4,0.3-0.5,0.5c-0.4,0.4-0.4,0.4,0,0.8
		c0.6,0.6,1.2,1.2,1.8,1.8c0.1,0.1,0.2,0.2,0.3,0.4c-0.2,0.1-0.3,0.1-0.5,0.2c-2,0.5-3.7,1.5-5,3.1c-0.2,0.3-0.4,0.5-0.5,0.8
		c-0.1,0.2-0.3,0.3-0.5,0.1c-0.3-0.4-0.7-0.7-1-1c-0.3-0.3-0.4-0.3-0.7,0c-0.2,0.2-0.5,0.5-0.7,0.7c-0.5,0.4-1,0.5-1.5,0
		c-0.4-0.4-0.5-1-0.1-1.5c0.3-0.4,0.7-0.7,1.1-1.1c0.4-0.4,0.8-0.9,1.3-1.3c0.2-0.2,0.2-0.3,0-0.5c-0.8-0.8-1.7-1.7-2.5-2.5
		c-1.4-1.4-2.8-2.8-4.2-4.2c-0.2-0.2-0.3-0.5-0.4-0.8c0-0.2,0-0.3,0-0.5c0.2-0.7,0.6-1.1,1.3-1.3
		C915.1-230.9,915.3-230.9,915.5-230.9z"/>
	<path class="st0" d="M923.8-212.2c0-0.6-0.1-1.2,0-1.8c0.2-1.8,1.2-3.1,2.7-4c3.3-1.9,6.7-1.8,10,0.1c1.7,1,2.6,2.7,2.6,4.7
		c0,1.1,0.1,2.3-0.2,3.4c-0.5,1.6-1.4,3-2.7,4.1c-0.2,0.2-0.4,0.4-0.5,0.7c-0.2,0.9-0.7,1.5-1.6,1.8c-1.7,0.6-3.5,0.6-5.3,0
		c-0.9-0.3-1.4-0.9-1.7-1.8c-0.1-0.2-0.2-0.4-0.4-0.5c-1-0.1-1.6-0.7-2.1-1.6c-0.5-1-0.7-2-0.8-3.1
		C923.7-210.8,923.7-211.5,923.8-212.2C923.7-212.2,923.7-212.2,923.8-212.2z M927.4-210.2c-0.2,0-0.5,0-0.7,0.1
		c-0.9,0.2-1.1,0.6-0.8,1.5c0.5,1.4,1.9,1.9,3.2,1.7c0.7-0.2,1.2-0.6,1.4-1.3c0.2-0.6,0-0.9-0.5-1.2
		C929.1-210,928.3-210.1,927.4-210.2z M935.5-210.2c-1,0.1-1.7,0.2-2.4,0.5c-0.6,0.3-0.8,0.7-0.7,1.3c0.1,0.6,0.5,1.1,1.1,1.3
		c1.4,0.5,3.3-0.3,3.5-2.1c0.1-0.4-0.1-0.7-0.5-0.8C936.1-210.1,935.7-210.2,935.5-210.2z M932.3-205.9c-0.2-0.5-0.3-0.9-0.5-1.4
		c-0.2-0.4-0.6-0.4-0.8,0c-0.2,0.4-0.3,0.9-0.4,1.3c0,0.1,0.1,0.3,0.2,0.4c0.1,0,0.3-0.1,0.4-0.2c0.2-0.2,0.3-0.1,0.4,0
		c0.1,0.1,0.3,0.2,0.4,0.1C932.1-205.6,932.1-205.8,932.3-205.9z"/>
</g>
<g>
	<path class="st0" d="M958-162.5c0,1,0,2.1,0,3.1c-0.1,0.2-0.1,0.4-0.2,0.6c-0.3,2.5-1.1,4.8-2.2,6.9c-0.3,0.5-0.5,1.1-0.6,1.6
		c-0.3,1.6-0.6,3.3-0.9,4.9c-0.4,2.4-0.9,4.7-1.3,7.1c-12.1,0-24.1,0-36.2,0c-0.2-0.9-0.3-1.7-0.5-2.6c-1-4.7-1.3-9.5-3.6-13.8
		c-0.7-1.4-0.8-3.1-1.2-4.7c0-1,0-2.1,0-3.1c0.4-2.5,1.2-4.8,2.5-6.9c0.1-0.2,0.1-0.4,0.1-0.6c0.4-1.9,1.5-3.1,3.4-3.5
		c1.2-0.2,2.5-0.2,3.7-0.2c9.8,0,19.6,0,29.4,0c2.9,0,4.5,1.3,5.1,4.1c0,0.1,0,0.3,0.1,0.4C956.9-167.1,957.6-164.8,958-162.5z
		 M933.9-151.7c-0.4,0.5-0.6,0.9-0.9,1.2c-1.1,1-2.2,1.9-3.4,2.8c-0.2,0.2-0.8-0.1-1.2-0.2c0.1-0.4,0.2-0.8,0.4-1.1
		c0.2-0.3,0.6-0.4,0.9-0.6c2.7-2,4.5-4.7,4.2-8.1c-0.4-4.4-2.8-7.7-6.9-9.6c-3.4-1.6-7-1.8-10.6-1.7c-0.7,0-1.1,0.3-1.5,0.9
		c-3,5.3-2.4,10.4,0.3,15.6c0.3,0.5,0.5,1.1,0.6,1.6c0.3,1.3,0.5,2.6,0.7,3.9c0.4,2.4,0.9,4.7,1.3,7.1c5.4,0,10.7,0,16,0
		C933.9-143.8,933.9-147.6,933.9-151.7z M935.5-139.8c5.2,0,10.4,0,15.5,0c0.2,0,0.5-0.4,0.6-0.6c0.5-2.5,0.9-5.1,1.5-7.6
		c0.3-1.5,0.6-3.1,1.3-4.5c2.6-5.2,3.2-10.3,0.1-15.5c-0.2-0.4-0.8-0.8-1.3-0.8c-2,0-3.9,0-5.9,0.2c-3.3,0.4-6.4,1.6-8.7,4.2
		c-1.9,2.2-3.2,4.7-3,7.7c0.2,3.4,2,6,4.9,7.7c0.5,0.3,1,0.6,0.6,1.2c-0.3,0.6-0.9,0.5-1.3,0.1c-1.2-1.1-2.4-2.2-3.7-3.3
		c-0.2-0.2-0.3-0.4-0.6-0.6C935.5-147.6,935.5-143.8,935.5-139.8z"/>
	<path class="st0" d="M947.9-160.1c0.3-0.1,0.6-0.1,0.8-0.3c1.2-0.8,2.2-0.9,3.1-0.1c0.9,0.7,1.3,2.1,0.7,3.2c-0.5,1.1-1.2,2-1.8,3
		c-0.2,0.2-0.8,0.4-1.1,0.2c-1-0.4-2-0.8-2.9-1.4c-1-0.6-1.5-1.6-1.4-2.8c0.2-1,0.7-1.6,1.7-1.9c0.3-0.1,0.5-0.1,0.8-0.1
		C947.9-160.2,947.9-160.1,947.9-160.1z"/>
</g>
<g>
	<path class="st0" d="M830.9-156c0-13.2,10.9-24,24.1-23.9c13.1,0.1,23.8,10.9,23.8,24c0,13.2-10.9,23.9-24.1,23.9
		C841.6-132.1,830.8-142.9,830.9-156z M834.5-156c0,11.2,9.1,20.3,20.3,20.3c11.1,0,20.2-9.1,20.2-20.2c0-11.2-9.1-20.3-20.3-20.3
		C843.6-176.3,834.5-167.2,834.5-156z"/>
	<path class="st0" d="M853-161.5c1.3,0,2.6,0,3.9,0c0.1-0.1,0.2-0.1,0.2-0.2c0.1-2.6,0.5-3.4,3.9-3.4c2.6,0,5.1,0,7.7,0
		c2.5,0,3.2,0.8,3.1,3.3c0,1.1,0.1,2.3-0.2,3.4c-0.7,2.6-2.9,3.8-5.4,4.2c-3.3,0.5-6.3-0.1-8.3-3.1c-0.5-0.8-5.2-0.7-5.7,0.1
		c-2.2,3.6-8.4,4.1-11.7,1.5c-1.3-1-2.1-2.3-2.1-4c0-1.1-0.1-2.3,0-3.4c0.1-1.1,0.8-1.8,1.9-1.8c3.5-0.1,7.1-0.1,10.6,0
		c1.4,0,2,0.8,2.1,2.2C852.9-162.4,853-162,853-161.5z"/>
	<path class="st0" d="M847.3-150.5c2.4,4.7,11.7,5.6,15.1,0c1.1,0.4,2.1,0.8,3.2,1.3c-1.7,4-6,6.5-11.3,6.3
		c-4.5-0.2-8.3-1.9-10.5-6.3C845.1-149.8,846.1-150.1,847.3-150.5z"/>
</g>
<g>
	<path class="st0" d="M770.3-160.1c1.4-4.8,4.4-7.8,9.4-8.4c4.3-0.5,7.8,1.2,10.3,4.9c2.3,3.4,2.5,8.3-0.4,12.3c0,0,0.1,0,0.1,0.1
		c1.6,0.5,3.2,0.9,4.9,1.1c0.5,0.1,1.1,0.1,1.7,0c0.6-0.1,0.8-0.5,0.6-1.1c-0.2-0.4-0.4-0.8-0.6-1.1c-0.8-1.1-1.8-1.9-2.8-2.8
		c-0.1-0.1-0.1-0.1-0.2-0.2c0,0,0.1,0,0.1,0c2.2,1.3,4.3,2.6,6.3,4.3c0.5,0.4,1,1,1.4,1.5c0.2,0.2,0.3,0.5,0.4,0.8
		c0.2,0.4,0,0.8-0.4,0.9c-0.3,0.1-0.6,0.2-0.9,0.2c-1.2,0.1-2.3-0.1-3.4-0.4c-3.3-0.7-6.5-1.8-9.6-2.9c-6.6-2.5-13.1-5.5-19.2-9.1
		c-2.1-1.2-4.2-2.6-6-4.2c-0.5-0.4-0.9-0.9-1.3-1.4c-0.2-0.2-0.3-0.5-0.4-0.8c-0.1-0.4,0-0.8,0.4-0.9c0.3-0.1,0.7-0.2,1-0.2
		c1.3-0.1,2.5,0.2,3.7,0.4c1.9,0.4,3.8,1,5.6,1.6c0,0,0.1,0,0.1,0.1c-0.5-0.1-1-0.1-1.5-0.2c-1.1-0.1-2.3-0.3-3.4-0.1
		c-0.3,0-0.5,0.1-0.8,0.3c-0.4,0.2-0.5,0.5-0.3,0.9c0.1,0.3,0.3,0.5,0.5,0.7c0.6,0.7,1.4,1.3,2.2,1.9c0.8,0.6,1.7,1.1,2.5,1.7
		C770.2-160.1,770.2-160.1,770.3-160.1z M789-163c0-0.1-0.1-0.1-0.1-0.2c-3.7-5.1-11.2-5.2-15.1-0.3c-1,1.2-1.6,2.6-1.9,4.1
		c0,0.1,0,0.2,0,0.2c0.3,0.2,0.6,0.3,0.9,0.5c1-3.6,3.2-6,6.8-6.9C783.2-166.6,786.3-165.6,789-163z"/>
	<path class="st0" d="M770.1-157c0.4,0.2,0.7,0.4,1,0.5c0.4,0.2,0.6,0.5,0.7,0.9c0.3,1.5,1,2.9,2,4c-0.8-1.3-1.2-2.7-1.4-4.2
		c4.8,2.5,9.7,4.6,14.8,6.5c-2.8,2.1-7.1,3-11.1,1.1c-2-1-3.6-2.4-4.7-4.3C770.7-153.8,770.3-155.3,770.1-157z"/>
</g>
<g>
	<path class="st0" d="M726.3-165.3c1.9,3.4,3.9,6.7,5.8,10.2c-1.6,1-2.4,2.5-2.5,4.4c-0.3,0-0.5,0-0.8,0c-3.3,0-6.7,0-10,0
		c-0.3,0-0.6,0-0.9,0.1c0-0.4,0-0.8,0-1.2c0-0.2,0.1-0.4,0.1-0.6c0.6-5.3,3.1-9.3,7.5-12.3c0.2-0.2,0.4-0.3,0.7-0.5
		C726.2-165.3,726.2-165.3,726.3-165.3z"/>
	<path class="st0" d="M751.4-150.6c-0.4,0-0.9-0.1-1.3-0.1c-3.4,0-6.9,0-10.4,0c-0.1-1.9-0.9-3.3-2.5-4.4c2-3.4,3.9-6.8,5.8-10.2
		c0,0,0.1,0,0.1,0c0.2,0.1,0.3,0.3,0.5,0.4c3.3,2.2,5.6,5.1,6.8,8.9c0.4,1.3,0.6,2.7,0.9,4.1C751.4-151.4,751.4-151,751.4-150.6z"/>
	<path class="st0" d="M733.5-133.8c-1.5-0.3-3-0.6-4.4-1c-0.9-0.3-1.8-0.8-2.8-1.2c2-3.5,3.9-6.8,5.9-10.2c1.7,0.9,3.4,0.9,5,0
		c2,3.4,3.9,6.7,5.8,10.1c-1.7,1-3.5,1.7-5.4,2c-0.6,0.1-1.2,0.2-1.8,0.3C735-133.8,734.3-133.8,733.5-133.8z"/>
	<path class="st0" d="M738-150.7c0,1.8-1.6,3.4-3.4,3.4c-1.8,0-3.3-1.6-3.3-3.4c0-1.8,1.5-3.3,3.3-3.3
		C736.5-154,738-152.5,738-150.7z"/>
</g>
<path class="st0" d="M689.4-140.3c-0.3,0.2-0.6,0.4-0.9,0.6c-5.9,3.8-12.2,5.3-19.1,2.9c-3.8-1.3-6.7-3.8-7.9-7.8
	c-1.3-4.6,0.4-9.2,4.3-11.9c4.4-3,9.2-3.6,14.3-2.5c3.2,0.6,6.1,1.9,8.7,3.8c0.1,0.1,0.3,0.2,0.5,0.3c1.3-1.3,2.7-2.7,4-4
	c0.3-0.3,0.9-0.6,1.4-0.6c2.7-0.1,5.3,0,8.1,0c0,7.9,0,15.8,0,23.9c-0.3,0-0.6,0-0.9,0c-2.4,0-4.7,0-7.1,0c-0.6,0-1.1-0.2-1.6-0.6
	C692.1-137.6,690.7-138.9,689.4-140.3z M664.1-147.4c0,0.2,0,0.7,0.1,1.1c0.2,0.9,0.9,1.4,1.7,1.3c0.8-0.1,1.3-0.8,1.3-1.7
	c-0.1-3.2,1-5,4.1-6c1.6-0.5,3.4-0.6,5.1-0.9c0.9-0.1,1.6-0.7,1.6-1.5c0-0.8-0.6-1.5-1.5-1.5c-3.2-0.1-6.3,0.6-8.9,2.4
	C665.3-152.5,664.1-150.3,664.1-147.4z M693.9-150.6c0-1.5,0-2.9,0-4.5c-0.9,0.9-1.5,1.7-2.3,2.4c-0.7,0.6-0.7,1.3-0.5,2.1
	C692-150.6,693-150.6,693.9-150.6z M693.9-140c0-1.7,0-3.1,0-4.5c-1,0-1.9,0-3.1,0c0.2,0.7,0.2,1.3,0.5,1.8
	C692-141.9,692.9-141.1,693.9-140z"/>
<g>
	<path class="st0" d="M623.9-152.8c-2.4,2-4.7,2-7.3-0.1c-1,1-2.2,1.8-3.7,1.5c-1.3-0.2-2.6-0.8-4-1.3c-1.8,1.8-4.3,1.9-6.9,1.4
		c-2.1-0.4-3.7-2.3-4-4.3c-0.2-2.2,0.9-4.2,2.9-5.3c0.3-0.2,0.7-0.5,0.9-0.8c1.3-3.4,4.4-4.8,7.8-3.5c0.1,0,0.2,0.1,0.3,0.1
		c3.3-3.7,10.1-3.5,13.2,0c1.4-0.6,2.9-0.9,4.5-0.4c1.8,0.6,3,1.7,3.6,3.5c0.1,0.3,0.4,0.7,0.7,0.9c2.7,1.4,3.9,3.8,3,6.3
		c-0.8,2.5-3.7,4.1-6.4,3.5C626.9-151.7,625.5-152.3,623.9-152.8z"/>
	<path class="st0" d="M609.9-147.4c0.1,1.5-0.1,2.5-1.6,2.7c0.6,0.1,1.2,0.3,2.1,0.5c0.3-1.9,0.5-3.7,0.7-5.3
		c1.2-0.1,2.4-0.1,3.7-0.2c-0.2,1.9-0.4,3.8-0.6,5.8c1.5,0,3.1,0,4.8,0c-0.2-2-0.5-3.9-0.7-5.9c1.3,0.1,2.4,0.2,3.7,0.4
		c0.2,1.6,0.5,3.3,0.7,5.1c0.7-0.2,1.4-0.3,2-0.4c-1.4-0.3-1.7-1.2-1.5-2.6c1.9,0.2,3.7,0.5,5.4,1.4c1,0.6,1.3,1.4,0.7,2.3
		c-0.5,0.7-1.3,1.4-2.1,1.8c-2.2,1.1-4.6,1.4-7,1.5c-4.2,0.3-8.4,0.3-12.6-0.9c-1-0.3-2-0.8-2.9-1.4c-1.7-1.3-1.4-2.9,0.5-3.6
		C606.7-146.7,608.3-147,609.9-147.4z"/>
	<path class="st0" d="M603.6-130.9c0-1.7,0-3.3,0-5c0.3-0.1,0.5-0.2,0.8-0.2c1.6-0.2,2.8-1,3.7-2.3c0.3-0.4,0.6-0.6,1.1-0.4
		c1,0.2,2,0.4,3.3,0.6c-1,1.3-1.8,2.5-2.7,3.8c4.5,0,8.9,0,13.4,0c-0.9-1.2-1.7-2.4-2.7-3.7c1.4-0.2,2.5-0.5,3.6-0.6
		c0.2,0,0.5,0.1,0.6,0.3c1,1.5,2.4,2.4,4.3,2.5c0.1,0,0.2,0.1,0.4,0.1c0,1.7,0,3.3,0,5.1C620.9-130.9,612.3-130.9,603.6-130.9z"/>
</g>
<path class="st0" d="M536-150.6c0-0.1,0-0.2,0-0.3c0.1-0.1,0.3-0.2,0.4-0.3c0.6-0.5,1.3-1,1.9-1.6c2.1-2.3,4-4.6,6.1-6.9
	c1.3-1.4,2.6-2.7,4.2-3.7c0.7-0.4,1.4-0.8,2.3-0.8c2.3-0.1,4.3,0.7,6.2,2c0.7,0.5,1.3,1.1,1.8,1.5c0.7-0.6,1.3-1.1,2-1.7
	c1.5-1.2,3.3-2,5.3-2.2c1.4-0.2,2.8,0,4.1,0.7c1.5,0.8,2.7,2,3.8,3.2c1.5,1.7,2.8,3.5,4.3,5.3c0.9,1.1,1.8,2.3,2.9,3.2
	c0.3,0.2,0.6,0.4,0.8,0.6c0,0.1,0,0.2,0,0.3c-0.4,0.4-0.8,0.9-1.2,1.3c-1.6,2-3.1,4.1-4.7,6.1c-1.7,2.2-3.6,4.4-5.8,6.1
	c-0.8,0.7-1.7,1.3-2.8,1.5c-1.4,0.3-2.9,0.5-4.4,0.7c-2.9,0.3-5.8,0.3-8.6-0.3c-1.9-0.4-3.8-1-5.5-2.1c-2.1-1.4-3.8-3.1-5.4-5
	c-1.3-1.6-2.7-3.2-4-4.8c-0.9-1.1-1.9-2.1-3.2-2.8C536.2-150.3,536.1-150.5,536-150.6z M576.5-150.3c-0.2,0-0.4-0.1-0.5-0.1
	c-0.7-0.2-1.4-0.4-2.1-0.6c-1.6-0.7-3.1-1.4-4.7-2c-0.7-0.3-1.5-0.5-2.3-0.5c-1.2,0.1-2.4,0.3-3.6,0.6c-1,0.2-1.9,0.5-2.8,0.8
	c-0.7,0.2-1.5,0.1-2.2-0.1c-1.6-0.5-3.2-0.9-4.8-1.3c-1.3-0.3-2.5-0.3-3.7,0.3c-1,0.5-2,1-3,1.5c-1.3,0.7-2.7,1.4-4.2,1.8
	c-0.1,0-0.2,0.1-0.3,0.1c5.2,2.9,10.7,4.4,16.6,4.4C565.2-145.6,571.1-146.9,576.5-150.3z"/>
<g>
	<path class="st0" d="M478.9-144.7c-0.2-2-0.4-3.9-0.6-5.8c-0.1-1.1,0-2.2,0.8-3c1.8-1.8,1.7-3.9,1.4-6.2c-0.1-0.9-0.3-1.9-0.3-2.9
		c0-0.7,0.2-1.6,0.6-2.1c2-2.3,4-4.5,6.1-6.7c0.5-0.5,1.5-0.8,2.3-0.8c1.4-0.1,2.9,0,4.3,0.2c1.7,0.2,3.2-0.2,4.7-0.8
		c1.7-0.7,3.4-1.2,5.1-2c1.7-0.8,6.4,1.1,7,2.6c0.2,0.5,0.3,1.1,0.3,1.6c-0.1,1.4,0.5,2.3,1.7,2.8c0.3,0.1,0.7,0.3,1,0.4
		c1.3,0.7,1.8,1.6,1.5,3c-0.4,1.6-0.4,3.2,0.3,4.8c0.6,1.4,0.8,2.9-0.4,4.1c-0.6,0.6-0.3,1.4,0.1,2.1c1.2,2.1,1.5,4.4,1.2,6.7
		c-0.1,1.3-0.7,2.3-1.8,3.1c-0.9,0.7-1.7,1.6-2.7,2.3c-0.5,0.4-1.1,0.8-1.8,0.9c-3.3,0.7-6.6,1.2-9.9,1.9c-1.4,0.3-2.8,0.9-4.3,1.4
		c-0.7,0.2-1.3,0.5-2,0.8c-2.6,1.2-5.1,1.1-7.6-0.1c-1.5-0.7-3-1.2-4.6-1.8c-2.3-0.8-3.1-2.3-2.6-4.6
		C478.8-143.3,478.8-144,478.9-144.7z M492.8-167.9c-4-0.1-4-0.1-6.3,2.6c0,0.1-0.1,0.1-0.1,0.2c-1.8,1.5-2.2,3.4-1.8,5.7
		c0.4,2.5,0.2,5.1-1.7,7.1c-0.3,0.3-0.4,0.9-0.4,1.3c0.1,2,0.4,3.9,0.5,5.9c0.2,1.8,1.8,3.2,3.5,2.7c1.4-0.4,2.8-1.1,4-1.9
		c1.2-0.9,2.4-1.2,3.9-0.8c0.5,0.1,1.3,0,1.5-0.3c0.7-1,1.5-2,1.7-3.1c0.3-1.5,1.1-2.2,2.4-2.6c1.6-0.6,3.3-1.2,4.9-1.9
		c1.7-0.7,2.1-1.6,1.5-3.3c-0.4-1.3-0.3-2.5,0.3-3.7c0.3-0.8,0.7-1.7,0.6-2.5c-0.2-2.1-0.7-4.3-1.1-6.4c-0.1-0.3-0.3-0.8-0.5-0.9
		c-1-0.4-2-0.7-3.2-0.1C499.2-168.6,496-167.2,492.8-167.9z"/>
	<path class="st0" d="M502.4-159.5c-0.4,0.5-0.7,1.1-1.2,1.5c-1.2,0.9-2.5,1.8-3.8,2.6c-0.5,0.3-1.2,0.4-1.7,0.2
		c-0.3-0.1-0.7-0.9-0.6-1.3c0.2-1.4-0.1-2.7-0.5-4.1c-0.4-1.3,0-1.9,1.2-2.4c0.8-0.3,1.5-0.8,2.2-1.2c0.5-0.3,1-0.7,1.6-0.8
		c0.4,0,1.2,0.4,1.2,0.6c0,1.2,0.5,2.2,1.1,3.3c0.2,0.4,0.2,0.9,0.3,1.3C502.3-159.6,502.4-159.5,502.4-159.5z"/>
	<path class="st0" d="M489.5-148.4c-1.5-0.4-2.5-1.3-3.3-2.4c-0.2-0.2,0.2-0.9,0.4-1.3c0.4-0.7,1-1.3,1.4-2c0.4-0.8,1.1-1,1.6-0.6
		c0.9,0.7,1.7,1.6,2.5,2.5c0.1,0.2-0.1,0.8-0.4,1.1c-0.5,0.7-1,1.5-1.5,2.2C490-148.7,489.6-148.6,489.5-148.4z"/>
</g>
</svg>
