<?xml version="1.0" encoding="utf-8"?>
<!-- Generator: Adobe Illustrator 19.0.0, SVG Export Plug-In . SVG Version: 6.00 Build 0)  -->
<svg version="1.1" id="Layer_1" xmlns="http://www.w3.org/2000/svg" xmlns:xlink="http://www.w3.org/1999/xlink" x="0px" y="0px"
	 viewBox="5 -5 30 30" style="enable-background:new 5 -5 30 30;" xml:space="preserve">
<style type="text/css">
	.st0{fill:#FFFFFF;}
	.st1{fill:none;stroke:#FFFFFF;stroke-miterlimit:10;}
</style>
<g id="Layer_1_1_">
</g>
<polygon id="XMLID_2_" class="st0" points="-88,-103.8 -80.5,-111.5 -81.7,-102 -71.7,-104.2 -82.3,-95.3 -73.4,-91.1 -86,-90.5 
	-94,-81.9 -91.5,-92.5 -97.2,-96 -92,-96.5 -98.7,-108.5 "/>
<g id="XMLID_27_">
	<path id="XMLID_28_" class="st0" d="M-114.9-64.9c-1.2-0.7-2.6-0.4-3.3,0.9c-0.7,1.2-0.5,2.6,0.7,3.4c1.2,0.8,2.6,0.3,3.3-0.9
		C-113.4-62.8-113.7-64.2-114.9-64.9z"/>
	<polygon id="XMLID_29_" class="st0" points="-101.4,-83.1 -104.7,-85.1 -110.4,-75.2 -118.4,-83.3 -121,-80.5 -112,-72.4 
		-114.4,-68.4 -112,-67 -109.8,-70.4 -106.7,-67.6 -104.8,-69.5 -108.1,-72.9 	"/>
	<path id="XMLID_30_" class="st0" d="M-100-66.3c-1-1-2.4-1.1-3.4,0c-0.9,1-0.9,2.4,0.2,3.4c1,1,2.5,1,3.4,0
		C-98.8-63.9-99-65.3-100-66.3z"/>
</g>
<path id="XMLID_14_" class="st0" d="M-45.4-127.2c-7.6,0-13.8,6.2-13.8,13.8c0,7.6,6.2,13.7,13.8,13.7s13.8-6.2,13.8-13.7
	C-31.7-121-37.8-127.2-45.4-127.2z M-40.5-110.1c-0.6,5.4-2.6,9.3-4.9,9.3c-2.3,0-4.3-4-4.9-9.3c-3.4-0.7-5.8-2.1-5.8-3.7
	s2.4-3,5.9-3.7c0.7-5,2.6-8.5,4.8-8.5s4.1,3.6,4.8,8.5c3.5,0.7,5.9,2.1,5.9,3.7S-37.1-110.8-40.5-110.1z"/>
<polygon id="XMLID_3_" class="st0" points="-34.4,-97.4 -31,-87 -20.1,-87 -28.9,-80.5 -25.5,-70.1 -34.4,-76.5 -43.3,-70 
	-39.9,-80.5 -48.8,-87 -37.8,-87 "/>
<path id="XMLID_16_" class="st0" d="M-67.4-42.9c0.5-3,0.2-6.2-1.2-8.9c-1.6-3.4-5.3-6.4-9.1-4.2c-1.4,0.8-2.3,2.1-3.1,3.7
	c-1.3-0.5-2.4-0.9-3.4-1.2c-6.4-1.7-6.7,3.6-5.4,8.4c-2,0.4-4.9,1.3-4.9,3.6c0,2.6,4.1,5,6.8,6.4c0.4,1.5,0.9,2.9,1.3,3.7
	c2.7,5.6,9.7,3.7,12.4-0.8c0.1-0.1,0.2-0.2,0.3-0.3c3.6-0.5,6.7-2.2,7.3-6.1C-66.1-40.1-66.6-41.5-67.4-42.9z M-73-37.5
	c-0.1-0.6-0.3-1.2-0.6-1.7c0.2-0.7,0.3-1.4,0.4-2.1C-73.1-42-73-43-73-44.2c0.5,0.4,0.9,0.8,1.2,1.2c0.4,0.5,0.7,0.9,1,1.4
	C-71.3-40.1-72-38.7-73-37.5z M-79.5-38.7c-0.3,0.2-0.6,0.3-0.9,0.5c0-0.1-0.1-0.1-0.1-0.2c-0.2-0.2-0.4-0.5-0.6-0.8
	c0.6-0.2,1.1-0.6,1.2-1.4c0-0.2,0-0.4,0-0.5c0.9,0.4,1.6,0.9,2.2,1.6c0.1,0.3,0.2,0.6,0.3,0.9C-78-38.5-78.6-38.5-79.5-38.7z
	 M-76-42.1c-1.1-0.8-2.3-1.5-3.6-2c0.1-0.7,0.2-1.3,0.3-2c0.4-0.6,0.8-1.1,1.3-1.3c0.5,0.3,0.9,0.5,1.4,0.8c0.2,0.1,0.4,0.3,0.6,0.4
	C-75.8-45.1-75.9-43.3-76-42.1z M-82.9-42.1c0,0.3,0,0.6-0.1,0.9c-0.7-0.6-1.5-1-2.4-1c0-0.1-0.1-0.2-0.1-0.2
	C-84.7-42.4-83.8-42.3-82.9-42.1z M-71.3-50.4c0.8,1.2,1,2.8,1.1,4.2c-1-0.9-2.1-1.7-3.2-2.4c-0.4-1.7-1.2-3.1-2.5-3.6
	c-0.2-0.1-0.3-0.1-0.5-0.1C-74.8-53.1-72.6-52.3-71.3-50.4z M-84.9-50.6c1.1,0.4,2.1,0.8,3.1,1.3c-0.2,0.8-0.4,1.6-0.5,2.4
	c-0.4,0.7-0.7,1.3-1,1.9c-1.2-0.2-2.3-0.3-3.4-0.3c-0.2-0.7-0.3-1.4-0.3-2.1C-87.8-49.1-87.1-50.1-84.9-50.6z M-88.6-42.1
	c0.3,0.7,0.6,1.3,0.9,1.8c-0.2,0.4-0.3,0.9-0.3,1.5C-90.7-40.6-90.3-41.7-88.6-42.1z M-83.7-33.4c0.8,0.2,1.7,0.5,2.6,0.6
	c0.2,0.4,0.5,0.8,0.8,1.1C-81.3-31.8-82.4-32.4-83.7-33.4z"/>
<g id="XMLID_10_">
	<polygon id="XMLID_12_" class="st0" points="-96.8,-130.6 -107.1,-131.7 -94,-146.6 -94.8,-147.6 -109.2,-132.9 -115.6,-139.3 
		-102.1,-153.1 -103.3,-153.6 -114.3,-142.5 -118.6,-149 -111,-157.8 -108.5,-155.7 -114.6,-148.7 -113.8,-147.6 -104,-157.4 
		-96.5,-154.3 -111.1,-139.3 -109.2,-137.5 -94.8,-152.3 -89.6,-146.7 -100.5,-134.3 -97.9,-134 -92.5,-138.7 -90.3,-136.3 	"/>
</g>
<g id="XMLID_7_">
	<polygon id="XMLID_8_" class="st0" points="-122.8,-121.5 -129.8,-109.3 -115.3,-115 	"/>
	<polygon id="XMLID_24_" class="st0" points="-134.2,-121.2 -143.1,-116.8 -130.5,-107.7 	"/>
	<polygon id="XMLID_25_" class="st0" points="-121.6,-102.9 -125.3,-103.1 -133,-99 -134.9,-106.6 -137.8,-105.1 -141.9,-110.3 
		-143,-105.8 -141.2,-101.1 -137.8,-98.7 -131.7,-94.2 -127.1,-97.4 -122,-95.8 -122,-99.5 -117.4,-104 -116.7,-108.9 -119,-107.4 	
		"/>
</g>
<polygon id="XMLID_5_" class="st0" points="-77.9,-86.1 -79.3,-82.2 -77,-81.7 -80.5,-65 -80.7,-63.7 -73,-63.6 -71,-65 -67,-65 
	-66,-63.8 -57.7,-63.5 -56.2,-66 -56.7,-70.2 -60.2,-71 -65,-71 -69.8,-74.5 -67.8,-81.3 -64.2,-85.8 "/>
<path id="XMLID_6_" class="st0" d="M-48.5-31l12,5.2l2.5-6.7l5.2-1.3c0,0,1.5,0,1.5-1.2s2-7.2,2-7.2l0.3-6l-5.7-0.8l-6.7,0.3
	l-3.5,4.3l-2-0.2l1.5-2.8l1.2-2.5l-3.8-2l-4.2,2.7l-0.8,6c0,0-0.3,4.3,0.3,4.5c0.7,0.2,5,1.5,5,1.5l-1.5,2.2L-48.5-31z"/>
<polygon id="XMLID_11_" class="st0" points="182.2,-163.1 189.7,-170.8 188.5,-161.3 198.5,-163.5 187.9,-154.6 196.8,-150.4 
	184.2,-149.8 176.2,-141.2 178.7,-151.8 173,-155.3 178.2,-155.8 171.5,-167.8 "/>
<polygon id="XMLID_9_" class="st0" points="99.8,-160.2 98.4,-156.3 100.8,-155.8 97.3,-139.1 97.1,-137.8 104.8,-137.7 
	106.8,-139.1 110.8,-139.1 111.8,-137.9 120.1,-137.6 121.6,-140.1 121.1,-144.3 117.6,-145.1 112.8,-145.1 107.9,-148.6 
	109.9,-155.4 113.6,-159.9 "/>
<path id="XMLID_1_" class="st0" d="M129.3-105.1l12,5.2l2.5-6.7l5.2-1.3c0,0,1.5,0,1.5-1.2s2-7.2,2-7.2l0.3-6l-5.7-0.8l-6.7,0.3
	l-3.5,4.3l-2-0.2l1.5-2.8l1.2-2.5l-3.8-2l-4.2,2.7l-0.8,6c0,0-0.3,4.3,0.3,4.5c0.7,0.2,5,1.5,5,1.5l-1.5,2.2L129.3-105.1z"/>
<path id="XMLID_32_" class="st0" d="M-48.2-137.5l12.5-25.3c0,0,11.5,2.5,9.2,11.2c-2.2-6.3-7.8-6-7.8-6L-47-136.3L-48.2-137.5z"/>
<path id="XMLID_37_" class="st0" d="M-131.4-160.9c-2.1-0.7-4.6-0.2-6.2,6.2c-1.6-1.1-6.2-2.1-8.5,0.2c0-3.9-5.3-7.3-7.3-6
	c-2.1,1.4-6,6.6,2.1,10.1c-3.9,9.8,3.4,17.9,10.3,17.4c6.9-0.5,12.1-10.1,9.4-20.1C-127.6-154.5-129.4-160.2-131.4-160.9z
	 M-142.9-144c-1.8-1.6-3.2-2.1-5,0.7c-2.2,3.2,0.7-8.2,2.7-5.7C-143.1-146.5-141.1-142.4-142.9-144z M-136-144
	c-1.8-1.6-3.2-2.1-5,0.7c-2.2,3.2,0.7-8.2,2.7-5.7C-136.2-146.5-134.2-142.4-136-144z"/>
<path id="XMLID_33_" class="st0" d="M-158.2-82c-4.3,3.7-11.8,29.2-6.5,20.8c5.3-8.3,17.8-29,13.3-18.5s-13,30.5-6,20.8
	s14.8-24.3,14-16.8s-5.2,22.2-1.7,15s6.2-27.3,2.3-22.2c-3.8,5.2-9.7,12-7.3,6.7c2.3-5.3,1.5-12.8-4.7-4.3c-6,8.5-5.2,3.5-4.2,1.5
	S-158.2-82-158.2-82z"/>
<path id="XMLID_42_" class="st0" d="M-25.5-205.2l-13.7,13.7l-7.6-7.6v-9.1l7.6,7.6l13.7-13.6V-205.2z"/>
<path id="XMLID_54_" class="st0" d="M-54.3-178.2c0,3.7-0.9,6.8-2.7,9.3c-1.8,2.4-4.1,4-7,4.7c-2.9-0.7-5.3-2.2-7-4.7
	c-1.8-2.5-2.7-5.6-2.7-9.3c0-1.3,0.3-2.6,0.9-3.9c0.4-1,1-1.7,1.6-2.3c1.4,0.8,2.7,1.3,4,1.3s2.4-0.4,3.3-1.2c0.9,0.8,2,1.2,3.3,1.2
	s2.7-0.4,4-1.3c0.6,0.6,1.1,1.3,1.6,2.3C-54.6-180.8-54.3-179.5-54.3-178.2z"/>
<g id="XMLID_17_">
	<polygon id="XMLID_18_" class="st0" points="114.3,-100.3 104,-101.4 117.1,-116.3 116.3,-117.3 101.9,-102.6 95.5,-109 
		109,-122.8 107.8,-123.3 96.8,-112.2 92.5,-118.7 100.1,-127.5 102.6,-125.4 96.5,-118.4 97.3,-117.3 107.1,-127.1 114.6,-124 
		100,-109 101.9,-107.2 116.3,-122 121.5,-116.4 110.6,-104 113.2,-103.7 118.6,-108.4 120.8,-106 	"/>
</g>
<path id="XMLID_15_" class="st0" d="M162.9-107.2l12.5-25.3c0,0,11.5,2.5,9.2,11.2c-2.2-6.3-7.8-6-7.8-6L164.1-106L162.9-107.2z"/>
<path id="XMLID_13_" class="st0" d="M156.8-147.9c0,3.7-0.9,6.8-2.7,9.3c-1.8,2.4-4.1,4-7,4.7c-2.9-0.7-5.3-2.2-7-4.7
	c-1.8-2.5-2.7-5.6-2.7-9.3c0-1.3,0.3-2.6,0.9-3.9c0.4-1,1-1.7,1.6-2.3c1.4,0.8,2.7,1.3,4,1.3s2.4-0.4,3.3-1.2c0.9,0.8,2,1.2,3.3,1.2
	s2.7-0.4,4-1.3c0.6,0.6,1.1,1.3,1.6,2.3C156.5-150.5,156.8-149.2,156.8-147.9z"/>
<path id="XMLID_126_" class="st0" d="M-84.2-189.4l-11.2,2.6l-2.8,11.3l-2.6-11.2l-11.3-2.8l11.2-2.6l2.8-11.3l2.6,11.3L-84.2-189.4
	z M-98.9-189.5l-2-2l-8.6,2H-98.9z M-98.3-178.2v-10.6l-2,2L-98.3-178.2z M-96.1-192.1l-1.9-8.6v10.6L-96.1-192.1z M-86.8-189.4
	h-10.6l2,2L-86.8-189.4z"/>
<path id="XMLID_258_" class="st0" d="M-86.9,34.3l3.6,1.5c2.2,0.9,4,2.4,5.3,4.4c1.3,2,2,4.2,2,6.6c0,3.3-1.2,6.1-3.5,8.4
	c-2.3,2.3-5.1,3.5-8.4,3.5c-1.5,0-3-0.3-4.5-0.9l-3.6-1.5c-2.2-0.9-4-2.4-5.3-4.3s-2-4.2-2-6.6c0-3.3,1.2-6.1,3.5-8.4
	s5.1-3.5,8.4-3.5C-90,33.4-88.5,33.7-86.9,34.3z M-101.7,45.4c0,2.8,1,5.1,3,7.1s4.4,3,7.2,3c2.8,0,5.2-1,7.2-3s3-4.4,3-7.3
	c0-2.8-1-5.2-3-7.2s-4.3-3-7.1-3c-2.9,0-5.3,1-7.3,3S-101.7,42.5-101.7,45.4z"/>
<path id="XMLID_277_" class="st0" d="M-27.5-175.5l9.7-13.8l9.7,13.8l-9.7,13.8L-27.5-175.5z"/>
<path id="XMLID_281_" class="st0" d="M-17.3-221.3l-5.4-5.4l5.4-5.4l5.4,5.4L-17.3-221.3z M-14.7-234.6l5.4-5.4l5.4,5.4l-5.4,5.4
	L-14.7-234.6z M-3.9-218.7l-5.4,5.4l-5.4-5.4l5.4-5.4L-3.9-218.7z M-1.4-232.1l5.4,5.4l-5.4,5.4l-5.4-5.4L-1.4-232.1z"/>
<path id="XMLID_296_" class="st0" d="M-79.1-2.4L-80.5-1c-0.8,0.8-1.8,1.2-2.9,1.2s-2.1-0.4-2.9-1.2s-1.2-1.8-1.2-2.9
	s0.4-2.1,1.2-2.9c0.8-0.8,1.8-1.2,2.9-1.2s2.1,0.4,2.9,1.2l1.4,1.4l2.9-2.9l-1.4-1.4c-0.8-0.8-1.2-1.7-1.2-2.9s0.4-2.1,1.2-2.9
	c0.8-0.8,1.7-1.2,2.9-1.2c1.1,0,2.1,0.4,2.9,1.2s1.2,1.8,1.2,2.9s-0.4,2.1-1.2,2.9l-1.4,1.4l2.9,2.9l1.4-1.4C-68.1-7.6-67.1-8-66-8
	s2.1,0.4,2.9,1.2c0.7,0.9,1.1,1.8,1.1,3c0,1.1-0.4,2.1-1.2,2.9s-1.8,1.2-2.9,1.2s-2.1-0.4-2.9-1.2l-1.4-1.4l-2.9,2.9l1.4,1.4
	c0.8,0.8,1.2,1.8,1.2,2.9s-0.4,2.1-1.2,2.9C-72.7,8.6-73.7,9-74.8,9s-2.1-0.4-2.9-1.2s-1.2-1.8-1.2-2.9s0.4-2.1,1.2-2.9l1.4-1.4
	L-79.1-2.4z M-69-3.8l1.4,1.4c0.4,0.4,0.9,0.6,1.4,0.6c0.6,0,1.1-0.2,1.4-0.6c0.4-0.4,0.6-0.9,0.6-1.4c0-0.6-0.2-1.1-0.6-1.5
	c-0.4-0.4-0.9-0.6-1.4-0.6c-0.6,0-1,0.2-1.4,0.6L-69-3.8z M-74.8-9.6l1.4-1.4c0.4-0.4,0.6-0.9,0.6-1.4c0-0.6-0.2-1-0.6-1.4
	c-0.4-0.4-0.9-0.6-1.4-0.6c-0.6,0-1.1,0.2-1.4,0.6c-0.4,0.4-0.6,0.9-0.6,1.4c0,0.6,0.2,1,0.6,1.4L-74.8-9.6z M-77.7-3.8l2.9,2.9
	l2.9-2.9l-2.9-2.9L-77.7-3.8z M-74.8,2l-1.4,1.4c-0.4,0.4-0.6,0.9-0.6,1.4c0,0.6,0.2,1,0.6,1.4s0.9,0.6,1.4,0.6
	c0.6,0,1.1-0.2,1.4-0.6c0.4-0.4,0.6-0.9,0.6-1.4c0-0.6-0.2-1-0.6-1.4L-74.8,2z M-80.6-3.8L-82-5.3c-0.4-0.4-0.9-0.6-1.4-0.6
	c-0.6,0-1,0.2-1.4,0.6c-0.4,0.4-0.6,0.9-0.6,1.4c0,0.6,0.2,1.1,0.6,1.4c0.4,0.4,0.9,0.6,1.4,0.6c0.6,0,1-0.2,1.4-0.6L-80.6-3.8z"/>
<polygon id="XMLID_4_" class="st0" points="-157.5,-37.1 -151,-12.3 -149.7,-27.4 -147.8,-19.5 -146,-28.9 -144.4,-11.3 
	-140.9,-25.4 -139.5,-21.7 -137.5,-27 -135,-12.2 -129.1,-39.2 -134.3,-23 -137.5,-36.5 -139.5,-25 -141.5,-28 -143.7,-20.7 
	-145.1,-40.8 -148.1,-26.6 -150.2,-31.2 -151.7,-24.1 "/>
<polygon id="XMLID_26_" class="st0" points="-164.3,-179 -162.8,-191.4 -141,-203.4 -150.7,-179.9 "/>
<path class="st0" d="M151.1-220.8c0-4-3.2-7.3-7.3-7.3s-7.3,3.2-7.3,7.3c0,2.7,1.5,5.1,3.7,6.3l-3.7,14.2h5.3h3.9h5.3l-3.7-14.2
	C149.6-215.8,151.1-218.1,151.1-220.8z"/>
<g>
	<path class="st0" d="M207.3-219.7c-6.2,0-11.2,5-11.2,11.2s5,11.2,11.2,11.2s11.2-5,11.2-11.2S213.5-219.7,207.3-219.7z
		 M207.3-199.6c-4.9,0-8.9-4-8.9-8.9c0-4.9,4-8.9,8.9-8.9c4.9,0,8.9,4,8.9,8.9C216.2-203.5,212.2-199.6,207.3-199.6z"/>
	<path class="st0" d="M207.3-214.8c-3.5,0-6.4,2.9-6.4,6.4c0,3.5,2.9,6.4,6.4,6.4s6.4-2.9,6.4-6.4
		C213.7-212,210.9-214.8,207.3-214.8z M207.3-203.4c-2.8,0-5-2.3-5-5s2.3-5,5-5s5,2.3,5,5S210.1-203.4,207.3-203.4z"/>
	<path class="st0" d="M207.3-210.8c-1.3,0-2.4,1.1-2.4,2.4c0,1.3,1.1,2.4,2.4,2.4c1.3,0,2.4-1.1,2.4-2.4
		C209.7-209.7,208.6-210.8,207.3-210.8z M207.3-206.6c-1,0-1.9-0.8-1.9-1.9c0-1,0.8-1.9,1.9-1.9s1.9,0.8,1.9,1.9
		C209.2-207.4,208.3-206.6,207.3-206.6z"/>
	<polygon class="st0" points="207.3,-208.4 207.3,-211.9 210.8,-208.4 	"/>
	<line class="st1" x1="218.6" y1="-220.6" x2="208.9" y2="-210.1"/>
	
		<rect x="215.7" y="-221.8" transform="matrix(0.7071 -0.7071 0.7071 0.7071 219.9786 89.9394)" class="st0" width="5.7" height="2.4"/>
</g>
<path class="st0" d="M254.7-210.4c0-0.1,0-0.1,0-0.2c0-2.6,0-5.1,0-7.7c0-0.2,0-0.3,0-0.5c0-0.3-0.2-0.4-0.4-0.4
	c-0.1,0-0.2,0-0.4,0.1c-2.2,0.5-4.5,0.9-6.7,1.4c-1.6,0.3-3.2,0.7-4.7,1c-0.3,0.1-0.4,0.2-0.4,0.5c0,0.7,0,1.3,0,2
	c0,2.6,0,5.1,0,7.7c0,0.8,0,1.7,0,2.5c0,1.1-0.5,1.9-1.2,2.7c-1.1,1.2-2.4,1.8-4,2.1c-1.1,0.2-2.2,0.1-3.2-0.4
	c-1.1-0.6-1.7-1.5-1.7-2.8c0-0.6,0.3-1.2,0.6-1.8c1-1.6,2.6-2.4,4.4-2.8c0.6-0.1,1.2-0.1,1.8-0.1c0-0.1,0-0.1,0-0.2
	c0-1.8,0-3.6,0-5.4c0-2.4,0-4.8,0-7.2c0-0.5,0-1,0-1.5c0-0.3,0.1-0.5,0.4-0.5c1.9-0.4,3.8-0.8,5.7-1.2c2.4-0.5,4.9-1,7.3-1.5
	c1.6-0.3,3.3-0.7,4.9-1c0.1,0,0.2,0,0.3-0.1c0.3-0.1,0.6,0.1,0.6,0.5c0,1.5,0,3.1,0,4.6c0,0.7,0,1.5,0,2.2c0,2,0,3.9,0,5.9
	c0,1.8,0,3.5,0,5.3c0,0.8-0.3,1.6-0.8,2.2c-1,1.3-2.3,2.1-3.9,2.5c-1.1,0.3-2.2,0.2-3.3-0.2c-0.6-0.2-1.2-0.6-1.6-1.1
	c-0.7-0.9-0.7-1.9-0.3-2.9c0.4-1.1,1.2-1.9,2.1-2.5c1.3-0.8,2.7-1.2,4.2-1.1C254.5-210.4,254.6-210.4,254.7-210.4z"/>
<g>
	<path class="st0" d="M299.6-202.4c0,2.5,0,5,0,7.5c0,1.1-0.4,1.5-1.5,1.7c-0.3,0-0.6,0.1-0.8,0.1c-2,0-4.1,0-6.1,0
		c-0.1,0-0.2,0-0.3,0c-0.9,0-1.2-0.3-1.2-1.2c0-2.3,0-4.6,0-6.9c0-0.7,0-0.7-0.7-0.7c-2,0-4,0-6.1,0c-0.6,0-0.6,0-0.6,0.6
		c0,2.3,0,4.7,0,7c0,0.9-0.3,1.2-1.1,1.2c-2.3,0-4.5,0-6.8,0c-0.1,0-0.3,0-0.4,0c-1.2-0.2-1.5-0.6-1.5-1.8c0-5,0-10.1,0-15.1
		c0-0.4,0.2-0.7,0.5-1c1.1-1,2.1-2,3.2-2.9c1.7-1.6,3.4-3.1,5.1-4.7c1.3-1.2,2.7-2.4,4-3.7c0.8-0.7,0.7-0.7,1.5,0
		c1.9,1.8,3.9,3.5,5.8,5.3c1.6,1.5,3.2,3,4.8,4.4c0.6,0.5,1.2,1.1,1.8,1.6c0.3,0.2,0.4,0.5,0.4,0.8
		C299.6-207.6,299.6-205,299.6-202.4z"/>
	<path class="st0" d="M277.9-224.9c0.5-0.4,1-0.9,1.4-1.3c1.7-1.5,3.3-3.1,5-4.6c1.2-1.1,2.3-1.1,3.5,0c1.9,1.8,3.9,3.6,5.8,5.3
		c1.9,1.8,3.9,3.5,5.8,5.3c1.6,1.5,3.3,3,4.9,4.5c0.3,0.3,0.6,0.5,0.8,0.8c1.2,1.4,0.6,3.5-1.1,4c-0.9,0.3-1.7,0-2.4-0.6
		c-1.9-1.8-3.8-3.5-5.8-5.3c-2.1-1.9-4.3-3.9-6.4-5.8c-1-0.9-2.1-1.9-3.1-2.8c-0.3-0.3-0.5-0.3-0.7,0c-2.3,2.1-4.5,4.1-6.8,6.2
		c-1.2,1.1-2.3,2.2-3.5,3.2c-1.2,1.1-2.4,2.2-3.7,3.3c-0.5,0.4-0.9,0.9-1.4,1.3c-1,0.9-2.5,0.8-3.5-0.2c-0.9-1-0.8-2.6,0.2-3.5
		c1.4-1.2,2.7-2.5,4.1-3.8c0.6-0.6,1.3-1.2,1.9-1.7c0.3-0.3,0.4-0.6,0.4-1c0-2.6,0-5.3,0-7.9c0-1.3,0.2-1.5,1.5-1.5c0.5,0,1,0,1.5,0
		c0.8,0,1.1,0.4,1.1,1.1c0,1.5,0,3,0,4.5c0,0.2,0,0.3,0,0.5C277.8-225,277.8-225,277.9-224.9z"/>
</g>
<g>
	<path class="st0" d="M341.2-210.9c-0.7-0.2-1.3-0.4-1.9-0.7c-4.7-2.7-9.4-5.4-14.1-8.1c-1.3-0.8-1.3-1.5,0-2.3
		c4.7-2.7,9.4-5.4,14.1-8.2c1.2-0.7,2.5-0.7,3.7,0c4.7,2.7,9.4,5.4,14.1,8.2c1.4,0.8,1.3,1.5,0,2.3c-4.6,2.7-9.3,5.4-13.9,8
		C342.6-211.4,341.8-211.2,341.2-210.9z M341.2-219c0.8-0.3,1.7-0.5,2.4-0.9c0.8-0.5,0.8-1.5,0-2.1c-1.2-1-3.7-1-4.9,0
		c-0.8,0.7-0.8,1.6,0.1,2.2C339.5-219.4,340.3-219.3,341.2-219z"/>
	<path class="st0" d="M359.4-209.5c0,2.4,0,4.8,0,7.2c0,1.4-0.6,2.5-1.8,3.2c-4.5,2.6-9.1,5.3-13.6,7.9c-1.2,0.7-1.9,0.3-1.9-1.1
		c0-4.8,0-9.7,0-14.5c0-1.5,0.6-2.6,1.9-3.3c4.5-2.6,9-5.2,13.4-7.8c1.5-0.9,2-0.5,2,1.2C359.4-214.3,359.4-211.9,359.4-209.5z
		 M358.2-203.1c-0.1-0.2-0.2-0.9-0.6-1.1c-0.4-0.2-1.1-0.2-1.5,0.1c-1.3,0.8-2.1,2-2.2,3.5c-0.1,1.3,0.8,1.9,2,1.3
		C357.3-200.1,358-201.3,358.2-203.1z M347.5-208.7c-0.1-0.3-0.2-1-0.6-1.1c-0.4-0.2-1.2-0.1-1.6,0.2c-1.3,0.8-2,2-2,3.5
		c0,1.3,0.9,1.8,2,1.2C346.6-205.7,347.3-206.9,347.5-208.7z"/>
	<path class="st0" d="M323-209.5c0-2.4,0-4.9,0-7.3c0-1.6,0.6-1.9,1.9-1.2c4.6,2.6,9.1,5.2,13.6,7.9c1.2,0.7,1.8,1.8,1.8,3.2
		c0,4.8,0,9.7,0,14.5c0,1.5-0.7,1.9-1.9,1.2c-4.6-2.6-9.2-5.3-13.7-7.9c-1.2-0.7-1.8-1.8-1.8-3.2C323-204.7,323-207.1,323-209.5z
		 M328.4-212.4c0-1.4-1.2-3.1-2.4-3.7c-1-0.5-1.8,0-1.9,1.1c-0.1,1.4,1,3.2,2.3,3.8C327.6-210.5,328.4-211.1,328.4-212.4z
		 M333.8-203.5c-0.2-1.5-0.9-2.8-2.3-3.6c-1.1-0.6-1.9,0-2,1.2c0,1.4,1.2,3.2,2.4,3.7C333-201.7,333.8-202.2,333.8-203.5z
		 M334.9-196.8c0,1.4,1.2,3.2,2.4,3.7c1,0.4,1.7-0.1,1.8-1.1c0.1-1.4-1-3.3-2.3-3.9C335.7-198.6,334.9-198.1,334.9-196.8z"/>
</g>
<g>
	<path class="st0" d="M415.3-221.2c0,0.1-0.1,0.2-0.1,0.3c-0.1,0.5-0.3,1.1-0.7,1.5c-0.6,0.7-1.3,1.3-1.9,2c-3.5-3.5-7-7-10.6-10.6
		c0,0,0,0,0,0c0.6-0.6,1.2-1.3,1.8-1.8c1.4-1.2,3.5-1.2,4.8,0.1c0.9,0.8,1.7,1.7,2.6,2.6c0.9,0.9,1.8,1.8,2.7,2.7
		c0.7,0.6,1.1,1.4,1.2,2.3c0,0,0,0.1,0,0.1C415.3-221.7,415.3-221.4,415.3-221.2z"/>
	<path class="st0" d="M396.1-222.3c0.7,0.7,1.4,1.4,2.1,2.1c-0.2,0.2-0.4,0.4-0.6,0.6c-5.5,5.5-11,11-16.5,16.5
		c-0.1,0.1-0.2,0.3-0.3,0.5c-0.7,2.3-1.4,4.6-2,6.9c0,0.1,0,0.2,0.1,0.3c0.4,0.4,0.8,0.8,1.2,1.2c0.1,0.1,0.2,0.1,0.3,0.1
		c2.2-0.7,4.4-1.3,6.6-2c0.1,0,0.3-0.1,0.4-0.2c5.7-5.7,11.4-11.4,17.1-17.1c0.1-0.1,0.1-0.1,0.1-0.2c0.8,0.8,1.6,1.6,2.4,2.4
		c-0.1,0-0.1,0.1-0.2,0.1c-5.8,5.7-11.5,11.4-17.3,17.1c-0.4,0.4-0.7,0.6-1.2,0.7c-4,1.2-8.1,2.4-12.1,3.5c-1.1,0.3-2.1-0.4-2.1-1.5
		c0-0.1,0-0.3,0.1-0.4c1.2-4.1,2.4-8.3,3.7-12.4c0.1-0.3,0.2-0.5,0.4-0.7c3.8-3.7,7.5-7.5,11.3-11.2c2.1-2.1,4.2-4.1,6.2-6.2
		C396.1-222.2,396.1-222.3,396.1-222.3z"/>
	<path class="st0" d="M385.4-198.1c-0.1-0.7-0.2-1.4-0.3-2.1c0-0.2-0.1-0.2-0.3-0.3c-0.7-0.1-1.4-0.3-2.1-0.5c-0.1,0-0.1,0-0.2,0
		c5.8-5.8,11.6-11.7,17.4-17.5c0.9,0.9,1.9,1.9,2.8,2.8C397-209.7,391.2-203.9,385.4-198.1z"/>
	<path class="st0" d="M397.8-224.1c0.8-0.7,1.6-1.5,2.4-2.3c3.7,3.7,7.3,7.3,11,11c-0.8,0.7-1.6,1.5-2.4,2.3
		C405.1-216.8,401.5-220.4,397.8-224.1z"/>
</g>
<path class="st0" d="M207.5-53.1c-3.4,0.3-5.4-1.4-5.5-4.5c-0.1-3.4,1.8-5.1,5.6-5c-1-1.4-1.6-2.9-1-4.6c0.5-1.3,1.4-2.2,2.7-2.8
	c2.7-1.3,4.9-0.4,6.5,2.7c0.6-1.6,1.6-2.8,3.3-3.1c1.4-0.3,2.7,0.1,3.9,0.9c2.4,1.6,2.8,4,1,7c1.6-0.2,3.1,0,4.3,1.2
	c0.9,1.1,1.3,2.3,1.3,3.8c-0.1,3-1.8,4.4-5.5,4.5c1.8,3.3,1.3,5.6-1.5,7.2c-2.7,1.5-4.9,0.7-6.8-2.4c-1.9,3.2-4.2,4-7,2.3
	C206.1-47.5,205.6-50,207.5-53.1z M215.7-52.8c2.7,0,5-2.3,5-5c0-2.7-2.3-5-5-5c-2.7,0-5,2.3-5,5.1C210.8-55.1,213-52.8,215.7-52.8z
	"/>
<path class="st0" d="M180.8-107c0.3,0.5,0.7,0.9,1,1.3c1.7,2.4,3.3,4.9,4.7,7.4c1,1.8,1.8,3.6,2.4,5.5c0.3,1,0.6,2.1,0.7,3.2
	c0.1,1.7-0.2,3.4-1,4.9c-1.4,2.5-3.5,4-6.3,4.5c-4.5,0.8-9-2.2-10-6.7c-0.3-1.5-0.3-2.9,0.1-4.4c0.4-1.7,1-3.3,1.8-4.9
	c1.2-2.6,2.7-5.1,4.3-7.4c0.7-1.1,1.5-2.2,2.3-3.2C180.6-106.9,180.7-106.9,180.8-107z M185.4-96.2
	C185.4-96.2,185.4-96.2,185.4-96.2c0,0.4,0,0.8,0.1,1.1c0.1,1.6,0.1,3.1-0.3,4.7c-0.4,1.7-1.2,3.3-2.1,4.8c-0.4,0.6-0.8,1.2-1.1,1.7
	c-0.1,0.2-0.2,0.4-0.3,0.7c-0.1,0.1,0,0.3,0.1,0.4c0.1,0.1,0.3,0.2,0.4,0.2c0.9,0.3,1.7,0.2,2.5-0.3c1-0.6,1.7-1.4,2.2-2.4
	c0.8-1.7,0.9-3.4,0.7-5.2c-0.2-1.4-0.7-2.8-1.3-4.1C186-95.1,185.7-95.6,185.4-96.2z"/>
<path class="st0" d="M171.5-67.6c0.8,0.4,1.6,0.8,2.3,1.3c1.2,1,2.2,2.1,3.1,3.4c1.1,1.7,1.9,3.5,2.4,5.5c0,0,0,0,0,0.1
	c0.3-0.2,0.5-0.5,0.6-0.8c0.4-0.8,0.4-1.6,0.3-2.5c-0.1-0.5-0.2-1.1-0.3-1.6c0.1,0.1,0.3,0.3,0.5,0.4c1.5,1.5,2.7,3.1,3.6,4.9
	c0.6,1.2,1.1,2.4,1.4,3.7c0.3,1,0.4,2,0.4,3.1c0,1.5-0.4,2.8-1,4.2c-0.6,1.2-1.4,2.3-2.4,3.3c-0.8,0.8-1.6,1.5-2.5,2.1
	c-0.6,0.4-1.1,0.7-1.7,1.1c0,0-0.1,0-0.2,0.1c1.4-2.9,1.6-5.9,0.8-9c-0.8-3-2.4-5.6-5-7.5c0.2,2.9-0.4,5.5-2.3,7.7
	c0.2-1.4,0-2.8-0.8-4c-0.1,0.4-0.2,0.8-0.4,1.2c-0.4,1.2-1,2.4-1.7,3.5c-0.7,1-1.2,2-1.4,3.2c-0.1,0.8-0.1,1.6,0,2.4
	c0.2,0.8,0.4,1.5,0.8,2.3c0,0.1,0,0.1,0.1,0.2c0,0,0,0,0,0.1c-0.4-0.3-0.9-0.5-1.3-0.8c-0.8-0.5-1.5-1.1-2.3-1.7
	c-1-0.8-1.9-1.8-2.5-3c-0.7-1.3-0.9-2.7-0.8-4.2c0.1-1.5,0.6-2.8,1.2-4.1c0.6-1.2,1.1-2.4,1.7-3.6c0.3-0.8,0.6-1.6,0.6-2.4
	c0,0,0-0.1,0-0.2c0.8,1.4,1.1,3,1.1,4.5c0,0,0,0,0.1,0c0.2-0.2,0.3-0.4,0.5-0.6c1-1.2,1.9-2.5,2.7-3.9c0.7-1.3,1.4-2.6,1.8-4.1
	c0.3-1.1,0.5-2.1,0.5-3.2C171.5-67,171.4-67.3,171.5-67.6C171.4-67.6,171.4-67.6,171.5-67.6z"/>
<path class="st0" d="M128.9-54.7c-1.1-3.1,0.4-5.5,3.8-6c0.3-2.7,2.3-4.2,4.5-4.2c2.1,0.1,3.5,1.5,4,4.2c1.5,0.1,2.7,0.7,3.5,2
	c0.8,1.3,0.9,2.7,0.2,4.1c0.2,0.1,0.3,0.2,0.5,0.3c2.2,1.3,3.2,3.9,2.6,6.3c-0.7,2.4-2.8,4-5.4,4.1c-1.3,0-2.6,0-4,0
	c0.2,1.3,0.4,2.4,0.6,3.6c0.2,1.1,0.4,2.3,0.6,3.4c-1.9,0-3.7,0-5.6,0c0.4-2.3,0.8-4.6,1.2-7c-1.4,0-2.8,0-4.1,0
	c-2.2-0.1-3.9-1.1-4.9-3.1c-1-2-0.8-3.9,0.5-5.7C127.3-53.4,128.1-54,128.9-54.7z"/>
<path class="st0" d="M99.8-44.8c2.2-2,4.4-4,6.7-6.1c-1.2-0.7-2.4-1.4-3.7-2.1c0.4-0.4,0.7-0.7,1-1c2.6-2.6,5.2-5.1,7.8-7.7
	c0.3-0.3,0.5-0.3,0.8-0.1c1.9,1.1,3.8,2.1,5.7,3.2c-2.3,2-4.6,3.9-7,5.9c1.2,0.7,2.3,1.3,3.6,2c-2.7,2-5.4,4-8.1,6
	c1.3,0.7,2.5,1.4,3.8,2.1c-5.2,2.8-10.2,5.5-15.3,8.2c0,0,0,0,0-0.1c2.8-2.8,5.5-5.6,8.3-8.4C102.2-43.5,101-44.1,99.8-44.8z"/>
<g>
	<path class="st0" d="M61.5-69.4c0.1,0.1,0.3,0.2,0.4,0.2c3.1,0.4,5.4,2,7.1,4.5c0.7,1,1.2,2.2,1.5,3.4c0.3,1.4,0.4,2.8,0.1,4.1
		c-0.3,1.6-0.9,3.1-1.9,4.5c-0.9,1.3-2.1,2.2-3.5,3c-0.9,0.5-1.8,0.8-2.8,1c-1,0.2-2.1,0.2-3.1,0.1c-0.8-0.1-1.7-0.3-2.5-0.6
		c-1.5-0.5-2.7-1.3-3.8-2.4c-1-1-1.8-2.2-2.3-3.6c-0.7-1.8-0.9-3.7-0.6-5.5c0.3-1.8,1.1-3.4,2.2-4.8c1-1.3,2.3-2.2,3.8-2.9
		c0.8-0.4,1.6-0.7,2.5-0.7c0.2,0,0.4-0.1,0.5-0.2C60-69.4,60.7-69.4,61.5-69.4z M59-58.7c0.5,0,0.6,0,0.5-0.4
		c-0.2-0.5-0.4-1-0.6-1.5c-0.2-0.4-0.3-0.8,0-1.2c0.4-0.4,0.7-0.9,1-1.4c0.1-0.1,0.1-0.3,0.1-0.4c-0.2,0-0.3-0.1-0.5-0.1
		c-0.6,0-1.1,0-1.7,0.1c-0.4,0.1-0.7-0.1-1-0.5c-0.3-0.5-0.7-0.9-1.1-1.4c-0.2-0.3-0.5-0.2-0.6,0.1c-0.2,0.6-0.4,1.2-0.5,1.8
		c-0.1,0.4-0.3,0.5-0.6,0.6c-0.6,0.2-1.1,0.4-1.7,0.6c-0.1,0.1-0.4,0.2-0.3,0.3c0,0.1,0.1,0.3,0.3,0.4c0.5,0.4,1,0.7,1.6,1
		c0.3,0.2,0.3,0.3,0.3,0.6c0,0.6,0,1.2,0,1.9c0,0.2,0.1,0.3,0.2,0.5c0,0,0.3-0.1,0.4-0.2c0.6-0.4,1.1-0.9,1.6-1.3
		c0.1-0.1,0.3-0.1,0.4-0.1c0.3,0.1,0.7,0.2,1,0.3C58.4-58.8,58.7-58.7,59-58.7z"/>
	<path class="st0" d="M58.5-41.9c-0.1-0.1-0.3-0.1-0.4-0.2c-0.7-0.1-1.4-0.1-2.2-0.3c-0.9-0.2-1.8-0.4-2.7-0.9
		c-0.7-0.4-0.8-0.9-0.4-1.8c0.2-0.6,0.4-1.3,0.6-1.9c0.1-0.4,0.3-0.8,0.4-1.3c0.1-0.2,0.2-0.2,0.4-0.1c1,0.6,2,1,3.1,1.3
		c1.3,0.3,2.6,0.5,3.9,0.3c0.9-0.1,1.9-0.3,2.7-0.6c0.8-0.3,1.6-0.7,2.4-1c0.2-0.1,0.3-0.1,0.4,0.1c0.2,0.7,0.4,1.3,0.6,2
		c0.2,0.6,0.4,1.2,0.5,1.9c0,0.2,0,0.4-0.1,0.5c-0.3,0.6-0.9,0.8-1.5,1c-1.2,0.4-2.4,0.6-3.7,0.7c-0.2,0-0.3,0.1-0.5,0.2
		C60.9-41.9,59.7-41.9,58.5-41.9z"/>
</g>
<g>
	<path class="st0" d="M94.4-21c0.3,0.6,0.6,1.2,0.8,1.8c0.7,2.1,0.9,4.3,0.6,6.5c-0.1,0.8-0.5,1.4-1.1,2c-0.2-0.6-0.4-1.1-0.6-1.7
		c-0.4,0.4-0.7,0.7-1,1.2c-0.3-0.7-0.4-1.2-0.7-1.7c-0.3,0.4-0.6,0.8-0.9,1.2c-0.3-0.6-0.6-1.1-0.8-1.7c-0.5,0.3-0.9,0.6-1.3,0.9
		c-0.2-0.7-0.7-0.9-1.3-1.1c-1.4-0.2-2.6,0-3.9,0.6c0.8,1.5,2.1,2,3.7,1.3c0.1,0.5,0.2,1.1,0.2,1.7c0.5-0.2,1-0.3,1.6-0.5
		c0,0.5-0.1,0.9-0.1,1.5c0.6-0.2,1.1-0.4,1.7-0.6c0.1,0.4,0.1,0.9,0.2,1.5c0.5-0.1,1-0.2,1.6-0.4c0.1,1.3-0.5,2.3-1.7,2.9
		c-0.2,1.1-0.4,2.1-0.5,3.2c-0.1,0-0.1,0-0.2,0c-0.3-0.8-0.6-1.6-0.9-2.3c-0.4-0.9-1-1.6-2-2.2c-1.9-1-3.4-2.4-4.9-4.1
		c-0.9,1.8-2.5,2.6-4,3.7c0.5-1.7,1.4-3.2,0.8-4.8c-1.5,0.4-2.9,0.9-4.4,1.3c-1.5,0.4-3,0.5-4.6,0.4c2.2-1.2,4.7-2,6.4-4.1
		c-2.3,0.6-4.6,0.6-6.9-0.2c2-0.2,3.7-0.9,5.4-2.1c-2.1-0.8-4.2-1.7-5.5-3.5c1.9,0.5,3.9,0.9,5.8,1.4c0-0.1,0.1-0.1,0.1-0.2
		c-2.4-2.1-4.3-4.5-5.4-7.6c1.2,0.8,2.3,1.6,3.4,2.3c2.1,1.3,4.3,2.3,6.6,3c0.4,0.1,0.9,0.2,1.2,0c1.8-0.9,3.4-0.4,4.9,0.8
		c1.5,1.2,3,2.3,4.6,3.5c1,0.8,1.4,0.7,2.1-0.4c0.6-0.9,0.8-1.9,0.9-2.9c0-0.1,0-0.3,0-0.4C94.2-20.9,94.3-21,94.4-21z M88.1-17
		c-1.1-1-2.1-1.9-3.2-2.9c-0.2,0.2-0.5,0.5-0.7,0.8c-0.3,0.4-0.2,0.7,0.2,1C85.5-17.2,86.7-17,88.1-17z"/>
	<path class="st0" d="M81.6-8.2c1.4,3,3.5,5.2,6.4,6.8c-0.3,0-0.4,0.1-0.6,0.1c-0.8,0-1.7-0.1-2.5,0c-1.1,0.1-1.9-0.3-2.7-1
		c-1.1-1.1-2.2-2.2-2.7-3.7c-0.1-0.4-0.1-0.6,0.3-0.9C80.4-7.3,80.9-7.8,81.6-8.2z"/>
	<path class="st0" d="M74.9-9.7c-1.5,2.6-2.1,5.3-1.2,8.3c-0.4,0-0.6,0-0.9,0c-1.2,0-1.3,0-1.3-1.3c0-2.3,0.9-4.3,2.1-6.2
		C73.8-9,74-9.3,74.2-9.5c0.2-0.2,0.4-0.2,0.6-0.4C74.8-9.8,74.8-9.7,74.9-9.7z"/>
	<path class="st0" d="M74.3-5.9c1.4,0.7,2.8,0.7,4.3,0.3c0.3,0.6,0.6,1.2,0.9,1.8c-1.7,0.5-3.4,0.5-5-0.1c-0.1,0-0.3-0.2-0.3-0.3
		C74.2-4.8,74.3-5.3,74.3-5.9z"/>
	<path class="st0" d="M74.3-3c1.9,0.7,3.8,0.6,5.7,0.1c0.1,0,0.4,0.1,0.5,0.2c0.4,0.4,0.8,0.9,1.3,1.3c-0.2,0-0.3,0-0.4,0
		c-2,0-3.9,0-5.9,0c-0.6,0-0.8-0.1-0.9-0.7C74.5-2.3,74.4-2.6,74.3-3z"/>
	<path class="st0" d="M83.5-23.1c-0.9,0.2-1.7,0.3-2.6,0.5c-1.1-1.2-2-2.6-1.8-4.5C80.2-25.4,81.6-24,83.5-23.1z"/>
	<path class="st0" d="M75.3-8.5c0.9,0.1,1.7,0.3,2.5,0.4c-0.2,0.5-0.4,1-0.7,1.6c-0.1,0.1-0.3,0.2-0.4,0.2c-0.7-0.1-1.4-0.2-2.2-0.3
		C74.9-7.4,75.1-8,75.3-8.5z"/>
	<path class="st0" d="M78.6-10.9c0,1.7-1,2.2-2.7,1.3C76.6-10.5,77.7-10.3,78.6-10.9z"/>
</g>
<g>
	<path class="st0" d="M128.7,2.1c-0.2-1.2-0.4-2.2-0.5-3.3c-0.1-0.5-0.2-0.9-0.8-1c-0.4-0.1-0.9-0.2-1.2-0.5
		c-0.7-0.5-1.2-0.3-1.8,0.2c-0.8,0.6-1.6,1.1-2.3,1.7c-0.8-0.8-1.6-1.6-2.4-2.4c0.6-0.8,1.2-1.8,1.9-2.7c0.3-0.4,0.3-0.6,0.1-1.1
		c-0.3-0.6-0.5-1.2-0.8-1.8c-0.1-0.2-0.3-0.4-0.5-0.5c-1-0.2-2.1-0.4-3.1-0.6c-0.2,0-0.5-0.3-0.5-0.5c0-1,0-2,0-3
		c1.1-0.2,2.1-0.4,3.1-0.5c0.6-0.1,1.1-0.3,1.2-1c0-0.4,0.2-0.8,0.4-1c0.5-0.7,0.4-1.2-0.1-1.8c-0.5-0.7-1-1.4-1.5-2.1
		c-0.2-0.3-0.2-0.5,0-0.7c0.7-0.7,1.3-1.4,2.1-2.1c1.2,0.8,2.3,1.6,3.3,2.4c0.8-0.3,1.6-0.7,2.3-0.9c0.4-0.1,0.6-0.4,0.6-0.8
		c0.1-1,0.3-1.9,0.4-2.9c0-0.2,0.1-0.3,0.2-0.5c1,0,1.9,0,2.9,0c0.4,0,0.5,0.2,0.5,0.5c0.2,1,0.3,2.1,0.6,3.1c0,0.2,0.2,0.4,0.4,0.5
		c0.7,0.3,1.4,0.6,2.1,0.9c0.2,0.1,0.5,0,0.7-0.1c1-0.7,2-1.4,2.9-2.1c0.8,0.8,1.6,1.6,2.4,2.4c-0.6,0.9-1.3,1.8-2,2.8
		c-0.3,0.4-0.3,0.7-0.1,1.1c0.3,0.5,0.5,1.1,0.7,1.7c0.1,0.4,0.3,0.5,0.6,0.6c1.2,0.2,2.3,0.4,3.6,0.6c0,1,0,2.1,0,3.1
		c0,0.1-0.3,0.4-0.5,0.4c-1,0.2-2,0.4-3,0.6c-0.4,0.1-0.6,0.2-0.7,0.6c-0.2,0.6-0.4,1.1-0.7,1.6c-0.3,0.5-0.2,0.9,0.1,1.3
		c0.7,0.9,1.3,1.8,1.9,2.6c-0.8,0.8-1.6,1.6-2.4,2.4c-0.9-0.6-1.9-1.3-2.8-2c-0.3-0.2-0.6-0.2-0.9-0.1c-0.6,0.3-1.2,0.5-1.8,0.8
		c-0.2,0.1-0.5,0.4-0.5,0.6c-0.2,1-0.4,2-0.6,3c-0.1,0.4-0.2,0.5-0.6,0.5C130.7,2.1,129.8,2.1,128.7,2.1z M130.5-19.1
		c-4.2,0-7.5,3.3-7.6,7.5c0,4.1,3.4,7.5,7.5,7.6c4.1,0,7.5-3.4,7.5-7.5C138-15.7,134.6-19.1,130.5-19.1z"/>
	<path class="st0" d="M124.8-11.7c0-3.1,2.5-5.6,5.7-5.6c3.1,0,5.6,2.5,5.6,5.6c0,3.1-2.6,5.7-5.7,5.7C127.3-6,124.8-8.5,124.8-11.7
		z M128.1-11.6c0,1.3,1.1,2.4,2.4,2.4c1.3,0,2.4-1.1,2.4-2.4c0-1.3-1.1-2.4-2.4-2.4C129.1-14,128.1-13,128.1-11.6z"/>
</g>
<path class="st0" d="M170.7-26.9c5.6,0,10.4,4,11.4,9.4c0.4,2.2,0.2,4.4-0.6,6.5c-1,2.6-2.4,4.9-4.1,7c-1.5,1.8-3.1,3.5-5,4.9
	c-0.4,0.3-0.9,0.6-1.4,0.7c-0.5,0.1-1-0.1-1.4-0.3c-1.3-0.8-2.5-1.9-3.6-3c-2.2-2.3-4.1-4.9-5.4-7.8c-0.7-1.4-1.2-2.9-1.3-4.5
	c-0.3-2.2,0.1-4.3,1.1-6.3c1.8-3.6,4.7-5.7,8.6-6.4C169.5-26.8,170.1-26.9,170.7-26.9z M169.8-5.7c0-0.7-0.1-1.4-0.1-2.1
	c-0.4-2.9-1.9-4.9-4.5-6.2c-1.2-0.6-2.5-0.9-3.9-1.1c-0.5-0.1-1-0.1-1.6-0.2c0.1,0.5,0.2,0.9,0.2,1.4c0.3,1.5,0.7,3,1.5,4.4
	C163.4-6.1,166.6-5.3,169.8-5.7z M171.8-5.7c0.2,0,0.2,0.1,0.3,0.1c1,0.1,2,0.1,2.9-0.1c2.3-0.4,4-1.7,5.1-3.7
	c0.8-1.4,1.3-3,1.6-4.6c0.1-0.4,0.1-0.8,0.2-1.2c-0.2,0-0.3,0-0.4,0c-1.4,0.2-2.8,0.4-4.2,0.9c-1.4,0.5-2.7,1.3-3.7,2.4
	c-1,1.2-1.5,2.6-1.7,4.1C171.8-7.1,171.8-6.4,171.8-5.7z"/>
<g>
	<path class="st0" d="M196.4-27.4c1.9,0.6,3.6,1.1,5.3,1.6c0.3,0.1,0.6,0.4,0.8,0.6c4.5,4.5,9,8.9,13.4,13.4
		c0.2,0.2,0.4,0.5,0.6,0.9c0.8-0.9,1.5-1.6,2.2-2.4c0.7,0.7,1.3,1.4,1.9,2.1c-1,0.9-2.1,1.9-3.2,2.9c1.7,1.7,3.3,3.2,4.8,4.7
		c-0.7,0.7-1.3,1.3-1.8,1.9c-1.5-1.6-3.1-3.1-4.6-4.7c-1.1,1.2-2.2,2.2-3.2,3.3c-0.7-0.8-1.3-1.4-2-2.2c0.6-0.5,1.3-1.1,2-1.7
		c-0.4-0.4-0.6-0.6-0.8-0.9c-4.5-4.5-9-8.9-13.4-13.4c-0.3-0.3-0.6-0.8-0.7-1.3C197.2-24,196.8-25.6,196.4-27.4z"/>
	<path class="st0" d="M214.9-15c-1.4-1.4-2.7-2.7-4.1-4.1c2.1-2.1,4.2-4.2,6.4-6.3c0.1-0.1,0.2-0.2,0.4-0.2c1.7-0.5,3.5-1.1,5.4-1.6
		c-0.5,2-1,3.8-1.5,5.6c0,0.1-0.1,0.3-0.2,0.4C219.1-19.2,217-17.1,214.9-15z"/>
	<path class="st0" d="M201.9-7.8c-1.2-1.1-2.2-2.1-3.3-3.1c0.7-0.6,1.4-1.2,2.1-1.8c0.5,0.6,1.2,1.3,2,2.1c0.8-0.8,1.4-1.5,2-2.2
		c1.4,1.4,2.7,2.7,4.1,4.1c-0.6,0.6-1.3,1.2-2.1,1.9c0.8,0.7,1.5,1.3,2.2,2c-0.8,0.7-1.4,1.3-2.1,2.1c-1-1.1-2-2.1-3-3.2
		c-1.6,1.6-3.1,3.2-4.7,4.8c-0.6-0.7-1.2-1.4-1.7-2C198.6-4.6,200.2-6.2,201.9-7.8z"/>
</g>
<g>
	<path class="st0" d="M198,32.6c-1.5-0.8-2.3-2.1-2.7-3.7c-0.1,0.8-0.2,1.5-0.2,2.4c-1-0.6-1.3-1.4-1.4-2.4
		c-0.1-1.7,0.3-3.3,0.8-4.8c0.1-0.3,0.2-0.6,0.2-1c0.1-2.1,1-3.1,3.1-3.6c7.7-1.8,14.4-5.5,20.2-10.8c0.1-0.1,0.2-0.2,0.2-0.3
		c0,0,0.1,0,0.1,0c0.7,2.1,0.2,3.9-1.3,5.3c-1,0.9-2.1,1.8-3.2,2.5c-2.8,1.7-5.9,2.9-9,3.9c-0.2,0.1-0.4,0.2-0.6,0.2
		c5.2-0.5,10.1-2.2,14.8-4.5c-0.2,2.2-1.4,3.6-3.1,4.6c-2,1.1-4.1,1.6-6.4,1.9c-1.9,0.2-3.8,0.4-5.8,0.5c4.5,0.6,8.7,0.4,13-0.5
		c-0.4,1.6-1.3,2.5-2.7,3c-1.5,0.6-3.2,0.7-4.8,0.7c-0.9,0-1.9-0.1-2.8-0.2c-0.9-0.1-1.9-0.2-2.8-0.4c0,0.1,0,0.2,0,0.2
		c3.1,0.7,6.2,1.3,9.3,2c-0.9,1.1-2.1,1.7-3.5,1.5c-1.5-0.2-3-0.5-4.4-0.8c-0.8-0.2-1.6-0.5-2.4-0.8c0,0.1-0.1,0.1-0.1,0.2
		c1.9,1.1,3.9,2.3,5.8,3.4c-0.8,0.6-1.7,0.8-2.7,0.6c-1.8-0.3-3.2-1.3-4.5-2.3c-0.3-0.2-0.6-0.5-0.9-0.7c0,0-0.1,0.1-0.1,0.1
		c1,1.3,2,2.5,3.1,3.9c-3,0.1-4.5-1.6-5.5-4.1c-0.1,0-0.1,0.1-0.2,0.1c0.3,1.2,0.5,2.4,0.8,3.5C198.2,32.7,198.1,32.7,198,32.6z"/>
</g>
<g>
	<path class="st0" d="M395.5,72.3c-0.9-0.1-1.7-0.2-2.6-0.3c-0.9-0.1-1.7-0.1-2.6-0.2c-0.3,0-0.6-0.2-0.7-0.4c-2-2-4-4-6-6
		c-0.2-0.2-0.3-0.4-0.1-0.7c0.2-0.2,0.3-0.5,0.4-0.7c0.2-0.5,0.5-0.9,0.9-1.2c1.1-1.1,1.9-2.4,2.4-3.8c0-0.1,0.1-0.2,0.2-0.4
		c0.1,0.1,0.3,0.2,0.4,0.3c2.4,2.4,4.8,4.8,7.2,7.2c0.3,0.3,0.4,0.6,0.4,1c0.1,1.6,0.3,3.2,0.4,4.7c0,0.1,0,0.2,0.1,0.3
		c0,0.1,0,0.2,0,0.3C395.7,72.3,395.6,72.3,395.5,72.3z"/>
	<path class="st0" d="M360.3,71.9c0.1-0.8,0.2-1.7,0.3-2.5c0.1-0.9,0.1-1.7,0.2-2.6c0-0.2,0.1-0.5,0.3-0.6c2.4-2.4,4.9-4.9,7.3-7.3
		c0.1-0.1,0.1-0.1,0.3-0.2c0.1,0.2,0.1,0.4,0.1,0.5c0.3,1.3,0.7,2.5,1.7,3.5c0.3,0.3,0.7,0.7,1.1,0.9c0.4,0.2,0.7,0.5,0.9,0.9
		c0.4,0.7,0.5,0.5-0.1,1.1c-1.9,1.9-3.8,3.8-5.7,5.7c-0.3,0.3-0.7,0.5-1.2,0.5c-1.6,0.1-3.1,0.3-4.7,0.4c-0.1,0-0.2,0-0.2,0.1
		c-0.1,0-0.2,0-0.3,0C360.3,72.2,360.3,72,360.3,71.9z"/>
	<path class="st0" d="M395.8,38.5c-0.1,0.5-0.4,0.8-0.8,1.2c-2.1,2.1-4.1,4.2-6.2,6.3c-0.3,0.3-0.3,0.4,0,0.7
		c0.7,0.7,1.5,1.4,2.2,2.2c0.2,0.2,0.3,0.5,0.4,0.8c0.1,0.5-0.2,0.8-0.6,1c-0.4,0.2-0.8,0.1-1.2-0.2c-0.3-0.2-0.5-0.5-0.8-0.8
		c-0.3-0.3-0.4-0.3-0.7,0c-0.3,0.3-0.7,0.7-1,1c-0.2,0.2-0.3,0.2-0.5,0c-1.3-2.1-3.2-3.3-5.6-4c-0.1,0-0.2-0.1-0.4-0.1
		c0.1-0.1,0.2-0.3,0.3-0.4c0.6-0.6,1.2-1.2,1.8-1.8c0.2-0.2,0.2-0.4,0-0.6c-0.2-0.2-0.5-0.5-0.7-0.7c-0.5-0.5-0.5-1.2-0.1-1.6
		c0.4-0.4,1.1-0.4,1.6,0.1c0.7,0.7,1.4,1.4,2.2,2.2c0.3,0.3,0.4,0.3,0.7,0c2.1-2.1,4.1-4.1,6.2-6.2c0.3-0.3,0.8-0.6,1.2-0.8
		c0.2,0,0.4,0,0.6,0c0.7,0.2,1.1,0.6,1.3,1.3C395.8,38.2,395.8,38.4,395.8,38.5z"/>
	<path class="st0" d="M362.2,36.7c0.4,0.3,0.8,0.5,1.2,0.8c2.1,2,4.1,4.1,6.1,6.1c0.4,0.4,0.4,0.4,0.8,0c0.7-0.7,1.4-1.4,2.2-2.2
		c0.4-0.3,0.9-0.4,1.3-0.2c0.4,0.2,0.6,0.7,0.5,1.1c-0.1,0.3-0.2,0.5-0.4,0.7c-0.2,0.2-0.4,0.3-0.5,0.5c-0.4,0.4-0.4,0.4,0,0.8
		c0.6,0.6,1.2,1.2,1.8,1.8c0.1,0.1,0.2,0.2,0.3,0.4c-0.2,0.1-0.3,0.1-0.5,0.2c-2,0.5-3.7,1.5-5,3.1c-0.2,0.3-0.4,0.5-0.5,0.8
		c-0.1,0.2-0.3,0.3-0.5,0.1c-0.3-0.4-0.7-0.7-1-1c-0.3-0.3-0.4-0.3-0.7,0c-0.2,0.2-0.5,0.5-0.7,0.7c-0.5,0.4-1,0.5-1.5,0
		c-0.4-0.4-0.5-1-0.1-1.5c0.3-0.4,0.7-0.7,1.1-1.1c0.4-0.4,0.8-0.9,1.3-1.3c0.2-0.2,0.2-0.3,0-0.5c-0.8-0.8-1.7-1.7-2.5-2.5
		c-1.4-1.4-2.8-2.8-4.2-4.2c-0.2-0.2-0.3-0.5-0.4-0.8c0-0.2,0-0.3,0-0.5c0.2-0.7,0.6-1.1,1.3-1.3C361.8,36.7,362,36.7,362.2,36.7z"
		/>
	<path class="st0" d="M370.5,55.4c0-0.6-0.1-1.2,0-1.8c0.2-1.8,1.2-3.1,2.7-4c3.3-1.9,6.7-1.8,10,0.1c1.7,1,2.6,2.7,2.6,4.7
		c0,1.1,0.1,2.3-0.2,3.4c-0.5,1.6-1.4,3-2.7,4.1c-0.2,0.2-0.4,0.4-0.5,0.7c-0.2,0.9-0.7,1.5-1.6,1.8c-1.7,0.6-3.5,0.6-5.3,0
		c-0.9-0.3-1.4-0.9-1.7-1.8c-0.1-0.2-0.2-0.4-0.4-0.5c-1-0.1-1.6-0.7-2.1-1.6c-0.5-1-0.7-2-0.8-3.1
		C370.4,56.8,370.4,56.1,370.5,55.4C370.4,55.4,370.4,55.4,370.5,55.4z M374.1,57.4c-0.2,0-0.5,0-0.7,0.1c-0.9,0.2-1.1,0.6-0.8,1.5
		c0.5,1.4,1.9,1.9,3.2,1.7c0.7-0.2,1.2-0.6,1.4-1.3c0.2-0.6,0-0.9-0.5-1.2C375.8,57.6,375,57.5,374.1,57.4z M382.2,57.4
		c-1,0.1-1.7,0.2-2.4,0.5c-0.6,0.3-0.8,0.7-0.7,1.3c0.1,0.6,0.5,1.1,1.1,1.3c1.4,0.5,3.3-0.3,3.5-2.1c0.1-0.4-0.1-0.7-0.5-0.8
		C382.8,57.5,382.4,57.5,382.2,57.4z M379,61.7c-0.2-0.5-0.3-0.9-0.5-1.4c-0.2-0.4-0.6-0.4-0.8,0c-0.2,0.4-0.3,0.9-0.4,1.3
		c0,0.1,0.1,0.3,0.2,0.4c0.1,0,0.3-0.1,0.4-0.2c0.2-0.2,0.3-0.1,0.4,0c0.1,0.1,0.3,0.2,0.4,0.1C378.8,62,378.8,61.9,379,61.7z"/>
</g>
<g>
	<path class="st0" d="M404.7,105.1c0,1,0,2.1,0,3.1c-0.1,0.2-0.1,0.4-0.2,0.6c-0.3,2.5-1.1,4.8-2.2,6.9c-0.3,0.5-0.5,1.1-0.6,1.6
		c-0.3,1.6-0.6,3.3-0.9,4.9c-0.4,2.4-0.9,4.7-1.3,7.1c-12.1,0-24.1,0-36.2,0c-0.2-0.9-0.3-1.7-0.5-2.6c-1-4.7-1.3-9.5-3.6-13.8
		c-0.7-1.4-0.8-3.1-1.2-4.7c0-1,0-2.1,0-3.1c0.4-2.5,1.2-4.8,2.5-6.9c0.1-0.2,0.1-0.4,0.1-0.6c0.4-1.9,1.5-3.1,3.4-3.5
		c1.2-0.2,2.5-0.2,3.7-0.2c9.8,0,19.6,0,29.4,0c2.9,0,4.5,1.3,5.1,4.1c0,0.1,0,0.3,0.1,0.4C403.6,100.5,404.3,102.8,404.7,105.1z
		 M380.5,115.9c-0.4,0.5-0.6,0.9-0.9,1.2c-1.1,1-2.2,1.9-3.4,2.8c-0.2,0.2-0.8-0.1-1.2-0.2c0.1-0.4,0.2-0.8,0.4-1.1
		c0.2-0.3,0.6-0.4,0.9-0.6c2.7-2,4.5-4.7,4.2-8.1c-0.4-4.4-2.8-7.7-6.9-9.6c-3.4-1.6-7-1.8-10.6-1.7c-0.7,0-1.1,0.3-1.5,0.9
		c-3,5.3-2.4,10.4,0.3,15.6c0.3,0.5,0.5,1.1,0.6,1.6c0.3,1.3,0.5,2.6,0.7,3.9c0.4,2.4,0.9,4.7,1.3,7.1c5.4,0,10.7,0,16,0
		C380.5,123.8,380.5,120,380.5,115.9z M382.2,127.8c5.2,0,10.4,0,15.5,0c0.2,0,0.5-0.4,0.6-0.6c0.5-2.5,0.9-5.1,1.5-7.6
		c0.3-1.5,0.6-3.1,1.3-4.5c2.6-5.2,3.2-10.3,0.1-15.5c-0.2-0.4-0.8-0.8-1.3-0.8c-2,0-3.9,0-5.9,0.2c-3.3,0.4-6.4,1.6-8.7,4.2
		c-1.9,2.2-3.2,4.7-3,7.7c0.2,3.4,2,6,4.9,7.7c0.5,0.3,1,0.6,0.6,1.2c-0.3,0.6-0.9,0.5-1.3,0.1c-1.2-1.1-2.4-2.2-3.7-3.3
		c-0.2-0.2-0.3-0.4-0.6-0.6C382.2,120,382.2,123.8,382.2,127.8z"/>
	<path class="st0" d="M394.6,107.5c0.3-0.1,0.6-0.1,0.8-0.3c1.2-0.8,2.2-0.9,3.1-0.1c0.9,0.7,1.3,2.1,0.7,3.2c-0.5,1.1-1.2,2-1.8,3
		c-0.2,0.2-0.8,0.4-1.1,0.2c-1-0.4-2-0.8-2.9-1.4c-1-0.6-1.5-1.6-1.4-2.8c0.2-1,0.7-1.6,1.7-1.9c0.3-0.1,0.5-0.1,0.8-0.1
		C394.6,107.4,394.6,107.5,394.6,107.5z"/>
</g>
<g>
	<path class="st0" d="M277.6,111.6c0-13.2,10.9-24,24.1-23.9c13.1,0.1,23.8,10.9,23.8,24c0,13.2-10.9,23.9-24.1,23.9
		C288.3,135.5,277.5,124.7,277.6,111.6z M281.2,111.6c0,11.2,9.1,20.3,20.3,20.3c11.1,0,20.2-9.1,20.2-20.2
		c0-11.2-9.1-20.3-20.3-20.3C290.3,91.4,281.2,100.4,281.2,111.6z"/>
	<path class="st0" d="M299.7,106.1c1.3,0,2.6,0,3.9,0c0.1-0.1,0.2-0.1,0.2-0.2c0.1-2.6,0.5-3.4,3.9-3.4c2.6,0,5.1,0,7.7,0
		c2.5,0,3.2,0.8,3.1,3.3c0,1.1,0.1,2.3-0.2,3.4c-0.7,2.6-2.9,3.8-5.4,4.2c-3.3,0.5-6.3-0.1-8.3-3.1c-0.5-0.8-5.2-0.7-5.7,0.1
		c-2.2,3.6-8.4,4.1-11.7,1.5c-1.3-1-2.1-2.3-2.1-4c0-1.1-0.1-2.3,0-3.4c0.1-1.1,0.8-1.8,1.9-1.8c3.5-0.1,7.1-0.1,10.6,0
		c1.4,0,2,0.8,2.1,2.2C299.6,105.2,299.6,105.6,299.7,106.1z"/>
	<path class="st0" d="M294,117.1c2.4,4.7,11.7,5.6,15.1,0c1.1,0.4,2.1,0.8,3.2,1.3c-1.7,4-6,6.5-11.3,6.3c-4.5-0.2-8.3-1.9-10.5-6.3
		C291.8,117.8,292.8,117.5,294,117.1z"/>
</g>
<g>
	<path class="st0" d="M12.5,8.4c1-3.4,3.1-5.6,6.7-6c3.1-0.4,5.6,0.9,7.3,3.5c1.6,2.4,1.8,5.9-0.3,8.7c0,0,0.1,0,0.1,0
		c1.1,0.3,2.3,0.7,3.5,0.8c0.4,0,0.8,0,1.2,0c0.5-0.1,0.6-0.3,0.4-0.8c-0.1-0.3-0.3-0.5-0.5-0.8c-0.6-0.7-1.3-1.4-2-2
		c0,0-0.1-0.1-0.1-0.1c0,0,0,0,0.1,0c1.6,0.9,3.1,1.9,4.5,3c0.4,0.3,0.7,0.7,1,1.1c0.1,0.2,0.2,0.4,0.3,0.5c0.1,0.3,0,0.5-0.3,0.7
		c-0.2,0.1-0.4,0.1-0.7,0.1c-0.8,0.1-1.6-0.1-2.4-0.3c-2.3-0.5-4.6-1.2-6.8-2.1c-4.7-1.8-9.3-3.9-13.7-6.5c-1.5-0.9-3-1.8-4.3-3
		c-0.3-0.3-0.6-0.6-0.9-1C5.5,4.3,5.4,4.1,5.3,3.9c-0.1-0.3,0-0.5,0.3-0.6c0.2-0.1,0.5-0.1,0.7-0.1c0.9,0,1.8,0.1,2.6,0.3
		c1.4,0.3,2.7,0.7,4,1.1c0,0,0.1,0,0.1,0c-0.4,0-0.7-0.1-1.1-0.1c-0.8-0.1-1.6-0.2-2.4-0.1C9.3,4.5,9.1,4.5,9,4.6
		C8.7,4.8,8.6,5,8.8,5.3C8.8,5.5,9,5.6,9.1,5.8c0.4,0.5,1,1,1.6,1.3c0.6,0.4,1.2,0.8,1.8,1.2C12.5,8.4,12.5,8.4,12.5,8.4z M25.8,6.3
		c0,0,0-0.1-0.1-0.1C23.1,2.6,17.8,2.5,15,6c-0.7,0.9-1.1,1.8-1.3,2.9c0,0.1,0,0.1,0,0.2c0.2,0.1,0.4,0.2,0.6,0.4
		c0.7-2.5,2.3-4.3,4.8-4.9C21.7,3.8,23.9,4.5,25.8,6.3z"/>
	<path class="st0" d="M12.4,10.6c0.3,0.1,0.5,0.3,0.7,0.4c0.3,0.1,0.4,0.3,0.5,0.7c0.2,1.1,0.7,2,1.4,2.9c-0.5-0.9-0.9-1.9-1-3
		c3.4,1.8,6.9,3.3,10.5,4.6c-2,1.5-5.1,2.1-7.9,0.8c-1.4-0.7-2.5-1.7-3.3-3.1C12.9,12.9,12.5,11.8,12.4,10.6z"/>
</g>
<g>
	<path class="st0" d="M30.2,50.6c1.5,2.6,3,5.3,4.6,8c-1.2,0.8-1.9,1.9-2,3.4c-0.2,0-0.4,0-0.6,0c-2.6,0-5.2,0-7.9,0
		c-0.2,0-0.4,0-0.7,0c0-0.3,0-0.6,0-0.9c0-0.2,0.1-0.3,0.1-0.5c0.5-4.1,2.4-7.3,5.8-9.6c0.2-0.1,0.3-0.3,0.5-0.4
		C30.2,50.6,30.2,50.6,30.2,50.6z"/>
	<path class="st0" d="M49.9,62c-0.3,0-0.7,0-1,0c-2.7,0-5.4,0-8.1,0c-0.1-1.5-0.7-2.6-2-3.4c1.5-2.7,3-5.3,4.6-8c0,0,0.1,0,0.1,0
		c0.1,0.1,0.3,0.2,0.4,0.3c2.6,1.7,4.4,4,5.3,7c0.3,1,0.5,2.1,0.7,3.2C49.9,61.4,49.9,61.7,49.9,62z"/>
	<path class="st0" d="M35.9,75.1c-1.2-0.3-2.3-0.5-3.4-0.8c-0.7-0.2-1.4-0.6-2.2-0.9c1.6-2.7,3.1-5.3,4.6-8c1.3,0.7,2.6,0.7,3.9,0
		c1.5,2.7,3,5.3,4.6,7.9c-1.4,0.8-2.8,1.3-4.2,1.6c-0.5,0.1-0.9,0.1-1.4,0.2C37.1,75.1,36.5,75.1,35.9,75.1z"/>
	<path class="st0" d="M39.4,62c0,1.4-1.2,2.7-2.6,2.6c-1.4,0-2.6-1.2-2.6-2.7c0-1.4,1.2-2.6,2.6-2.6C38.2,59.3,39.4,60.5,39.4,62z"
		/>
</g>
<path class="st0" d="M90.1,22.3c-0.2,0.1-0.4,0.3-0.6,0.4c-3.8,2.4-7.8,3.4-12.2,1.8c-2.5-0.8-4.3-2.4-5-5c-0.8-2.9,0.2-5.9,2.7-7.6
	c2.8-1.9,5.9-2.3,9.1-1.6c2,0.4,3.9,1.2,5.6,2.4c0.1,0.1,0.2,0.1,0.4,0.2c0.9-0.9,1.7-1.7,2.6-2.6c0.2-0.2,0.6-0.4,0.9-0.4
	c1.7,0,3.4,0,5.2,0c0,5.1,0,10.1,0,15.2c-0.2,0-0.4,0-0.5,0c-1.5,0-3,0-4.5,0c-0.4,0-0.7-0.1-1-0.4C91.8,24,90.9,23.2,90.1,22.3z
	 M73.9,17.8c0,0.1,0,0.4,0.1,0.7c0.1,0.5,0.6,0.9,1.1,0.8c0.5-0.1,0.8-0.5,0.8-1.1c0-2.1,0.6-3.2,2.6-3.8c1-0.3,2.2-0.4,3.3-0.6
	c0.6-0.1,1-0.4,1-1c0-0.5-0.4-0.9-1-1c-2,0-4,0.4-5.7,1.6C74.6,14.5,73.9,15.9,73.9,17.8z M92.9,15.7c0-1,0-1.8,0-2.9
	c-0.6,0.6-1,1.1-1.5,1.5c-0.5,0.4-0.5,0.9-0.3,1.4C91.8,15.7,92.3,15.7,92.9,15.7z M93,22.5c0-1.1,0-2,0-2.9c-0.6,0-1.2,0-2,0
	c0.1,0.4,0.1,0.9,0.3,1.1C91.8,21.3,92.3,21.8,93,22.5z"/>
<g>
	<path class="st0" d="M39.3-48.2c-1.8,1.5-3.5,1.5-5.3-0.1c-0.7,0.7-1.6,1.3-2.7,1.1c-1-0.2-1.9-0.6-2.9-1c-1.3,1.3-3.2,1.4-5,1
		c-1.5-0.3-2.7-1.7-2.9-3.2c-0.2-1.6,0.6-3.1,2.1-3.8c0.2-0.1,0.5-0.3,0.6-0.6c0.9-2.5,3.2-3.5,5.7-2.5c0.1,0,0.1,0.1,0.2,0.1
		c2.4-2.7,7.4-2.6,9.6,0c1-0.5,2.1-0.6,3.3-0.3c1.3,0.4,2.2,1.2,2.6,2.6c0.1,0.2,0.3,0.5,0.5,0.6c2,1,2.8,2.8,2.2,4.6
		c-0.6,1.8-2.7,3-4.7,2.5C41.6-47.4,40.5-47.8,39.3-48.2z"/>
	<path class="st0" d="M29.1-44.2c0.1,1.1-0.1,1.8-1.1,2c0.5,0.1,0.9,0.2,1.5,0.4c0.2-1.4,0.4-2.7,0.5-3.9c0.9,0,1.8-0.1,2.7-0.1
		c-0.1,1.4-0.3,2.8-0.5,4.3c1.1,0,2.3,0,3.5,0c-0.2-1.5-0.3-2.9-0.5-4.3c0.9,0.1,1.8,0.2,2.7,0.3c0.2,1.1,0.3,2.4,0.5,3.8
		c0.5-0.1,1-0.2,1.5-0.3c-1-0.2-1.3-0.9-1.1-1.9c1.4,0.2,2.7,0.4,3.9,1c0.7,0.4,1,1,0.5,1.7c-0.4,0.5-1,1-1.6,1.3
		c-1.6,0.8-3.4,1-5.1,1.1c-3.1,0.2-6.2,0.2-9.2-0.7c-0.7-0.2-1.5-0.6-2.1-1c-1.2-0.9-1-2.1,0.4-2.6C26.8-43.7,27.9-43.9,29.1-44.2z"
		/>
	<path class="st0" d="M24.5-32.2c0-1.2,0-2.4,0-3.7c0.2-0.1,0.4-0.1,0.6-0.2c1.2-0.1,2-0.7,2.7-1.6c0.2-0.3,0.4-0.4,0.8-0.3
		c0.7,0.2,1.5,0.3,2.4,0.4c-0.7,1-1.3,1.8-2,2.7c3.3,0,6.5,0,9.8,0c-0.6-0.9-1.2-1.8-1.9-2.7c1-0.2,1.8-0.3,2.6-0.5
		c0.1,0,0.4,0.1,0.5,0.2c0.7,1.1,1.7,1.8,3.1,1.8c0.1,0,0.2,0.1,0.3,0.1c0,1.2,0,2.4,0,3.7C37.2-32.2,30.9-32.2,24.5-32.2z"/>
</g>
<path class="st0" d="M117,17.5c0-0.1,0-0.1,0-0.2c0.1-0.1,0.2-0.1,0.3-0.2c0.4-0.3,0.9-0.6,1.2-1c1.3-1.5,2.6-3,4-4.5
	c0.8-0.9,1.7-1.8,2.8-2.4c0.4-0.3,0.9-0.5,1.5-0.5c1.5-0.1,2.8,0.5,4,1.3c0.4,0.3,0.8,0.7,1.2,1c0.4-0.4,0.8-0.7,1.3-1.1
	c1-0.8,2.2-1.3,3.4-1.4c0.9-0.1,1.8,0,2.7,0.5c1,0.5,1.8,1.3,2.5,2.1c1,1.1,1.9,2.3,2.8,3.4c0.6,0.7,1.2,1.5,1.9,2.1
	c0.2,0.1,0.4,0.3,0.5,0.4c0,0.1,0,0.1,0,0.2c-0.3,0.3-0.5,0.6-0.8,0.9c-1,1.3-2.1,2.7-3.1,4c-1.1,1.4-2.3,2.8-3.8,4
	c-0.5,0.4-1.1,0.9-1.8,1c-0.9,0.2-1.9,0.3-2.9,0.5c-1.9,0.2-3.8,0.2-5.6-0.2c-1.3-0.3-2.5-0.7-3.6-1.4c-1.4-0.9-2.5-2-3.5-3.3
	c-0.9-1-1.7-2.1-2.6-3.1c-0.6-0.7-1.2-1.4-2.1-1.8C117.2,17.6,117.1,17.5,117,17.5z M143.5,17.6c-0.1,0-0.2-0.1-0.3-0.1
	c-0.4-0.1-0.9-0.2-1.3-0.4c-1-0.4-2-0.9-3.1-1.3c-0.5-0.2-1-0.3-1.5-0.3c-0.8,0-1.6,0.2-2.3,0.4c-0.6,0.1-1.2,0.3-1.8,0.5
	c-0.5,0.1-1,0.1-1.4-0.1c-1-0.3-2.1-0.6-3.1-0.9c-0.8-0.2-1.7-0.2-2.4,0.2c-0.7,0.3-1.3,0.6-1.9,1c-0.9,0.5-1.8,0.9-2.7,1.2
	c-0.1,0-0.1,0-0.2,0.1c3.4,1.9,7,2.9,10.8,2.9C136.1,20.7,140,19.9,143.5,17.6z"/>
<g>
	<path class="st0" d="M161.1,28.1c-0.1-1.3-0.3-2.6-0.4-3.9c-0.1-0.8,0-1.5,0.5-2c1.2-1.2,1.2-2.7,0.9-4.2c-0.1-0.6-0.2-1.3-0.2-2
		c0-0.5,0.1-1.1,0.4-1.4c1.3-1.6,2.7-3.1,4.2-4.5c0.4-0.4,1-0.5,1.6-0.5c1,0,1.9,0,2.9,0.1c1.1,0.1,2.2-0.1,3.2-0.5
		c1.1-0.4,2.3-0.8,3.4-1.4c1.1-0.6,4.3,0.7,4.8,1.8c0.1,0.3,0.2,0.7,0.2,1.1c-0.1,0.9,0.3,1.5,1.2,1.9c0.2,0.1,0.4,0.2,0.7,0.3
		c0.9,0.5,1.2,1.1,1,2c-0.3,1.1-0.3,2.2,0.2,3.2c0.4,1,0.6,1.9-0.3,2.8c-0.4,0.4-0.2,1,0.1,1.4c0.8,1.4,1,3,0.8,4.6
		c-0.1,0.9-0.5,1.6-1.2,2.1c-0.6,0.5-1.2,1.1-1.8,1.5c-0.4,0.3-0.8,0.5-1.2,0.6c-2.2,0.5-4.5,0.8-6.8,1.3c-1,0.2-1.9,0.6-2.9,0.9
		c-0.5,0.2-0.9,0.4-1.3,0.6c-1.7,0.8-3.5,0.7-5.2-0.1c-1-0.5-2.1-0.8-3.1-1.2c-1.6-0.6-2.1-1.6-1.8-3.2C161,29,161,28.5,161.1,28.1z
		 M170.5,12.3c-2.7-0.1-2.7-0.1-4.3,1.8c0,0-0.1,0.1-0.1,0.1c-1.2,1-1.5,2.3-1.2,3.9c0.3,1.7,0.1,3.4-1.1,4.8
		c-0.2,0.2-0.3,0.6-0.2,0.9c0.1,1.3,0.2,2.7,0.4,4c0.1,1.2,1.2,2.2,2.3,1.9c1-0.3,1.9-0.7,2.7-1.3c0.8-0.6,1.6-0.8,2.6-0.5
		c0.3,0.1,0.9,0,1-0.2c0.5-0.6,1-1.4,1.2-2.1c0.2-1,0.7-1.5,1.6-1.8c1.1-0.4,2.2-0.8,3.3-1.3c1.1-0.5,1.4-1.1,1-2.3
		c-0.3-0.9-0.2-1.7,0.2-2.5c0.2-0.5,0.5-1.2,0.4-1.7c-0.1-1.5-0.5-2.9-0.7-4.3c0-0.2-0.2-0.5-0.4-0.6c-0.7-0.3-1.4-0.5-2.2-0.1
		C174.9,11.8,172.7,12.8,170.5,12.3z"/>
	<path class="st0" d="M177.1,18c-0.3,0.4-0.5,0.8-0.8,1c-0.8,0.6-1.7,1.2-2.6,1.7c-0.3,0.2-0.8,0.3-1.1,0.2
		c-0.2-0.1-0.5-0.6-0.4-0.9c0.1-1-0.1-1.9-0.4-2.8c-0.3-0.9,0-1.3,0.8-1.6c0.5-0.2,1-0.6,1.5-0.8c0.4-0.2,0.7-0.5,1.1-0.5
		c0.3,0,0.8,0.3,0.8,0.4c0,0.8,0.4,1.5,0.8,2.2c0.1,0.3,0.1,0.6,0.2,0.9C177,17.9,177,18,177.1,18z"/>
	<path class="st0" d="M168.2,25.5c-1-0.3-1.7-0.9-2.2-1.6c-0.1-0.2,0.1-0.6,0.3-0.9c0.3-0.5,0.7-0.9,1-1.4c0.3-0.5,0.7-0.7,1.1-0.4
		c0.6,0.5,1.2,1.1,1.7,1.7c0.1,0.1-0.1,0.5-0.2,0.8c-0.3,0.5-0.7,1-1,1.5C168.6,25.3,168.4,25.4,168.2,25.5z"/>
</g>
</svg>
