<?xml version="1.0" encoding="utf-8"?>
<!-- Generator: Adobe Illustrator 19.0.0, SVG Export Plug-In . SVG Version: 6.00 Build 0)  -->
<svg version="1.1" id="Layer_1" xmlns="http://www.w3.org/2000/svg" xmlns:xlink="http://www.w3.org/1999/xlink" x="0px" y="0px"
	 viewBox="5 -5 30 30" style="enable-background:new 5 -5 30 30;" xml:space="preserve">
<style type="text/css">
	.st0{fill:#FFFFFF;}
</style>
<g id="Layer_1_1_">
</g>
<polygon id="XMLID_2_" class="st0" points="-88,-103.8 -80.5,-111.5 -81.7,-102 -71.7,-104.2 -82.3,-95.3 -73.4,-91.1 -86,-90.5 
	-94,-81.9 -91.5,-92.5 -97.2,-96 -92,-96.5 -98.7,-108.5 "/>
<g id="XMLID_27_">
	<path id="XMLID_28_" class="st0" d="M-114.9-64.9c-1.2-0.7-2.6-0.4-3.3,0.9c-0.7,1.2-0.5,2.6,0.7,3.4c1.2,0.8,2.6,0.3,3.3-0.9
		C-113.4-62.8-113.7-64.2-114.9-64.9z"/>
	<polygon id="XMLID_29_" class="st0" points="-101.4,-83.1 -104.7,-85.1 -110.4,-75.2 -118.4,-83.3 -121,-80.5 -112,-72.4 
		-114.4,-68.4 -112,-67 -109.8,-70.4 -106.7,-67.6 -104.8,-69.5 -108.1,-72.9 	"/>
	<path id="XMLID_30_" class="st0" d="M-100-66.3c-1-1-2.4-1.1-3.4,0c-0.9,1-0.9,2.4,0.2,3.4c1,1,2.5,1,3.4,0
		C-98.8-63.9-99-65.3-100-66.3z"/>
</g>
<path id="XMLID_14_" class="st0" d="M-45.4-127.2c-7.6,0-13.8,6.2-13.8,13.8c0,7.6,6.2,13.7,13.8,13.7s13.8-6.2,13.8-13.7
	C-31.7-121-37.8-127.2-45.4-127.2z M-40.5-110.1c-0.6,5.4-2.6,9.3-4.9,9.3c-2.3,0-4.3-4-4.9-9.3c-3.4-0.7-5.8-2.1-5.8-3.7
	s2.4-3,5.9-3.7c0.7-5,2.6-8.5,4.8-8.5s4.1,3.6,4.8,8.5c3.5,0.7,5.9,2.1,5.9,3.7S-37.1-110.8-40.5-110.1z"/>
<polygon id="XMLID_3_" class="st0" points="-34.4,-97.4 -31,-87 -20.1,-87 -28.9,-80.5 -25.5,-70.1 -34.4,-76.5 -43.3,-70 
	-39.9,-80.5 -48.8,-87 -37.8,-87 "/>
<path id="XMLID_16_" class="st0" d="M-67.4-42.9c0.5-3,0.2-6.2-1.2-8.9c-1.6-3.4-5.3-6.4-9.1-4.2c-1.4,0.8-2.3,2.1-3.1,3.7
	c-1.3-0.5-2.4-0.9-3.4-1.2c-6.4-1.7-6.7,3.6-5.4,8.4c-2,0.4-4.9,1.3-4.9,3.6c0,2.6,4.1,5,6.8,6.4c0.4,1.5,0.9,2.9,1.3,3.7
	c2.7,5.6,9.7,3.7,12.4-0.8c0.1-0.1,0.2-0.2,0.3-0.3c3.6-0.5,6.7-2.2,7.3-6.1C-66.1-40.1-66.6-41.5-67.4-42.9z M-73-37.5
	c-0.1-0.6-0.3-1.2-0.6-1.7c0.2-0.7,0.3-1.4,0.4-2.1C-73.1-42-73-43-73-44.2c0.5,0.4,0.9,0.8,1.2,1.2c0.4,0.5,0.7,0.9,1,1.4
	C-71.3-40.1-72-38.7-73-37.5z M-79.5-38.7c-0.3,0.2-0.6,0.3-0.9,0.5c0-0.1-0.1-0.1-0.1-0.2c-0.2-0.2-0.4-0.5-0.6-0.8
	c0.6-0.2,1.1-0.6,1.2-1.4c0-0.2,0-0.4,0-0.5c0.9,0.4,1.6,0.9,2.2,1.6c0.1,0.3,0.2,0.6,0.3,0.9C-78-38.5-78.6-38.5-79.5-38.7z
	 M-76-42.1c-1.1-0.8-2.3-1.5-3.6-2c0.1-0.7,0.2-1.3,0.3-2c0.4-0.6,0.8-1.1,1.3-1.3c0.5,0.3,0.9,0.5,1.4,0.8c0.2,0.1,0.4,0.3,0.6,0.4
	C-75.8-45.1-75.9-43.3-76-42.1z M-82.9-42.1c0,0.3,0,0.6-0.1,0.9c-0.7-0.6-1.5-1-2.4-1c0-0.1-0.1-0.2-0.1-0.2
	C-84.7-42.4-83.8-42.3-82.9-42.1z M-71.3-50.4c0.8,1.2,1,2.8,1.1,4.2c-1-0.9-2.1-1.7-3.2-2.4c-0.4-1.7-1.2-3.1-2.5-3.6
	c-0.2-0.1-0.3-0.1-0.5-0.1C-74.8-53.1-72.6-52.3-71.3-50.4z M-84.9-50.6c1.1,0.4,2.1,0.8,3.1,1.3c-0.2,0.8-0.4,1.6-0.5,2.4
	c-0.4,0.7-0.7,1.3-1,1.9c-1.2-0.2-2.3-0.3-3.4-0.3c-0.2-0.7-0.3-1.4-0.3-2.1C-87.8-49.1-87.1-50.1-84.9-50.6z M-88.6-42.1
	c0.3,0.7,0.6,1.3,0.9,1.8c-0.2,0.4-0.3,0.9-0.3,1.5C-90.7-40.6-90.3-41.7-88.6-42.1z M-83.7-33.4c0.8,0.2,1.7,0.5,2.6,0.6
	c0.2,0.4,0.5,0.8,0.8,1.1C-81.3-31.8-82.4-32.4-83.7-33.4z"/>
<g id="XMLID_10_">
	<polygon id="XMLID_12_" class="st0" points="-96.8,-130.6 -107.1,-131.7 -94,-146.6 -94.8,-147.6 -109.2,-132.9 -115.6,-139.3 
		-102.1,-153.1 -103.3,-153.6 -114.3,-142.5 -118.6,-149 -111,-157.8 -108.5,-155.7 -114.6,-148.7 -113.8,-147.6 -104,-157.4 
		-96.5,-154.3 -111.1,-139.3 -109.2,-137.5 -94.8,-152.3 -89.6,-146.7 -100.5,-134.3 -97.9,-134 -92.5,-138.7 -90.3,-136.3 	"/>
</g>
<g id="XMLID_7_">
	<polygon id="XMLID_8_" class="st0" points="-122.8,-121.5 -129.8,-109.3 -115.3,-115 	"/>
	<polygon id="XMLID_24_" class="st0" points="-134.2,-121.2 -143.1,-116.8 -130.5,-107.7 	"/>
	<polygon id="XMLID_25_" class="st0" points="-121.6,-102.9 -125.3,-103.1 -133,-99 -134.9,-106.6 -137.8,-105.1 -141.9,-110.3 
		-143,-105.8 -141.2,-101.1 -137.8,-98.7 -131.7,-94.2 -127.1,-97.4 -122,-95.8 -122,-99.5 -117.4,-104 -116.7,-108.9 -119,-107.4 	
		"/>
</g>
<polygon id="XMLID_5_" class="st0" points="-77.9,-86.1 -79.3,-82.2 -77,-81.7 -80.5,-65 -80.7,-63.7 -73,-63.6 -71,-65 -67,-65 
	-66,-63.8 -57.7,-63.5 -56.2,-66 -56.7,-70.2 -60.2,-71 -65,-71 -69.8,-74.5 -67.8,-81.3 -64.2,-85.8 "/>
<path id="XMLID_6_" class="st0" d="M130.5,33.8l12,5.2l2.5-6.7l5.2-1.3c0,0,1.5,0,1.5-1.2s2-7.2,2-7.2l0.3-6l-5.7-0.8l-6.7,0.3
	l-3.5,4.3l-2-0.2l1.5-2.8l1.2-2.5l-3.8-2l-4.2,2.7l-0.8,6c0,0-0.3,4.3,0.3,4.5c0.7,0.2,5,1.5,5,1.5l-1.5,2.2L130.5,33.8z"/>
<path id="XMLID_32_" class="st0" d="M-48.2-137.5l12.5-25.3c0,0,11.5,2.5,9.2,11.2c-2.2-6.3-7.8-6-7.8-6L-47-136.3L-48.2-137.5z"/>
<path id="XMLID_37_" class="st0" d="M-131.4-160.9c-2.1-0.7-4.6-0.2-6.2,6.2c-1.6-1.1-6.2-2.1-8.5,0.2c0-3.9-5.3-7.3-7.3-6
	c-2.1,1.4-6,6.6,2.1,10.1c-3.9,9.8,3.4,17.9,10.3,17.4c6.9-0.5,12.1-10.1,9.4-20.1C-127.6-154.5-129.4-160.2-131.4-160.9z
	 M-142.9-144c-1.8-1.6-3.2-2.1-5,0.7c-2.2,3.2,0.7-8.2,2.7-5.7C-143.1-146.5-141.1-142.4-142.9-144z M-136-144
	c-1.8-1.6-3.2-2.1-5,0.7c-2.2,3.2,0.7-8.2,2.7-5.7C-136.2-146.5-134.2-142.4-136-144z"/>
<path id="XMLID_33_" class="st0" d="M-158.2-82c-4.3,3.7-11.8,29.2-6.5,20.8c5.3-8.3,17.8-29,13.3-18.5s-13,30.5-6,20.8
	s14.8-24.3,14-16.8s-5.2,22.2-1.7,15s6.2-27.3,2.3-22.2c-3.8,5.2-9.7,12-7.3,6.7c2.3-5.3,1.5-12.8-4.7-4.3c-6,8.5-5.2,3.5-4.2,1.5
	S-158.2-82-158.2-82z"/>
<path id="XMLID_42_" class="st0" d="M-25.5-205.2l-13.7,13.7l-7.6-7.6v-9.1l7.6,7.6l13.7-13.6V-205.2z"/>
<path id="XMLID_54_" class="st0" d="M-54.3-178.2c0,3.7-0.9,6.8-2.7,9.3c-1.8,2.4-4.1,4-7,4.7c-2.9-0.7-5.3-2.2-7-4.7
	c-1.8-2.5-2.7-5.6-2.7-9.3c0-1.3,0.3-2.6,0.9-3.9c0.4-1,1-1.7,1.6-2.3c1.4,0.8,2.7,1.3,4,1.3s2.4-0.4,3.3-1.2c0.9,0.8,2,1.2,3.3,1.2
	s2.7-0.4,4-1.3c0.6,0.6,1.1,1.3,1.6,2.3C-54.6-180.8-54.3-179.5-54.3-178.2z"/>
<path id="XMLID_126_" class="st0" d="M-84.2-189.4l-11.2,2.6l-2.8,11.3l-2.6-11.2l-11.3-2.8l11.2-2.6l2.8-11.3l2.6,11.3L-84.2-189.4
	z M-98.9-189.5l-2-2l-8.6,2H-98.9z M-98.3-178.2v-10.6l-2,2L-98.3-178.2z M-96.1-192.1l-1.9-8.6v10.6L-96.1-192.1z M-86.8-189.4
	h-10.6l2,2L-86.8-189.4z"/>
<path id="XMLID_258_" class="st0" d="M143,50.7l3.6,1.5c2.2,0.9,4,2.4,5.3,4.4s2,4.2,2,6.6c0,3.3-1.2,6.1-3.5,8.4s-5.1,3.5-8.4,3.5
	c-1.5,0-3-0.3-4.5-0.9l-3.6-1.5c-2.2-0.9-4-2.4-5.3-4.3s-2-4.2-2-6.6c0-3.3,1.2-6.1,3.5-8.4c2.3-2.3,5.1-3.5,8.4-3.5
	C139.9,49.8,141.5,50.1,143,50.7z M128.3,61.7c0,2.8,1,5.1,3,7.1s4.4,3,7.2,3s5.2-1,7.2-3s3-4.4,3-7.3c0-2.8-1-5.2-3-7.2
	s-4.4-3-7.2-3c-2.9,0-5.3,1-7.3,3C129.3,56.4,128.3,58.8,128.3,61.7z"/>
<path id="XMLID_277_" class="st0" d="M-27.5-175.5l9.7-13.8l9.7,13.8l-9.7,13.8L-27.5-175.5z"/>
<path id="XMLID_281_" class="st0" d="M-17.3-221.3l-5.4-5.4l5.4-5.4l5.4,5.4L-17.3-221.3z M-14.7-234.6l5.4-5.4l5.4,5.4l-5.4,5.4
	L-14.7-234.6z M-3.9-218.7l-5.4,5.4l-5.4-5.4l5.4-5.4L-3.9-218.7z M-1.4-232.1l5.4,5.4l-5.4,5.4l-5.4-5.4L-1.4-232.1z"/>
<polygon id="XMLID_4_" class="st0" points="-157.5,-37.1 -151,-12.3 -149.7,-27.4 -147.8,-19.5 -146,-28.9 -144.4,-11.3 
	-140.9,-25.4 -139.5,-21.7 -137.5,-27 -135,-12.2 -129.1,-39.2 -134.3,-23 -137.5,-36.5 -139.5,-25 -141.5,-28 -143.7,-20.7 
	-145.1,-40.8 -148.1,-26.6 -150.2,-31.2 -151.7,-24.1 "/>
<polygon id="XMLID_26_" class="st0" points="-164.3,-179 -162.8,-191.4 -141,-203.4 -150.7,-179.9 "/>
<path class="st0" d="M27.3,3.2c0-4-3.2-7.3-7.3-7.3s-7.3,3.2-7.3,7.3c0,2.7,1.5,5.1,3.7,6.3l-3.7,14.2H18H22h5.3L23.6,9.5
	C25.8,8.2,27.3,5.9,27.3,3.2z"/>
</svg>
