<?xml version="1.0" encoding="utf-8"?>
<!-- Generator: Adobe Illustrator 19.0.0, SVG Export Plug-In . SVG Version: 6.00 Build 0)  -->
<svg version="1.1" id="Layer_1" xmlns="http://www.w3.org/2000/svg" xmlns:xlink="http://www.w3.org/1999/xlink" x="0px" y="0px"
	 viewBox="0 0 20 20" style="enable-background:new 0 0 20 20;" xml:space="preserve">
<style type="text/css">
	.st0{fill:#FD3037;stroke:#BE0E0E;stroke-width:2;stroke-miterlimit:10;}
	.st1{fill:#00C22A;stroke:#007C1B;stroke-width:2;stroke-miterlimit:10;}
	.st2{fill:#E18726;stroke:#B55C04;stroke-width:2;stroke-miterlimit:10;}
</style>
<path class="st0" d="M-44.5,8.7l-3.7,4.9l2.6,2.1l4.2-4c0,0,3.9,2.8,3.9,2.9s1.9-1.7,1.9-1.9c0-0.1-4-3.1-4-3.1l6.6-4.7l-1.1-6
	L-40,0.3l-3.2,6.3l-3.9-3.3L-49,5.6L-44.5,8.7z"/>
<image style="overflow:visible;" width="1920" height="1080" xlink:href="DE83A48A.jpg"  transform="matrix(1 0 0 1 239.9731 -548.7084)">
</image>
<polygon class="st1" points="6.7,-39 6,-23 20,-23 20,-29.3 12.3,-28.9 15.3,-39 "/>
<image style="overflow:visible;" width="1920" height="1080" xlink:href="DE83A48E.jpg"  transform="matrix(1 0 0 1 71.3333 -60.5)">
</image>
<polygon class="st2" points="9,7.5 13,2.9 13,8.2 17.4,7.6 13.7,11.5 17.1,17.8 10.3,13.4 9.6,16.8 7.5,14.4 4.1,16.7 6.9,10.3 
	2.9,4.5 "/>
</svg>
