<?xml version="1.0" encoding="utf-8"?>
<!-- Generator: Adobe Illustrator 19.0.0, SVG Export Plug-In . SVG Version: 6.00 Build 0)  -->
<svg version="1.1" xmlns="http://www.w3.org/2000/svg" xmlns:xlink="http://www.w3.org/1999/xlink" x="0px" y="0px"
	 viewBox="0 0 30 30" style="enable-background:new 0 0 30 30;" xml:space="preserve">
<style type="text/css">
	.st0{fill:#FFFFFF;}
</style>
<g id="Layer_1">
</g>
<g id="Layer_2">
	<polygon id="XMLID_2_" class="st0" points="-93,-98.8 -85.5,-106.5 -86.7,-97 -76.7,-99.2 -87.3,-90.3 -78.4,-86.1 -91,-85.5 
		-99,-76.9 -96.5,-87.5 -102.2,-91 -97,-91.5 -103.7,-103.5 	"/>
	<g id="XMLID_27_">
		<path id="XMLID_28_" class="st0" d="M-119.9-59.9c-1.2-0.7-2.6-0.4-3.3,0.9c-0.7,1.2-0.5,2.6,0.7,3.4c1.2,0.8,2.6,0.3,3.3-0.9
			C-118.4-57.8-118.7-59.2-119.9-59.9z"/>
		<polygon id="XMLID_29_" class="st0" points="-106.4,-78.1 -109.7,-80.1 -115.4,-70.2 -123.4,-78.3 -126,-75.5 -117,-67.4 
			-119.4,-63.4 -117,-62 -114.8,-65.4 -111.7,-62.6 -109.8,-64.5 -113.1,-67.9 		"/>
		<path id="XMLID_30_" class="st0" d="M-105-61.3c-1-1-2.4-1.1-3.4,0c-0.9,1-0.9,2.4,0.2,3.4c1,1,2.5,1,3.4,0
			C-103.8-58.9-104-60.3-105-61.3z"/>
	</g>
	<path id="XMLID_14_" class="st0" d="M-50.4-122.2c-7.6,0-13.8,6.2-13.8,13.8c0,7.6,6.2,13.7,13.8,13.7s13.8-6.2,13.8-13.7
		C-36.7-116-42.8-122.2-50.4-122.2z M-45.5-105.1c-0.6,5.4-2.6,9.3-4.9,9.3c-2.3,0-4.3-4-4.9-9.3c-3.4-0.7-5.8-2.1-5.8-3.7
		c0-1.6,2.4-3,5.9-3.7c0.7-5,2.6-8.5,4.8-8.5c2.2,0,4.1,3.6,4.8,8.5c3.5,0.7,5.9,2.1,5.9,3.7C-39.7-107.2-42.1-105.8-45.5-105.1z"/>
	<polygon id="XMLID_3_" class="st0" points="-39.4,-92.4 -36,-82 -25.1,-82 -33.9,-75.5 -30.5,-65.1 -39.4,-71.5 -48.3,-65 
		-44.9,-75.5 -53.8,-82 -42.8,-82 	"/>
	<path id="XMLID_16_" class="st0" d="M-72.4-37.9c0.5-3,0.2-6.2-1.2-8.9c-1.6-3.4-5.3-6.4-9.1-4.2c-1.4,0.8-2.3,2.1-3.1,3.7
		c-1.3-0.5-2.4-0.9-3.4-1.2c-6.4-1.7-6.7,3.6-5.4,8.4c-2,0.4-4.9,1.3-4.9,3.6c0,2.6,4.1,5,6.8,6.4c0.4,1.5,0.9,2.9,1.3,3.7
		c2.7,5.6,9.7,3.7,12.4-0.8c0.1-0.1,0.2-0.2,0.3-0.3c3.6-0.5,6.7-2.2,7.3-6.1C-71.1-35.1-71.6-36.5-72.4-37.9z M-78-32.5
		c-0.1-0.6-0.3-1.2-0.6-1.7c0.2-0.7,0.3-1.4,0.4-2.1C-78.1-37-78-38-78-39.2c0.5,0.4,0.9,0.8,1.2,1.2c0.4,0.5,0.7,0.9,1,1.4
		C-76.3-35.1-77-33.7-78-32.5z M-84.5-33.7c-0.3,0.2-0.6,0.3-0.9,0.5c0-0.1-0.1-0.1-0.1-0.2c-0.2-0.2-0.4-0.5-0.6-0.8
		c0.6-0.2,1.1-0.6,1.2-1.4c0-0.2,0-0.4,0-0.5c0.9,0.4,1.6,0.9,2.2,1.6c0.1,0.3,0.2,0.6,0.3,0.9C-83-33.5-83.6-33.5-84.5-33.7z
		 M-81-37.1c-1.1-0.8-2.3-1.5-3.6-2c0.1-0.7,0.2-1.3,0.3-2c0.4-0.6,0.8-1.1,1.3-1.3c0.5,0.3,0.9,0.5,1.4,0.8
		c0.2,0.1,0.4,0.3,0.6,0.4C-80.8-40.1-80.9-38.3-81-37.1z M-87.9-37.1c0,0.3,0,0.6-0.1,0.9c-0.7-0.6-1.5-1-2.4-1
		c0-0.1-0.1-0.2-0.1-0.2C-89.7-37.4-88.8-37.3-87.9-37.1z M-76.3-45.4c0.8,1.2,1,2.8,1.1,4.2c-1-0.9-2.1-1.7-3.2-2.4
		c-0.4-1.7-1.2-3.1-2.5-3.6c-0.2-0.1-0.3-0.1-0.5-0.1C-79.8-48.1-77.6-47.3-76.3-45.4z M-89.9-45.6c1.1,0.4,2.1,0.8,3.1,1.3
		c-0.2,0.8-0.4,1.6-0.5,2.4c-0.4,0.7-0.7,1.3-1,1.9c-1.2-0.2-2.3-0.3-3.4-0.3c-0.2-0.7-0.3-1.4-0.3-2.1
		C-92.8-44.1-92.1-45.1-89.9-45.6z M-93.6-37.1c0.3,0.7,0.6,1.3,0.9,1.8c-0.2,0.4-0.3,0.9-0.3,1.5C-95.7-35.6-95.3-36.7-93.6-37.1z
		 M-88.7-28.4c0.8,0.2,1.7,0.5,2.6,0.6c0.2,0.4,0.5,0.8,0.8,1.1C-86.3-26.8-87.4-27.4-88.7-28.4z"/>
	<g id="XMLID_10_">
		<polygon id="XMLID_12_" class="st0" points="-101.8,-125.6 -112.1,-126.7 -99,-141.6 -99.8,-142.6 -114.2,-127.9 -120.6,-134.3 
			-107.1,-148.1 -108.3,-148.6 -119.3,-137.5 -123.6,-144 -116,-152.8 -113.5,-150.7 -119.6,-143.7 -118.8,-142.6 -109,-152.4 
			-101.5,-149.3 -116.1,-134.3 -114.2,-132.5 -99.8,-147.3 -94.6,-141.7 -105.5,-129.3 -102.9,-129 -97.5,-133.7 -95.3,-131.3 		"/>
	</g>
	<g id="XMLID_7_">
		<polygon id="XMLID_8_" class="st0" points="-127.8,-116.5 -134.8,-104.3 -120.3,-110 		"/>
		<polygon id="XMLID_24_" class="st0" points="-139.2,-116.2 -148.1,-111.8 -135.5,-102.7 		"/>
		<polygon id="XMLID_25_" class="st0" points="-126.6,-97.9 -130.3,-98.1 -138,-94 -139.9,-101.6 -142.8,-100.1 -146.9,-105.3 
			-148,-100.8 -146.2,-96.1 -142.8,-93.7 -136.7,-89.2 -132.1,-92.4 -127,-90.8 -127,-94.5 -122.4,-99 -121.7,-103.9 -124,-102.4 		
			"/>
	</g>
	<polygon id="XMLID_5_" class="st0" points="-82.9,-81.1 -84.3,-77.2 -82,-76.7 -85.5,-60 -85.7,-58.7 -78,-58.6 -76,-60 -72,-60 
		-71,-58.8 -62.7,-58.5 -61.2,-61 -61.7,-65.2 -65.2,-66 -70,-66 -74.8,-69.5 -72.8,-76.3 -69.2,-80.8 	"/>
	<path id="XMLID_6_" class="st0" d="M-53.5-26l12,5.2l2.5-6.7l5.2-1.3c0,0,1.5,0,1.5-1.2s2-7.2,2-7.2l0.3-6l-5.7-0.8l-6.7,0.3
		l-3.5,4.3l-2-0.2l1.5-2.8l1.2-2.5l-3.8-2l-4.2,2.7l-0.8,6c0,0-0.3,4.3,0.3,4.5c0.7,0.2,5,1.5,5,1.5l-1.5,2.2L-53.5-26z"/>
	<path id="XMLID_32_" class="st0" d="M-53.2-132.5l12.5-25.3c0,0,11.5,2.5,9.2,11.2c-2.2-6.3-7.8-6-7.8-6L-52-131.3L-53.2-132.5z"/>
	<path id="XMLID_37_" class="st0" d="M-136.4-155.9c-2.1-0.7-4.6-0.2-6.2,6.2c-1.6-1.1-6.2-2.1-8.5,0.2c0-3.9-5.3-7.3-7.3-6
		c-2.1,1.4-6,6.6,2.1,10.1c-3.9,9.8,3.4,17.9,10.3,17.4c6.9-0.5,12.1-10.1,9.4-20.1C-132.6-149.5-134.4-155.2-136.4-155.9z
		 M-147.9-139c-1.8-1.6-3.2-2.1-5,0.7c-2.2,3.2,0.7-8.2,2.7-5.7C-148.1-141.5-146.1-137.4-147.9-139z M-141-139
		c-1.8-1.6-3.2-2.1-5,0.7c-2.2,3.2,0.7-8.2,2.7-5.7C-141.2-141.5-139.2-137.4-141-139z"/>
	<path id="XMLID_33_" class="st0" d="M-163.2-77c-4.3,3.7-11.8,29.2-6.5,20.8c5.3-8.3,17.8-29,13.3-18.5s-13,30.5-6,20.8
		s14.8-24.3,14-16.8c-0.8,7.5-5.2,22.2-1.7,15s6.2-27.3,2.3-22.2c-3.8,5.2-9.7,12-7.3,6.7c2.3-5.3,1.5-12.8-4.7-4.3
		C-165.8-67-165-72-164-74S-163.2-77-163.2-77z"/>
	<path id="XMLID_42_" class="st0" d="M-30.5-200.2l-13.7,13.7l-7.6-7.6v-9.1l7.6,7.6l13.7-13.6V-200.2z"/>
	<path id="XMLID_54_" class="st0" d="M-59.3-173.2c0,3.7-0.9,6.8-2.7,9.3c-1.8,2.4-4.1,4-7,4.7c-2.9-0.7-5.3-2.2-7-4.7
		c-1.8-2.5-2.7-5.6-2.7-9.3c0-1.3,0.3-2.6,0.9-3.9c0.4-1,1-1.7,1.6-2.3c1.4,0.8,2.7,1.3,4,1.3c1.3,0,2.4-0.4,3.3-1.2
		c0.9,0.8,2,1.2,3.3,1.2s2.7-0.4,4-1.3c0.6,0.6,1.1,1.3,1.6,2.3C-59.6-175.8-59.3-174.5-59.3-173.2z"/>
	<path id="XMLID_126_" class="st0" d="M-89.2-184.4l-11.2,2.6l-2.8,11.3l-2.6-11.2l-11.3-2.8l11.2-2.6l2.8-11.3l2.6,11.3
		L-89.2-184.4z M-103.9-184.5l-2-2l-8.6,2H-103.9z M-103.3-173.2v-10.6l-2,2L-103.3-173.2z M-101.1-187.1l-1.9-8.6v10.6
		L-101.1-187.1z M-91.8-184.4h-10.6l2,2L-91.8-184.4z"/>
	<path id="XMLID_258_" class="st0" d="M17.7,3.3l3.6,1.5c2.2,0.9,4,2.4,5.3,4.4c1.3,2,2,4.2,2,6.6c0,3.3-1.2,6.1-3.5,8.4
		s-5.1,3.5-8.4,3.5c-1.5,0-3-0.3-4.5-0.9l-3.6-1.5c-2.2-0.9-4-2.4-5.3-4.3s-2-4.2-2-6.6c0-3.3,1.2-6.1,3.5-8.4s5.1-3.5,8.4-3.5
		C14.6,2.4,16.1,2.7,17.7,3.3z M2.9,14.4c0,2.8,1,5.1,3,7.1s4.4,3,7.2,3c2.8,0,5.2-1,7.2-3s3-4.4,3-7.3c0-2.8-1-5.2-3-7.2
		S16,4,13.2,4c-2.9,0-5.3,1-7.3,3C3.9,9,2.9,11.5,2.9,14.4z"/>
	<path id="XMLID_277_" class="st0" d="M-32.5-170.5l9.7-13.8l9.7,13.8l-9.7,13.8L-32.5-170.5z"/>
	<path id="XMLID_281_" class="st0" d="M-22.3-216.3l-5.4-5.4l5.4-5.4l5.4,5.4L-22.3-216.3z M-19.7-229.6l5.4-5.4l5.4,5.4l-5.4,5.4
		L-19.7-229.6z M-8.9-213.7l-5.4,5.4l-5.4-5.4l5.4-5.4L-8.9-213.7z M-6.4-227.1l5.4,5.4l-5.4,5.4l-5.4-5.4L-6.4-227.1z"/>
	<path id="XMLID_296_" class="st0" d="M-84.1,2.6l-1.4,1.4c-0.8,0.8-1.8,1.2-2.9,1.2c-1.1,0-2.1-0.4-2.9-1.2
		c-0.8-0.8-1.2-1.8-1.2-2.9c0-1.1,0.4-2.1,1.2-2.9c0.8-0.8,1.8-1.2,2.9-1.2c1.1,0,2.1,0.4,2.9,1.2l1.4,1.4l2.9-2.9l-1.4-1.4
		c-0.8-0.8-1.2-1.7-1.2-2.9s0.4-2.1,1.2-2.9c0.8-0.8,1.7-1.2,2.9-1.2c1.1,0,2.1,0.4,2.9,1.2c0.8,0.8,1.2,1.8,1.2,2.9
		c0,1.1-0.4,2.1-1.2,2.9l-1.4,1.4l2.9,2.9l1.4-1.4c0.8-0.8,1.8-1.2,2.9-1.2c1.1,0,2.1,0.4,2.9,1.2C-67.4-0.9-67,0-67,1.2
		c0,1.1-0.4,2.1-1.2,2.9s-1.8,1.2-2.9,1.2c-1.1,0-2.1-0.4-2.9-1.2l-1.4-1.4l-2.9,2.9l1.4,1.4c0.8,0.8,1.2,1.8,1.2,2.9
		s-0.4,2.1-1.2,2.9c-0.8,0.8-1.8,1.2-2.9,1.2c-1.1,0-2.1-0.4-2.9-1.2c-0.8-0.8-1.2-1.8-1.2-2.9c0-1.1,0.4-2.1,1.2-2.9l1.4-1.4
		L-84.1,2.6z M-74,1.2l1.4,1.4c0.4,0.4,0.9,0.6,1.4,0.6c0.6,0,1.1-0.2,1.4-0.6c0.4-0.4,0.6-0.9,0.6-1.4c0-0.6-0.2-1.1-0.6-1.5
		c-0.4-0.4-0.9-0.6-1.4-0.6c-0.6,0-1,0.2-1.4,0.6L-74,1.2z M-79.8-4.6l1.4-1.4c0.4-0.4,0.6-0.9,0.6-1.4c0-0.6-0.2-1-0.6-1.4
		c-0.4-0.4-0.9-0.6-1.4-0.6c-0.6,0-1.1,0.2-1.4,0.6c-0.4,0.4-0.6,0.9-0.6,1.4c0,0.6,0.2,1,0.6,1.4L-79.8-4.6z M-82.7,1.2l2.9,2.9
		l2.9-2.9l-2.9-2.9L-82.7,1.2z M-79.8,7l-1.4,1.4c-0.4,0.4-0.6,0.9-0.6,1.4c0,0.6,0.2,1,0.6,1.4c0.4,0.4,0.9,0.6,1.4,0.6
		c0.6,0,1.1-0.2,1.4-0.6c0.4-0.4,0.6-0.9,0.6-1.4c0-0.6-0.2-1-0.6-1.4L-79.8,7z M-85.6,1.2L-87-0.3c-0.4-0.4-0.9-0.6-1.4-0.6
		c-0.6,0-1,0.2-1.4,0.6s-0.6,0.9-0.6,1.4c0,0.6,0.2,1.1,0.6,1.4c0.4,0.4,0.9,0.6,1.4,0.6c0.6,0,1-0.2,1.4-0.6L-85.6,1.2z"/>
	<polygon id="XMLID_4_" class="st0" points="-162.5,-32.1 -156,-7.3 -154.7,-22.4 -152.8,-14.5 -151,-23.9 -149.4,-6.3 
		-145.9,-20.4 -144.5,-16.7 -142.5,-22 -140,-7.2 -134.1,-34.2 -139.3,-18 -142.5,-31.5 -144.5,-20 -146.5,-23 -148.7,-15.7 
		-150.1,-35.8 -153.1,-21.6 -155.2,-26.2 -156.7,-19.1 	"/>
	<polygon id="XMLID_26_" class="st0" points="-169.3,-174 -167.8,-186.4 -146,-198.4 -155.7,-174.9 	"/>
</g>
</svg>
