<?xml version="1.0" encoding="utf-8"?>
<!-- Generator: Adobe Illustrator 19.0.0, SVG Export Plug-In . SVG Version: 6.00 Build 0)  -->
<svg version="1.1" id="Layer_1" xmlns="http://www.w3.org/2000/svg" xmlns:xlink="http://www.w3.org/1999/xlink" x="0px" y="0px"
	 viewBox="0 0 20 20" style="enable-background:new 0 0 20 20;" xml:space="preserve">
<style type="text/css">
	.st0{fill:#FD3037;stroke:#BE0E0E;stroke-width:2;stroke-miterlimit:10;}
	.st1{fill:#00C22A;stroke:#007C1B;stroke-width:2;stroke-miterlimit:10;}
</style>
<path class="st0" d="M-44.5,8.7l-3.7,4.9l2.6,2.1l4.2-4c0,0,3.9,2.8,3.9,2.9s1.9-1.7,1.9-1.9c0-0.1-4-3.1-4-3.1l6.6-4.7l-1.1-6
	L-40,0.3l-3.2,6.3l-3.9-3.3L-49,5.6L-44.5,8.7z"/>
<image style="overflow:visible;" width="1920" height="1080" xlink:href="23617D1D.jpg"  transform="matrix(1 0 0 1 239.9731 -548.7084)">
</image>
<polygon class="st1" points="3.7,2 3,18 17,18 17,11.7 9.3,12.1 12.3,2 "/>
<image style="overflow:visible;" width="1920" height="1080" xlink:href="23617D1F.jpg"  transform="matrix(1 0 0 1 71.3333 -60.5)">
</image>
</svg>
