<?xml version="1.0" encoding="utf-8"?>
<!-- Generator: Adobe Illustrator 19.0.0, SVG Export Plug-In . SVG Version: 6.00 Build 0)  -->
<svg version="1.1" id="Layer_1" xmlns="http://www.w3.org/2000/svg" xmlns:xlink="http://www.w3.org/1999/xlink" x="0px" y="0px"
	 viewBox="5 -5 30 30" style="enable-background:new 5 -5 30 30;" xml:space="preserve">
<style type="text/css">
	.st0{fill:#FFFFFF;}
</style>
<g id="Layer_1_1_">
</g>
<g>
	<path class="st0" d="M29.6,17c0,1.8,0,3.5,0,5.3c0,0.8-0.3,1.1-1,1.2c-0.2,0-0.4,0-0.6,0c-1.4,0-2.9,0-4.3,0c-0.1,0-0.1,0-0.2,0
		c-0.6,0-0.8-0.2-0.8-0.8c0-1.6,0-3.2,0-4.8c0-0.5,0-0.5-0.5-0.5c-1.4,0-2.8,0-4.3,0c-0.4,0-0.5,0-0.5,0.4c0,1.6,0,3.3,0,4.9
		c0,0.6-0.2,0.8-0.8,0.8c-1.6,0-3.2,0-4.8,0c-0.1,0-0.2,0-0.3,0c-0.8-0.1-1.1-0.4-1.1-1.3c0-3.5,0-7.1,0-10.6c0-0.3,0.1-0.5,0.3-0.7
		c0.8-0.7,1.5-1.4,2.3-2.1c1.2-1.1,2.4-2.2,3.6-3.3c0.9-0.9,1.9-1.7,2.8-2.6C20,2.5,20,2.5,20.5,3c1.4,1.3,2.7,2.5,4.1,3.8
		c1.1,1,2.3,2.1,3.4,3.1c0.4,0.4,0.8,0.8,1.3,1.2c0.2,0.2,0.3,0.4,0.3,0.6C29.6,13.4,29.6,15.2,29.6,17z"/>
	<path class="st0" d="M14.2,1.2c0.3-0.3,0.7-0.6,1-0.9c1.2-1.1,2.3-2.2,3.5-3.2c0.8-0.8,1.6-0.8,2.5,0c1.4,1.2,2.7,2.5,4.1,3.8
		c1.4,1.3,2.7,2.5,4.1,3.7c1.1,1,2.3,2.1,3.4,3.2c0.2,0.2,0.4,0.4,0.6,0.6c0.9,1,0.4,2.5-0.8,2.8c-0.6,0.2-1.2,0-1.7-0.4
		c-1.4-1.2-2.7-2.5-4.1-3.7c-1.5-1.4-3-2.7-4.5-4.1c-0.7-0.7-1.4-1.3-2.2-2c-0.2-0.2-0.3-0.2-0.5,0c-1.6,1.5-3.2,2.9-4.8,4.4
		c-0.8,0.8-1.6,1.5-2.5,2.3C11.6,8.2,10.8,9,9.9,9.8c-0.3,0.3-0.6,0.6-1,0.9c-0.7,0.6-1.8,0.6-2.4-0.1C5.9,9.8,6,8.7,6.7,8.1
		c1-0.9,1.9-1.8,2.9-2.6C10,5,10.4,4.6,10.9,4.2c0.2-0.2,0.3-0.4,0.3-0.7c0-1.9,0-3.7,0-5.6c0-0.9,0.1-1.1,1.1-1.1
		c0.4,0,0.7,0,1.1,0c0.5,0,0.8,0.3,0.8,0.8c0,1.1,0,2.1,0,3.2C14.1,0.9,14.1,1,14.2,1.2C14.2,1.1,14.2,1.1,14.2,1.2z"/>
</g>
</svg>
