<?xml version="1.0" encoding="utf-8"?>
<!-- Generator: Adobe Illustrator 19.0.0, SVG Export Plug-In . SVG Version: 6.00 Build 0)  -->
<svg version="1.1" id="Layer_1" xmlns="http://www.w3.org/2000/svg" xmlns:xlink="http://www.w3.org/1999/xlink" x="0px" y="0px"
	 viewBox="0 0 20 20" style="enable-background:new 0 0 20 20;" xml:space="preserve">
<style type="text/css">
	.st0{fill:#FD3037;stroke:#BE0E0E;stroke-width:2;stroke-miterlimit:10;}
	.st1{fill:#00C22A;stroke:#007C1B;stroke-width:2;stroke-miterlimit:10;}
	.st2{fill:none;stroke:#007C1B;stroke-width:2;stroke-linecap:round;stroke-miterlimit:10;}
</style>
<path class="st0" d="M-44.5,8.7l-3.7,4.9l2.6,2.1l4.2-4c0,0,3.9,2.8,3.9,2.9s1.9-1.7,1.9-1.9c0-0.1-4-3.1-4-3.1l6.6-4.7l-1.1-6
	L-40,0.3l-3.2,6.3l-3.9-3.3L-49,5.6L-44.5,8.7z"/>
<image style="overflow:visible;" width="1920" height="1080" xlink:href="86D9DEF3.jpg"  transform="matrix(1 0 0 1 239.9731 -548.7084)">
</image>
<polygon class="st1" points="6.7,-39 6,-23 20,-23 20,-29.3 12.3,-28.9 15.3,-39 "/>
<image style="overflow:visible;" width="1920" height="1080" xlink:href="86D9DEF1.jpg"  transform="matrix(1 0 0 1 71.3333 -60.5)">
</image>
<path class="st1" d="M12.8,4.8c0.2-0.3,0.2-0.6,0.2-1c0-1.3-1.3-2.4-2.9-2.4S7.3,2.6,7.3,3.9c0,0.3,0.1,0.6,0.2,0.9
	C5,5.8,3.3,8.2,3.3,11c0,3.7,3,6.8,6.8,6.8s6.8-3,6.8-6.8C16.8,8.3,15.1,5.9,12.8,4.8z"/>
<line class="st2" x1="10" y1="10.9" x2="13" y2="8"/>
</svg>
