<?xml version="1.0" encoding="utf-8"?>
<!-- Generator: Adobe Illustrator 19.0.0, SVG Export Plug-In . SVG Version: 6.00 Build 0)  -->
<svg version="1.1" id="Layer_1" xmlns="http://www.w3.org/2000/svg" xmlns:xlink="http://www.w3.org/1999/xlink" x="0px" y="0px"
	 viewBox="5 -5 30 30" style="enable-background:new 5 -5 30 30;" xml:space="preserve">
<style type="text/css">
	.st0{fill:#FFFFFF;}
	.st1{fill:none;stroke:#FFFFFF;stroke-miterlimit:10;}
</style>
<g id="Layer_1_1_">
</g>
<g>
	<path class="st0" d="M18.7,0.6c-6.2,0-11.2,5-11.2,11.2s5,11.2,11.2,11.2S30,18.1,30,11.9S25,0.6,18.7,0.6z M18.7,20.7
		c-4.9,0-8.9-4-8.9-8.9s4-8.9,8.9-8.9s8.9,4,8.9,8.9S23.6,20.7,18.7,20.7z"/>
	<path class="st0" d="M18.7,5.5c-3.5,0-6.4,2.9-6.4,6.4s2.9,6.4,6.4,6.4s6.4-2.9,6.4-6.4S22.3,5.5,18.7,5.5z M18.7,16.9
		c-2.8,0-5-2.3-5-5s2.3-5,5-5s5,2.3,5,5S21.5,16.9,18.7,16.9z"/>
	<path class="st0" d="M18.7,9.5c-1.3,0-2.4,1.1-2.4,2.4s1.1,2.4,2.4,2.4s2.4-1.1,2.4-2.4S20,9.5,18.7,9.5z M18.7,13.7
		c-1,0-1.9-0.8-1.9-1.9s0.8-1.9,1.9-1.9s1.9,0.8,1.9,1.9S19.8,13.7,18.7,13.7z"/>
	<polygon class="st0" points="18.7,11.9 18.7,8.5 22.2,11.9 	"/>
	<line class="st1" x1="30" y1="-0.3" x2="20.4" y2="10.2"/>
	<rect x="27.1" y="-1.5" transform="matrix(0.7071 -0.7071 0.7071 0.7071 8.9658 21.1237)" class="st0" width="5.7" height="2.4"/>
</g>
</svg>
