<?xml version="1.0" encoding="utf-8"?>
<!-- Generator: Adobe Illustrator 19.0.0, SVG Export Plug-In . SVG Version: 6.00 Build 0)  -->
<svg version="1.1" id="Layer_1" xmlns="http://www.w3.org/2000/svg" xmlns:xlink="http://www.w3.org/1999/xlink" x="0px" y="0px"
	 viewBox="5 -5 30 30" style="enable-background:new 5 -5 30 30;" xml:space="preserve">
<style type="text/css">
	.st0{fill:#FFFFFF;}
</style>
<g id="Layer_1_1_">
</g>
<g>
	<path class="st0" d="M34.2,2.7c0,0.1,0,0.1-0.1,0.2c-0.1,0.4-0.2,0.7-0.4,1c-0.4,0.5-0.8,0.9-1.2,1.3c-2.3-2.3-4.6-4.6-7-7
		c0,0,0,0,0,0c0.4-0.4,0.8-0.8,1.2-1.2c0.9-0.8,2.3-0.8,3.2,0c0.6,0.5,1.2,1.1,1.7,1.7c0.6,0.6,1.2,1.2,1.8,1.8
		c0.4,0.4,0.7,0.9,0.8,1.5c0,0,0,0,0,0.1C34.2,2.4,34.2,2.5,34.2,2.7z"/>
	<path class="st0" d="M21.6,2C22,2.4,22.5,2.9,23,3.4c-0.1,0.1-0.3,0.2-0.4,0.4c-3.6,3.6-7.2,7.2-10.9,10.9
		c-0.1,0.1-0.1,0.2-0.2,0.3c-0.5,1.5-0.9,3.1-1.4,4.6c0,0.1,0,0.1,0.1,0.2c0.3,0.3,0.5,0.5,0.8,0.8c0.1,0.1,0.1,0.1,0.2,0.1
		c1.5-0.4,2.9-0.9,4.4-1.3c0.1,0,0.2-0.1,0.3-0.2c3.8-3.8,7.5-7.5,11.3-11.3c0,0,0.1-0.1,0.1-0.1c0.5,0.5,1,1,1.6,1.6
		c0,0-0.1,0-0.1,0.1c-3.8,3.8-7.6,7.5-11.4,11.3c-0.2,0.2-0.5,0.4-0.8,0.5c-2.7,0.8-5.3,1.6-8,2.3c-0.7,0.2-1.4-0.3-1.4-1
		c0-0.1,0-0.2,0-0.3C8,19.4,8.8,16.7,9.7,14c0.1-0.2,0.2-0.3,0.3-0.5c2.5-2.5,5-4.9,7.4-7.4C18.8,4.8,20.1,3.4,21.6,2
		C21.5,2,21.5,2,21.6,2z"/>
	<path class="st0" d="M14.4,18c-0.1-0.5-0.2-0.9-0.2-1.4c0-0.1-0.1-0.2-0.2-0.2c-0.5-0.1-0.9-0.2-1.4-0.3c0,0-0.1,0-0.1,0
		c3.8-3.8,7.7-7.7,11.5-11.5c0.6,0.6,1.3,1.3,1.9,1.9C22.1,10.2,18.3,14.1,14.4,18z"/>
	<path class="st0" d="M22.7,0.8c0.5-0.5,1.1-1,1.6-1.5c2.4,2.4,4.8,4.8,7.3,7.3C31,7,30.5,7.5,29.9,8C27.5,5.6,25.1,3.2,22.7,0.8z"
		/>
</g>
</svg>
