<?xml version="1.0" encoding="utf-8"?>
<!-- Generator: Adobe Illustrator 19.0.0, SVG Export Plug-In . SVG Version: 6.00 Build 0)  -->
<svg version="1.1" id="Layer_1" xmlns="http://www.w3.org/2000/svg" xmlns:xlink="http://www.w3.org/1999/xlink" x="0px" y="0px"
	 viewBox="5 -5 30 30" style="enable-background:new 5 -5 30 30;" xml:space="preserve">
<style type="text/css">
	.st0{fill:#FFFFFF;}
</style>
<g id="Layer_1_1_">
</g>
<g>
	<path class="st0" d="M20,9.9c-0.5-0.2-0.9-0.3-1.3-0.5c-3.3-1.9-6.6-3.8-9.9-5.7c-0.9-0.5-0.9-1,0-1.6c3.3-1.9,6.6-3.8,9.9-5.7
		c0.9-0.5,1.7-0.5,2.6,0c3.3,1.9,6.6,3.8,9.9,5.7c0.9,0.6,0.9,1,0,1.6c-3.2,1.9-6.5,3.8-9.8,5.6C21,9.6,20.5,9.7,20,9.9z M20,4.3
		c0.6-0.2,1.2-0.4,1.7-0.7c0.6-0.4,0.5-1,0-1.5c-0.8-0.7-2.6-0.7-3.4,0c-0.6,0.5-0.6,1.1,0.1,1.5C18.8,3.9,19.4,4.1,20,4.3z"/>
	<path class="st0" d="M32.7,10.9c0,1.7,0,3.4,0,5c0,1-0.4,1.8-1.3,2.3c-3.2,1.8-6.4,3.7-9.6,5.5c-0.9,0.5-1.3,0.2-1.3-0.8
		c0-3.4,0-6.8,0-10.1c0-1,0.4-1.8,1.3-2.3c3.1-1.8,6.3-3.6,9.4-5.4c1-0.6,1.4-0.4,1.4,0.9C32.8,7.5,32.7,9.2,32.7,10.9z M32,15.4
		c-0.1-0.2-0.2-0.6-0.4-0.8c-0.3-0.1-0.8-0.1-1,0c-0.9,0.5-1.5,1.4-1.5,2.5c-0.1,0.9,0.6,1.3,1.4,0.9C31.3,17.5,31.8,16.6,32,15.4z
		 M24.4,11.5c-0.1-0.2-0.2-0.7-0.4-0.8c-0.3-0.1-0.8-0.1-1.1,0.1c-0.9,0.6-1.4,1.4-1.4,2.5c0,0.9,0.6,1.3,1.4,0.8
		C23.8,13.6,24.3,12.7,24.4,11.5z"/>
	<path class="st0" d="M7.2,10.9c0-1.7,0-3.4,0-5.1c0-1.1,0.4-1.4,1.3-0.8c3.2,1.8,6.4,3.7,9.6,5.5c0.9,0.5,1.3,1.3,1.3,2.3
		c0,3.4,0,6.8,0,10.1c0,1-0.5,1.3-1.3,0.8c-3.2-1.8-6.4-3.7-9.6-5.6c-0.8-0.5-1.2-1.2-1.2-2.2C7.3,14.3,7.2,12.6,7.2,10.9z
		 M11.1,8.9c0-1-0.8-2.2-1.7-2.6C8.7,6,8.1,6.3,8.1,7.1C8,8.1,8.8,9.4,9.7,9.8C10.5,10.2,11.1,9.8,11.1,8.9z M14.8,15.1
		c-0.1-1.1-0.6-2-1.6-2.5c-0.8-0.4-1.4,0-1.4,0.8c0,0.9,0.8,2.3,1.7,2.6C14.3,16.4,14.8,16,14.8,15.1z M15.6,19.8
		c0,1,0.8,2.2,1.7,2.6c0.7,0.3,1.2,0,1.2-0.8c0.1-1-0.7-2.3-1.6-2.8C16.2,18.6,15.6,18.9,15.6,19.8z"/>
</g>
</svg>
