<?xml version="1.0" encoding="utf-8"?>
<!-- Generator: Adobe Illustrator 19.0.0, SVG Export Plug-In . SVG Version: 6.00 Build 0)  -->
<svg version="1.1" id="Layer_1" xmlns="http://www.w3.org/2000/svg" xmlns:xlink="http://www.w3.org/1999/xlink" x="0px" y="0px"
	 viewBox="-469 271 20 20" style="enable-background:new -469 271 20 20;" xml:space="preserve">
<g>
	<path d="M-450.1,281c0,1.8,0,3.6,0,5.4c0,1.5-0.7,2.6-2.1,3.2c-0.5,0.2-1,0.3-1.5,0.3c-3.5,0-7,0-10.5,0c-0.7,0-1.4-0.1-2-0.5
		c-1.1-0.7-1.7-1.7-1.7-2.9c0-3.7,0-7.4,0-11c0-1.7,1.4-3.2,3.1-3.3c0.7-0.1,1.4,0,2.1,0c3,0,6.1,0,9.1,0c1.7,0,3.1,1.2,3.5,2.9
		c0,0.2,0,0.4,0,0.6C-450.1,277.4-450.1,279.2-450.1,281C-450.1,281-450.1,281-450.1,281z M-466.2,279.2c0,0.1,0,0.1,0,0.1
		c0,2.4,0,4.7,0,7.1c0,1,0.7,1.7,1.8,1.7c3.6,0,7.2,0,10.8,0c1,0,1.8-0.7,1.8-1.8c0-2.3,0-4.7,0-7c0-0.1,0-0.1,0-0.2
		c-0.9,0-1.8,0-2.6,0c0.4,1.1,0.5,2.2,0.1,3.3c-0.4,1.1-1,2-2,2.6c-1.6,1.1-3.8,1.1-5.4,0c-2.1-1.5-2.6-3.5-1.8-5.9
		C-464.4,279.2-465.3,279.2-466.2,279.2z M-459,284.1c1.7,0,3.1-1.4,3.1-3.1c0-1.7-1.4-3.1-3.1-3.1c-1.7,0-3.1,1.4-3.1,3.1
		C-462.1,282.7-460.8,284.1-459,284.1z M-455.2,277.2c1,0,2,0,3,0c0-1,0-2,0-3c-1,0-2,0-3,0C-455.2,275.2-455.2,276.2-455.2,277.2z"
		/>
</g>
</svg>
