<?xml version="1.0" encoding="utf-8"?>
<!-- Generator: Adobe Illustrator 19.0.0, SVG Export Plug-In . SVG Version: 6.00 Build 0)  -->
<svg version="1.1" id="Layer_1" xmlns="http://www.w3.org/2000/svg" xmlns:xlink="http://www.w3.org/1999/xlink" x="0px" y="0px"
	 viewBox="0 0 20 20" style="enable-background:new 0 0 20 20;" xml:space="preserve">
<path id="XMLID_56_" d="M0.7,16c0-4,0-8,0-12C1.1,2.2,2.2,1.1,4,0.7c4,0,8,0,12,0c1.8,0.4,2.9,1.5,3.3,3.3c0,4,0,8,0,12
	c-0.4,1.8-1.5,2.9-3.3,3.3c-4,0-8,0-12,0C2.2,18.9,1.1,17.8,0.7,16z M16.2,15.4c0-1.9,0-3.7,0-5.6c-0.1-1.9-1.3-3.1-3.1-3
	c-0.9,0.1-1.7,0.5-2.3,1.3c0-0.5,0-0.9,0-1.3c-0.8,0-1.5,0-2.3,0c0,2.9,0,5.7,0,8.5c0.8,0,1.5,0,2.3,0c0-1.4,0-2.8,0-4.2
	c0-0.4,0.1-0.8,0.3-1.2c0.3-0.6,0.8-0.9,1.5-0.8c0.6,0.1,1,0.4,1.2,1c0.1,0.3,0.1,0.7,0.2,1c0,1.3,0,2.5,0,3.8c0,0.1,0,0.3,0,0.4
	C14.7,15.4,15.4,15.4,16.2,15.4z M4.6,6.9c0,2.9,0,5.7,0,8.5c0.8,0,1.5,0,2.3,0c0-2.9,0-5.7,0-8.5C6.1,6.9,5.4,6.9,4.6,6.9z
	 M7.1,4.5c0-0.8-0.6-1.4-1.3-1.4C5,3.2,4.4,3.8,4.4,4.5c0,0.8,0.6,1.4,1.3,1.4C6.5,5.9,7.1,5.3,7.1,4.5z"/>
</svg>
