<?xml version="1.0" encoding="utf-8"?>
<!-- Generator: Adobe Illustrator 19.0.0, SVG Export Plug-In . SVG Version: 6.00 Build 0)  -->
<svg version="1.1" id="Layer_1" xmlns="http://www.w3.org/2000/svg" xmlns:xlink="http://www.w3.org/1999/xlink" x="0px" y="0px"
	 viewBox="0 0 50 50" style="enable-background:new 0 0 50 50;" xml:space="preserve">
<style type="text/css">
	.st0{fill:#6E0000;}
	.st1{fill:#FD3037;}
	.st2{fill:#FEA503;stroke:#BC5900;stroke-width:2.5;stroke-miterlimit:10;}
	.st3{fill:#00C22A;stroke:#007C1B;stroke-width:3;stroke-miterlimit:10;}
</style>
<path class="st0" d="M-29.3,17.7c-0.1,0.4-0.2,0.7-0.2,1.1c-0.4,2.5-1.6,4.7-3,6.7c-1.4,2-3.1,3.6-4.8,5.3c-1.4,1.4-2.9,2.8-4.3,4.2
	c-1.9,1.8-3.8,3.7-5.8,5.5c-1.6,1.5-3.2,3-4.7,4.6c-0.3,0.3-0.7,0.7-1,1c-0.7,0.6-1.7,0.6-2.4,0c-2-1.9-4-3.8-5.9-5.7
	c-1.9-1.9-3.9-3.7-5.8-5.6c-1.5-1.5-3.1-3-4.6-4.5c-0.8-0.8-1.6-1.6-2.4-2.4c-1.4-1.6-2.7-3.3-3.6-5.2c-0.6-1.4-1.1-2.9-1.3-4.5
	c0-0.1-0.1-0.2-0.1-0.3c0-0.8,0-1.6,0-2.4c0-0.2,0.1-0.3,0.1-0.5c0.3-2.7,1.1-5.1,2.9-7.2c1.1-1.3,2.5-2.2,4-2.9
	c1.3-0.6,2.7-0.9,4.1-1.1c2.6-0.4,5.2,0,7.6,1.2c1.7,0.8,3.2,1.9,4.6,3.1c0.6,0.5,1.2,1,1.7,1.5c1.4-1.4,3-2.7,4.7-3.8
	c1.4-0.9,2.9-1.6,4.5-2c1.6-0.4,3.3-0.3,5-0.1c2.5,0.3,4.7,1.1,6.7,2.8c1.9,1.6,3.1,3.7,3.7,6.1c0.2,0.9,0.3,1.8,0.5,2.7
	C-29.3,16.1-29.3,16.9-29.3,17.7z M-54.3,42.1c0.1-0.1,0.2-0.1,0.2-0.2c2-1.9,4-3.8,5.9-5.7c2.8-2.7,5.6-5.4,8.4-8.1
	c2-1.9,3.9-3.8,5.3-6.2c0.8-1.4,1.4-2.9,1.5-4.5c0.1-1.9-0.1-3.7-0.8-5.4c-0.4-1-1-1.9-1.9-2.6c-1.2-1-2.7-1.6-4.2-1.9
	c-2.7-0.6-5.2-0.2-7.5,1.3c-2.1,1.3-3.9,2.9-5.6,4.7c-0.7,0.8-1.9,0.8-2.6,0c-1.4-1.5-2.9-2.9-4.5-4c-1.4-1-2.9-1.8-4.5-2.1
	c-2.5-0.4-4.9,0-7.1,1.2c-0.5,0.3-1,0.6-1.4,1c-0.9,0.7-1.4,1.7-1.8,2.8c-1.2,3.2-1,6.4,0.7,9.4c1,1.9,2.4,3.5,3.9,5
	c2.1,2.1,4.2,4.1,6.3,6.1c2.6,2.5,5.1,4.9,7.7,7.4C-55.7,40.8-55,41.5-54.3,42.1z"/>
<path class="st1" d="M-54.3,42.1c-0.7-0.7-1.4-1.3-2-1.9c-2.6-2.5-5.1-4.9-7.7-7.4c-2.1-2-4.2-4.1-6.3-6.1c-1.5-1.5-2.9-3.1-3.9-5
	c-1.7-3-1.9-6.2-0.7-9.4c0.4-1.1,0.9-2,1.8-2.8c0.4-0.4,0.9-0.7,1.4-1c2.2-1.2,4.6-1.6,7.1-1.2c1.7,0.3,3.2,1.1,4.5,2.1
	c1.6,1.2,3.1,2.5,4.5,4c0.7,0.8,1.9,0.7,2.6,0c1.7-1.8,3.5-3.4,5.6-4.7c2.3-1.5,4.9-1.8,7.5-1.3c1.6,0.3,3,0.9,4.2,1.9
	c0.8,0.7,1.4,1.6,1.9,2.6c0.7,1.7,1,3.5,0.8,5.4c-0.1,1.6-0.7,3.1-1.5,4.5c-1.4,2.4-3.3,4.3-5.3,6.2c-2.8,2.7-5.6,5.4-8.4,8.1
	c-2,1.9-4,3.8-5.9,5.7C-54.2,42-54.2,42.1-54.3,42.1z"/>
<path class="st2" d="M87.7-16c0-0.8,0-1.6,0-2.3c0.2,0,0.2-0.2,0.2-0.3c0.8-3.3,2.9-5.4,6-6.5c0.8-0.3,1-0.8,0.9-1.5
	c-0.1-1.7,0-1.7,1.5-1.7c10.1,0,20.1,0,30.2,0c1.6,0,1.7,0.1,1.5,1.6c-0.1,0.9,0.2,1.4,1.1,1.7c1.5,0.5,2.7,1.4,3.8,2.6
	c1.2,1.3,1.7,2.9,2.2,4.4c0,0.7,0,1.4,0,2.1c-0.3,0.3-0.3,0.8-0.4,1.1c-0.6,2.5-1.9,4.4-4.2,5.7c-1.3,0.7-2.5,1.4-3.9,1.9
	c-1,0.4-2,1-2.8,1.9c1.2,0.3,1.9,0.8,1.8,2c-0.1,1.1-0.9,1.6-1.9,1.8c-1.3,0.3-2.9-0.3-3.6-1.6c-0.5-1-0.7-0.7-1.2-0.1
	c-1.2,1.4-2.5,2.7-4.1,3.6c-0.6,0.3-0.9,0.8-0.8,1.5c0,1.6,0,3.1,0,4.7c0,0.7,0.2,0.9,0.8,0.9c1,0,1.9,0,2.9,0
	c1.4,0,2.2,0.7,2.2,2.1c0,1,0,1.9,0,2.9c-0.1,1.3-0.8,2-2.1,2c-4.3,0-8.5,0-12.8,0c-1.3,0-2-0.7-2.1-2c0-0.9,0-1.9,0-2.9
	c0.1-1.4,0.8-2.1,2.2-2.1c0.9,0,1.8,0,2.8,0c0.6,0,1-0.2,0.9-0.9c-0.1-1.5,0-3,0-4.5c0-0.7-0.2-1.2-0.9-1.6c-1.7-0.9-3-2.2-4.2-3.7
	c-0.4-0.6-0.7-0.8-1.1,0.1c-1,1.9-3.4,2.4-4.9,1c-1-0.9-0.8-2.4,0.5-3c0.2-0.1,0.5,0,0.6-0.3c-0.8-0.8-1.8-1.4-2.8-1.8
	c-1.4-0.5-2.6-1.2-3.9-1.9c-2.2-1.3-3.5-3.2-4.1-5.7C88-15.2,88-15.7,87.7-16z M99.8-9.5c-1.7-3.9-3.2-7.9-4.2-12.1
	c-0.1-0.5-0.5-0.6-1-0.4c-1.9,0.9-3.1,2.4-3.5,4.5c-0.3,1.9,0.3,3.6,1.8,4.8C95-11,97.5-10.5,99.8-9.5z M123.2-9.5
	c2-0.9,4.1-1.4,5.9-2.5c1.8-1.1,2.9-2.6,2.8-4.8c-0.2-2.3-1.4-3.9-3.4-5c-0.7-0.4-1.1-0.2-1.3,0.5C126.3-17.3,124.9-13.4,123.2-9.5z
	"/>
<polygon class="st3" points="15.2,4.2 5.8,45.5 41.1,45.5 45,33.5 22.2,33.5 29.2,5.7 "/>
<text transform="matrix(1 0 0 1 -24.3335 69)" style="font-family:'MyriadPro-Regular'; font-size:12px;">rgb(0, 194, 42)</text>
</svg>
