<?xml version="1.0" encoding="utf-8"?>
<!-- Generator: Adobe Illustrator 19.0.0, SVG Export Plug-In . SVG Version: 6.00 Build 0)  -->
<svg version="1.1" id="Layer_1" xmlns="http://www.w3.org/2000/svg" xmlns:xlink="http://www.w3.org/1999/xlink" x="0px" y="0px"
	 viewBox="-2 15.2 44.3 21.8" style="enable-background:new -2 15.2 44.3 21.8;" xml:space="preserve">
<style type="text/css">
	.st0{fill:#EDD9BF;}
	.st1{fill:#1E2681;}
	.st2{fill:none;}
</style>
<g>
	<path id="XMLID_13_" class="st0" d="M12.9,35.1c5.2-3.5,8.8-6.8,14.4-5.2c5.6,1.5,12.4-4.2,12.4-4.2l-10.4-8.9
		c0,0-6.9,5.7-12.4,4.2c-5.5-1.5-11.2-0.2-16.5,3.2L12.9,35.1z"/>
	<path class="st1" d="M40.3,24l0.4-1.3l-1.8,0.1l0.4-1.7l-1.9,0.3l0.3-1.4L35.9,20l0.1-1.3l-1.5,0.2l0-1.2l-1.7,0l0.1-1.3l-1.6,0.1
		l0-0.9l-2.2,0.1l-0.7,0.5c0,0-6.5,5.3-11.5,4c-5.6-1.4-11.5-0.3-17.1,3.4l-1,0.7L-2,26l1.2,0.4l0.4,1.2L1.1,28l0.2,1.2l1.5,0.3
		L3,30.7l1.5,0.4l0.1,1.4l1.9,0.4l0,1.1l1.6,0.3l0,1.1l2,0.3l0.3,1l2.3-0.4l0.7-0.5c0.7-0.4,1.3-0.9,2-1.3c4.1-2.9,7.1-5,11.5-3.7
		c5.9,1.6,13-4.1,13.2-4.4l0.9-0.8l1.2-1.3L40.3,24z M27.4,29c-5.3-1.4-9,1-13.1,4c-0.5,0.3-1,0.7-1.4,1L2,24.5
		c4.9-3,9.7-3.8,14.6-2.4c5,1.3,10.8-2.5,12.7-3.9l8.9,7.5C36.1,27.1,31.3,30.1,27.4,29z"/>
	<path id="SVGID_x5F_1_x5F_" class="st2" d="M11.3,30.4c3.1-1.7,7.3-4.6,20.7-3"/>
	<text>	<textPath  xlink:href="#SVGID_x5F_1_x5F_" startOffset="5.4688%">
<tspan  style="font-family:'Funhouse'; font-size:5.5646px;">ticket</tspan>	</textPath>
</text>
</g>
</svg>
