<?xml version="1.0" encoding="utf-8"?>
<!-- Generator: Adobe Illustrator 19.0.0, SVG Export Plug-In . SVG Version: 6.00 Build 0)  -->
<svg version="1.1" id="Layer_1" xmlns="http://www.w3.org/2000/svg" xmlns:xlink="http://www.w3.org/1999/xlink" x="0px" y="0px"
	 viewBox="0 0 44.3 21.8" style="enable-background:new 0 0 44.3 21.8;" xml:space="preserve">
<style type="text/css">
	.st0{fill:#C5E6FF;}
	.st1{fill:#0071BC;}
</style>
<g id="XMLID_37_">
	<g id="XMLID_1_">
		<path id="XMLID_15_" class="st0" d="M14.7,20.5c5.5-3.7,9.2-7.1,15.1-5.5s13-4.4,13-4.4S31.9,1.3,31.9,1.3s-7.2,6-13,4.4
			S7.1,5.5,1.6,9.1L14.7,20.5z"/>
		<path id="XMLID_16_" class="st1" d="M14.6,21.8L0,9l1.1-0.7c5.9-3.9,12.1-5.1,18-3.6c5.3,1.4,12.1-4.2,12.1-4.2L31.9,0l12.4,10.6
			l-0.9,0.8c-0.3,0.3-7.7,6.3-13.9,4.6c-4.6-1.3-7.8,0.9-12.1,3.9c-0.7,0.5-1.4,1-2.1,1.4L14.6,21.8z M3.3,9.3l11.4,10
			c0.5-0.3,1-0.7,1.5-1c4.4-3.1,8.2-5.7,13.8-4.2c4.1,1.1,9.1-2,11.2-3.5l-9.3-7.9c-2,1.5-8,5.5-13.3,4.1C13.5,5.3,8.4,6.2,3.3,9.3z
			"/>
	</g>
	<g id="XMLID_22_">
		<path id="XMLID_23_" class="st1" d="M15,13.1c-0.1,0.4-0.1,0.7-0.3,0.9s-0.3,0.4-0.4,0.5c-0.1,0.1-0.2,0.1-0.4,0
			c-0.1,0-0.2-0.1-0.3-0.3c-0.2-0.4-0.3-0.9-0.2-1.5c0.1-0.6,0.3-1,0.6-1.2c0.1-0.1,0.2,0,0.4,0.1c0,0,0.1,0,0.1,0
			c0.1-0.1,0.2,0,0.2,0c0,0,0.1,0.1,0.1,0.2c0.2,0.5,0.3,0.8,0.4,1c0.2,0.3,0.4,0.5,0.5,0.5c0.1,0,0.1,0,0.2,0.1c0,0,0,0.1,0,0.2
			c0,0.1-0.1,0.1-0.1,0.2c-0.1,0.1-0.2,0-0.4-0.1S15.2,13.3,15,13.1z M14.2,11.9c-0.2,0.1-0.3,0.4-0.4,0.9s0,0.9,0.1,1.1
			c0.1,0.2,0.2,0.2,0.3,0.2c0.2-0.1,0.3-0.4,0.4-0.8c0.1-0.5,0.1-0.8-0.1-1.1C14.5,11.9,14.4,11.9,14.2,11.9z"/>
		<path id="XMLID_26_" class="st1" d="M17.7,11.7c-0.1,0.4-0.2,0.7-0.3,1c-0.2,0.3-0.3,0.4-0.5,0.5c-0.1,0.1-0.3,0.1-0.4,0
			c-0.1-0.1-0.2-0.2-0.3-0.4c-0.2-0.4-0.2-0.8,0-1.4s0.4-0.9,0.8-1c0.2-0.1,0.3-0.1,0.5,0l-0.3-1.6c0-0.1,0-0.2,0-0.3
			c0-0.1,0.1-0.1,0.1-0.1c0.1,0,0.2,0,0.3,0.2c0,0,0,0.2,0,0.4c0,0.4,0.1,0.8,0.2,1.3s0.2,0.9,0.3,1.2c0.1,0.3,0.3,0.4,0.4,0.4
			c0.1,0,0.2-0.1,0.2-0.2c0,0,0.1-0.1,0.1-0.1c0,0,0.1,0,0.1,0.1c0,0.1,0,0.2-0.1,0.3c-0.1,0.2-0.2,0.3-0.4,0.3
			c-0.2,0.1-0.5-0.1-0.7-0.6C17.8,11.8,17.8,11.7,17.7,11.7z M17,10.7c-0.2,0.1-0.4,0.4-0.5,0.8s-0.1,0.8,0,1.1
			c0.1,0.2,0.2,0.3,0.3,0.2c0.1,0,0.2-0.2,0.4-0.4s0.2-0.5,0.3-0.8s0.1-0.6,0-0.7c0-0.1-0.1-0.1-0.2-0.2
			C17.2,10.7,17.1,10.7,17,10.7z"/>
		<path id="XMLID_29_" class="st1" d="M20.9,9.8c-0.1,0-0.4,0.5-0.7,1.5c-0.1,0.3-0.2,0.5-0.2,0.5c0,0-0.1,0.1-0.1,0.1
			c-0.1,0-0.1,0.1-0.2,0.1c-0.1,0-0.2-0.2-0.3-0.6c0-0.2-0.1-0.7-0.1-1.3c0-0.3,0-0.4,0-0.5c0-0.1,0-0.2,0.1-0.2
			c0.2,0,0.3,0.1,0.3,0.3c0,0.1,0,0.4,0,0.7c0,0.4,0,0.7,0,0.7c0.1-0.1,0.2-0.3,0.3-0.7c0.2-0.5,0.4-0.8,0.5-0.9
			c0.1-0.1,0.2-0.2,0.4-0.2c0.1,0,0.2,0,0.3,0.2c0.1,0.1,0.2,0.5,0.3,1c0,0.1,0.1,0.2,0.1,0.3c0,0.1,0.1,0.1,0.1,0.1
			c0.1,0,0.2-0.3,0.4-0.9c0.1-0.3,0.2-0.5,0.3-0.7S22.5,9,22.7,9c0.1,0,0.2,0,0.3,0.2s0.2,0.3,0.2,0.6c0.1,0.3,0.1,0.5,0.2,0.7
			s0.2,0.3,0.3,0.4c0.1,0,0.2,0.1,0.2,0.1c0,0.1,0,0.1-0.1,0.2s-0.1,0.1-0.2,0.1c-0.1,0-0.3,0-0.4-0.2c-0.1-0.1-0.3-0.5-0.4-1
			c-0.1-0.2-0.1-0.4-0.1-0.4s-0.1-0.1-0.1-0.1c-0.1,0-0.1,0.1-0.2,0.2s-0.2,0.4-0.3,0.9c-0.1,0.3-0.2,0.6-0.3,0.7
			c-0.1,0.1-0.1,0.2-0.2,0.2c-0.1,0-0.1,0-0.2-0.1c-0.1,0-0.1-0.1-0.1-0.2c0-0.1-0.1-0.3-0.1-0.6C21.1,10.2,21,9.9,20.9,9.8z"/>
		<path id="XMLID_31_" class="st1" d="M24.8,10.8c0,0.1,0,0.3,0.1,0.4c0,0,0,0.1,0,0.1c0,0,0,0.1-0.1,0.1s-0.1,0.1-0.2,0.1
			c-0.2,0-0.2-0.1-0.3-0.4c0-0.3,0-0.8,0.1-1.4c0-0.2,0-0.4,0-0.4c0-0.1,0-0.2,0-0.3c0-0.1,0.1-0.1,0.2-0.1c0.1,0,0.1,0,0.2,0
			C25,8.9,25,9,25,9c0,0,0,0.1,0,0.2c-0.1,0.4-0.2,0.7-0.2,0.9C24.8,10.3,24.8,10.5,24.8,10.8z M25,8c0,0-0.1,0-0.1-0.1
			c0,0,0,0,0-0.1c0-0.1-0.1-0.2-0.1-0.3c0-0.1,0-0.1,0.1-0.2c0.1-0.1,0.2-0.1,0.3-0.1c0,0,0.1,0,0.2,0c0.1,0,0.1,0.1,0.1,0.1
			c0,0.1,0,0.1,0,0.3S25.3,7.9,25.2,8C25.1,8,25,8,25,8z"/>
		<path id="XMLID_34_" class="st1" d="M26.7,8.8c0.2,0,0.3,0,0.5-0.1c0.1,0,0.3,0,0.4,0c0.1,0,0.2,0,0.2,0c0,0,0.1,0.1,0.1,0.1
			c0,0.1-0.1,0.2-0.3,0.2c-0.2,0-0.5,0-0.6,0.1s-0.3,0.1-0.3,0.1c0,0-0.1,0.2-0.1,0.6c-0.1,0.4-0.1,0.6-0.1,0.7c0,0.2,0,0.3,0.1,0.4
			c0,0.1,0.1,0.1,0.2,0.1c0.1,0,0.3-0.1,0.6-0.3c0.1-0.1,0.2-0.1,0.2-0.1c0.1,0,0.1,0,0.1,0.1c0,0.1-0.1,0.3-0.3,0.5
			c-0.2,0.2-0.4,0.3-0.7,0.3c-0.4,0-0.6-0.2-0.6-0.7c0-0.2,0-0.4,0.1-0.8c0.1-0.4,0.1-0.6,0.1-0.6c0,0,0,0-0.1,0l-0.3,0
			c-0.2,0-0.3-0.1-0.3-0.2c0-0.1,0-0.1,0.1-0.1l0.5,0c0,0,0.1,0,0.1,0c0,0,0.1-0.1,0.1-0.3s0.1-0.4,0.1-0.5c0-0.2,0.1-0.3,0.2-0.3
			c0.1,0,0.1,0,0.2,0.1s0.1,0.1,0.1,0.1c0,0,0,0.1-0.1,0.4L26.7,8.8z"/>
	</g>
	<g id="XMLID_19_">
		<path id="XMLID_20_" class="st1" d="M32.3,10.6l0,0.1c0,0.1-0.1,0.1-0.3,0.1c0,0-0.1,0-0.1-0.1c0-0.1-0.1-0.1-0.1-0.1
			c0,0-0.1,0-0.3,0.1s-0.3,0.1-0.3,0.1C31,10.9,30.9,11,30.8,11c-0.1,0-0.1,0-0.2-0.1c0-0.1-0.1-0.1-0.1-0.1c0-0.1,0.1-0.1,0.2-0.2
			c0.1,0,0.3-0.1,0.4-0.1c0.4-0.1,0.6-0.1,0.6-0.2c0-0.3,0.1-0.7,0.1-1.1l0.1-1c-0.1,0-0.2,0.1-0.4,0.2c-0.3,0.2-0.6,0.3-0.8,0.3
			c-0.1,0-0.1-0.1-0.1-0.2c0-0.1,0-0.1,0-0.1s0.1-0.1,0.3-0.2c0.2-0.1,0.5-0.2,0.8-0.4s0.5-0.3,0.5-0.3c0.1,0,0.1,0,0.1,0.1
			s0.1,0.1,0.1,0.2c0,0,0,0.1-0.1,0.1c-0.2,0.7-0.3,1.2-0.3,1.6c0,0.4,0,0.6,0,0.6c0.1,0,0.3,0,0.5-0.1c0.3-0.1,0.6-0.1,0.8-0.1
			c0,0.1,0.1,0.1,0.1,0.2c0,0.1,0,0.1,0,0.1s-0.1,0-0.2,0.1s-0.2,0.1-0.5,0.1C32.6,10.5,32.4,10.5,32.3,10.6z"/>
	</g>
</g>
</svg>
